<?xml version="1.0" encoding="UTF-8" standalone="no"?>
<!DOCTYPE svg PUBLIC "-//W3C//DTD SVG 1.1//EN"
 "http://www.w3.org/Graphics/SVG/1.1/DTD/svg11.dtd">
<!-- Generated by graphviz version 2.43.0 (0)
 -->
<!-- Title: snakemake_dag Pages: 1 -->
<svg width="994pt" height="1484pt"
 viewBox="0.00 0.00 993.50 1484.00" xmlns="http://www.w3.org/2000/svg" xmlns:xlink="http://www.w3.org/1999/xlink">
<g id="graph0" class="graph" transform="scale(1 1) rotate(0) translate(4 1480)">
<title>snakemake_dag</title>
<polygon fill="white" stroke="transparent" points="-4,4 -4,-1480 989.5,-1480 989.5,4 -4,4"/>
<!-- 0 -->
<g id="node1" class="node">
<title>0</title>
<path fill="none" stroke="#d86656" stroke-width="2" d="M414,-36C414,-36 384,-36 384,-36 378,-36 372,-30 372,-24 372,-24 372,-12 372,-12 372,-6 378,0 384,0 384,0 414,0 414,0 420,0 426,-6 426,-12 426,-12 426,-24 426,-24 426,-30 420,-36 414,-36"/>
<text text-anchor="middle" x="399" y="-15.5" font-family="sans" font-size="10.00">all</text>
</g>
<!-- 1 -->
<g id="node2" class="node">
<title>1</title>
<path fill="none" stroke="#78d856" stroke-width="2" d="M198,-324C198,-324 168,-324 168,-324 162,-324 156,-318 156,-312 156,-312 156,-300 156,-300 156,-294 162,-288 168,-288 168,-288 198,-288 198,-288 204,-288 210,-294 210,-300 210,-300 210,-312 210,-312 210,-318 204,-324 198,-324"/>
<text text-anchor="middle" x="183" y="-303.5" font-family="sans" font-size="10.00">multiqc</text>
</g>
<!-- 1&#45;&gt;0 -->
<g id="edge2" class="edge">
<title>1&#45;&gt;0</title>
<path fill="none" stroke="grey" stroke-width="2" d="M183.04,-287.84C183.68,-269.34 186.46,-239.39 197,-216 231.11,-140.3 253.81,-127.01 316,-72 330.24,-59.41 347.76,-47.75 363.04,-38.6"/>
<polygon fill="grey" stroke="grey" stroke-width="2" points="364.86,-41.59 371.73,-33.51 361.33,-35.55 364.86,-41.59"/>
</g>
<!-- 2 -->
<g id="node3" class="node">
<title>2</title>
<path fill="none" stroke="#56d8d8" stroke-width="2" d="M250,-468C250,-468 200,-468 200,-468 194,-468 188,-462 188,-456 188,-456 188,-444 188,-444 188,-438 194,-432 200,-432 200,-432 250,-432 250,-432 256,-432 262,-438 262,-444 262,-444 262,-456 262,-456 262,-462 256,-468 250,-468"/>
<text text-anchor="middle" x="225" y="-447.5" font-family="sans" font-size="10.00">FastQC_raw</text>
</g>
<!-- 2&#45;&gt;1 -->
<g id="edge4" class="edge">
<title>2&#45;&gt;1</title>
<path fill="none" stroke="grey" stroke-width="2" d="M226.15,-431.76C226.8,-413.44 226.21,-383.89 218,-360 214.7,-350.4 209.25,-340.86 203.62,-332.56"/>
<polygon fill="grey" stroke="grey" stroke-width="2" points="206.45,-330.51 197.78,-324.43 200.77,-334.59 206.45,-330.51"/>
</g>
<!-- 3 -->
<g id="node4" class="node">
<title>3</title>
<path fill="none" stroke="#567bd8" stroke-width="2" d="M197,-396C197,-396 123,-396 123,-396 117,-396 111,-390 111,-384 111,-384 111,-372 111,-372 111,-366 117,-360 123,-360 123,-360 197,-360 197,-360 203,-360 209,-366 209,-372 209,-372 209,-384 209,-384 209,-390 203,-396 197,-396"/>
<text text-anchor="middle" x="160" y="-375.5" font-family="sans" font-size="10.00">FastQC_trimmed</text>
</g>
<!-- 2&#45;&gt;3 -->
<g id="edge12" class="edge">
<title>2&#45;&gt;3</title>
<path fill="none" stroke="grey" stroke-width="2" d="M208.93,-431.7C201.06,-423.22 191.44,-412.86 182.83,-403.58"/>
<polygon fill="grey" stroke="grey" stroke-width="2" points="185.25,-401.05 175.88,-396.1 180.12,-405.81 185.25,-401.05"/>
</g>
<!-- 3&#45;&gt;1 -->
<g id="edge10" class="edge">
<title>3&#45;&gt;1</title>
<path fill="none" stroke="grey" stroke-width="2" d="M165.69,-359.7C168.25,-351.9 171.33,-342.51 174.18,-333.83"/>
<polygon fill="grey" stroke="grey" stroke-width="2" points="177.58,-334.7 177.38,-324.1 170.93,-332.51 177.58,-334.7"/>
</g>
<!-- 4 -->
<g id="node5" class="node">
<title>4</title>
<path fill="none" stroke="#88d856" stroke-width="2" d="M224.5,-540C224.5,-540 123.5,-540 123.5,-540 117.5,-540 111.5,-534 111.5,-528 111.5,-528 111.5,-516 111.5,-516 111.5,-510 117.5,-504 123.5,-504 123.5,-504 224.5,-504 224.5,-504 230.5,-504 236.5,-510 236.5,-516 236.5,-516 236.5,-528 236.5,-528 236.5,-534 230.5,-540 224.5,-540"/>
<text text-anchor="middle" x="174" y="-519.5" font-family="sans" font-size="10.00">Trimmomatic_cleanup</text>
</g>
<!-- 4&#45;&gt;3 -->
<g id="edge11" class="edge">
<title>4&#45;&gt;3</title>
<path fill="none" stroke="grey" stroke-width="2" d="M172.31,-503.87C169.93,-479.67 165.54,-435.21 162.7,-406.39"/>
<polygon fill="grey" stroke="grey" stroke-width="2" points="166.16,-405.8 161.69,-396.19 159.19,-406.48 166.16,-405.8"/>
</g>
<!-- 7 -->
<g id="node8" class="node">
<title>7</title>
<path fill="none" stroke="#56d873" stroke-width="2" d="M505.5,-468C505.5,-468 444.5,-468 444.5,-468 438.5,-468 432.5,-462 432.5,-456 432.5,-456 432.5,-444 432.5,-444 432.5,-438 438.5,-432 444.5,-432 444.5,-432 505.5,-432 505.5,-432 511.5,-432 517.5,-438 517.5,-444 517.5,-444 517.5,-456 517.5,-456 517.5,-462 511.5,-468 505.5,-468"/>
<text text-anchor="middle" x="475" y="-447.5" font-family="sans" font-size="10.00">kallisto_quant</text>
</g>
<!-- 4&#45;&gt;7 -->
<g id="edge15" class="edge">
<title>4&#45;&gt;7</title>
<path fill="none" stroke="grey" stroke-width="2" d="M236.73,-506.41C291.65,-493.64 370.54,-475.29 422.26,-463.26"/>
<polygon fill="grey" stroke="grey" stroke-width="2" points="423.28,-466.62 432.23,-460.95 421.7,-459.8 423.28,-466.62"/>
</g>
<!-- 10 -->
<g id="node11" class="node">
<title>10</title>
<path fill="none" stroke="#80d856" stroke-width="2" d="M339.5,-468C339.5,-468 292.5,-468 292.5,-468 286.5,-468 280.5,-462 280.5,-456 280.5,-456 280.5,-444 280.5,-444 280.5,-438 286.5,-432 292.5,-432 292.5,-432 339.5,-432 339.5,-432 345.5,-432 351.5,-438 351.5,-444 351.5,-444 351.5,-456 351.5,-456 351.5,-462 345.5,-468 339.5,-468"/>
<text text-anchor="middle" x="316" y="-447.5" font-family="sans" font-size="10.00">STAR_align</text>
</g>
<!-- 4&#45;&gt;10 -->
<g id="edge18" class="edge">
<title>4&#45;&gt;10</title>
<path fill="none" stroke="grey" stroke-width="2" d="M208.74,-503.88C227.82,-494.47 251.68,-482.71 272.05,-472.67"/>
<polygon fill="grey" stroke="grey" stroke-width="2" points="273.71,-475.75 281.13,-468.19 270.61,-469.47 273.71,-475.75"/>
</g>
<!-- 5 -->
<g id="node6" class="node">
<title>5</title>
<path fill="none" stroke="#d88d56" stroke-width="2" d="M208,-612C208,-612 134,-612 134,-612 128,-612 122,-606 122,-600 122,-600 122,-588 122,-588 122,-582 128,-576 134,-576 134,-576 208,-576 208,-576 214,-576 220,-582 220,-588 220,-588 220,-600 220,-600 220,-606 214,-612 208,-612"/>
<text text-anchor="middle" x="171" y="-591.5" font-family="sans" font-size="10.00">Trimmomatic_SE</text>
</g>
<!-- 5&#45;&gt;1 -->
<g id="edge8" class="edge">
<title>5&#45;&gt;1</title>
<path fill="none" stroke="grey" stroke-width="2" d="M137.69,-575.83C124.35,-567.06 110.41,-555.04 103,-540 67.64,-468.24 63.95,-430.37 102,-360 111.58,-342.29 129.93,-329.55 146.75,-321"/>
<polygon fill="grey" stroke="grey" stroke-width="2" points="148.33,-324.13 155.87,-316.68 145.33,-317.8 148.33,-324.13"/>
</g>
<!-- 5&#45;&gt;4 -->
<g id="edge13" class="edge">
<title>5&#45;&gt;4</title>
<path fill="none" stroke="grey" stroke-width="2" d="M171.74,-575.7C172.07,-567.98 172.47,-558.71 172.84,-550.11"/>
<polygon fill="grey" stroke="grey" stroke-width="2" points="176.34,-550.25 173.27,-540.1 169.34,-549.95 176.34,-550.25"/>
</g>
<!-- 6 -->
<g id="node7" class="node">
<title>6</title>
<path fill="none" stroke="#d8c356" stroke-width="2" d="M86,-612C86,-612 12,-612 12,-612 6,-612 0,-606 0,-600 0,-600 0,-588 0,-588 0,-582 6,-576 12,-576 12,-576 86,-576 86,-576 92,-576 98,-582 98,-588 98,-588 98,-600 98,-600 98,-606 92,-612 86,-612"/>
<text text-anchor="middle" x="49" y="-591.5" font-family="sans" font-size="10.00">Trimmomatic_PE</text>
</g>
<!-- 6&#45;&gt;1 -->
<g id="edge7" class="edge">
<title>6&#45;&gt;1</title>
<path fill="none" stroke="grey" stroke-width="2" d="M46.4,-575.88C41.08,-534.55 33.19,-427.71 81,-360 96.44,-338.13 123.71,-324.63 146.17,-316.73"/>
<polygon fill="grey" stroke="grey" stroke-width="2" points="147.36,-320.02 155.77,-313.58 145.17,-313.37 147.36,-320.02"/>
</g>
<!-- 6&#45;&gt;4 -->
<g id="edge14" class="edge">
<title>6&#45;&gt;4</title>
<path fill="none" stroke="grey" stroke-width="2" d="M79.58,-575.88C96.07,-566.64 116.62,-555.13 134.34,-545.21"/>
<polygon fill="grey" stroke="grey" stroke-width="2" points="136.29,-548.13 143.3,-540.19 132.87,-542.02 136.29,-548.13"/>
</g>
<!-- 7&#45;&gt;1 -->
<g id="edge6" class="edge">
<title>7&#45;&gt;1</title>
<path fill="none" stroke="grey" stroke-width="2" d="M476.62,-431.86C477.5,-411.63 475.53,-378.44 456,-360 379.48,-287.77 323.07,-353.27 222,-324 221.28,-323.79 220.56,-323.57 219.83,-323.35"/>
<polygon fill="grey" stroke="grey" stroke-width="2" points="220.96,-320.03 210.37,-319.98 218.62,-326.63 220.96,-320.03"/>
</g>
<!-- 19 -->
<g id="node20" class="node">
<title>19</title>
<path fill="none" stroke="#56a9d8" stroke-width="2" d="M605,-396C605,-396 515,-396 515,-396 509,-396 503,-390 503,-384 503,-384 503,-372 503,-372 503,-366 509,-360 515,-360 515,-360 605,-360 605,-360 611,-360 617,-366 617,-372 617,-372 617,-384 617,-384 617,-390 611,-396 605,-396"/>
<text text-anchor="middle" x="560" y="-375.5" font-family="sans" font-size="10.00">tximport_and_setup</text>
</g>
<!-- 7&#45;&gt;19 -->
<g id="edge31" class="edge">
<title>7&#45;&gt;19</title>
<path fill="none" stroke="grey" stroke-width="2" d="M496.01,-431.7C506.72,-422.88 519.89,-412.03 531.5,-402.47"/>
<polygon fill="grey" stroke="grey" stroke-width="2" points="533.74,-405.16 539.23,-396.1 529.29,-399.76 533.74,-405.16"/>
</g>
<!-- 8 -->
<g id="node9" class="node">
<title>8</title>
<path fill="none" stroke="#d87556" stroke-width="2" d="M646,-540C646,-540 586,-540 586,-540 580,-540 574,-534 574,-528 574,-528 574,-516 574,-516 574,-510 580,-504 586,-504 586,-504 646,-504 646,-504 652,-504 658,-510 658,-516 658,-516 658,-528 658,-528 658,-534 652,-540 646,-540"/>
<text text-anchor="middle" x="616" y="-519.5" font-family="sans" font-size="10.00">kallisto_index</text>
</g>
<!-- 8&#45;&gt;7 -->
<g id="edge16" class="edge">
<title>8&#45;&gt;7</title>
<path fill="none" stroke="grey" stroke-width="2" d="M581.51,-503.88C562.56,-494.47 538.87,-482.71 518.64,-472.67"/>
<polygon fill="grey" stroke="grey" stroke-width="2" points="520.14,-469.5 509.63,-468.19 517.03,-475.77 520.14,-469.5"/>
</g>
<!-- 9 -->
<g id="node10" class="node">
<title>9</title>
<path fill="none" stroke="#56d863" stroke-width="2" d="M662.5,-612C662.5,-612 569.5,-612 569.5,-612 563.5,-612 557.5,-606 557.5,-600 557.5,-600 557.5,-588 557.5,-588 557.5,-582 563.5,-576 569.5,-576 569.5,-576 662.5,-576 662.5,-576 668.5,-576 674.5,-582 674.5,-588 674.5,-588 674.5,-600 674.5,-600 674.5,-606 668.5,-612 662.5,-612"/>
<text text-anchor="middle" x="616" y="-591.5" font-family="sans" font-size="10.00">cdna_fasta_handling</text>
</g>
<!-- 9&#45;&gt;8 -->
<g id="edge17" class="edge">
<title>9&#45;&gt;8</title>
<path fill="none" stroke="grey" stroke-width="2" d="M616,-575.7C616,-567.98 616,-558.71 616,-550.11"/>
<polygon fill="grey" stroke="grey" stroke-width="2" points="619.5,-550.1 616,-540.1 612.5,-550.1 619.5,-550.1"/>
</g>
<!-- 10&#45;&gt;1 -->
<g id="edge5" class="edge">
<title>10&#45;&gt;1</title>
<path fill="none" stroke="grey" stroke-width="2" d="M300.66,-431.76C284.51,-413.71 258.25,-384.6 235,-360 226.01,-350.48 215.97,-340.18 207.12,-331.2"/>
<polygon fill="grey" stroke="grey" stroke-width="2" points="209.55,-328.68 200.03,-324.03 204.57,-333.6 209.55,-328.68"/>
</g>
<!-- 15 -->
<g id="node16" class="node">
<title>15</title>
<path fill="none" stroke="#56d8a2" stroke-width="2" d="M435,-396C435,-396 315,-396 315,-396 309,-396 303,-390 303,-384 303,-384 303,-372 303,-372 303,-366 309,-360 315,-360 315,-360 435,-360 435,-360 441,-360 447,-366 447,-372 447,-372 447,-384 447,-384 447,-390 441,-396 435,-396"/>
<text text-anchor="middle" x="375" y="-375.5" font-family="sans" font-size="10.00">featureCounts_gene_level</text>
</g>
<!-- 10&#45;&gt;15 -->
<g id="edge23" class="edge">
<title>10&#45;&gt;15</title>
<path fill="none" stroke="grey" stroke-width="2" d="M330.58,-431.7C337.66,-423.3 346.28,-413.07 354.05,-403.86"/>
<polygon fill="grey" stroke="grey" stroke-width="2" points="356.81,-406.01 360.58,-396.1 351.46,-401.49 356.81,-406.01"/>
</g>
<!-- 11 -->
<g id="node12" class="node">
<title>11</title>
<path fill="none" stroke="#d8cb56" stroke-width="2" d="M341,-540C341,-540 291,-540 291,-540 285,-540 279,-534 279,-528 279,-528 279,-516 279,-516 279,-510 285,-504 291,-504 291,-504 341,-504 341,-504 347,-504 353,-510 353,-516 353,-516 353,-528 353,-528 353,-534 347,-540 341,-540"/>
<text text-anchor="middle" x="316" y="-519.5" font-family="sans" font-size="10.00">STAR_index</text>
</g>
<!-- 11&#45;&gt;10 -->
<g id="edge19" class="edge">
<title>11&#45;&gt;10</title>
<path fill="none" stroke="grey" stroke-width="2" d="M316,-503.7C316,-495.98 316,-486.71 316,-478.11"/>
<polygon fill="grey" stroke="grey" stroke-width="2" points="319.5,-478.1 316,-468.1 312.5,-478.1 319.5,-478.1"/>
</g>
<!-- 12 -->
<g id="node13" class="node">
<title>12</title>
<path fill="none" stroke="#c6d856" stroke-width="2" d="M350,-612C350,-612 262,-612 262,-612 256,-612 250,-606 250,-600 250,-600 250,-588 250,-588 250,-582 256,-576 262,-576 262,-576 350,-576 350,-576 356,-576 362,-582 362,-588 362,-588 362,-600 362,-600 362,-606 356,-612 350,-612"/>
<text text-anchor="middle" x="306" y="-591.5" font-family="sans" font-size="10.00">gen_fasta_handling</text>
</g>
<!-- 12&#45;&gt;11 -->
<g id="edge21" class="edge">
<title>12&#45;&gt;11</title>
<path fill="none" stroke="grey" stroke-width="2" d="M308.47,-575.7C309.57,-567.98 310.9,-558.71 312.13,-550.11"/>
<polygon fill="grey" stroke="grey" stroke-width="2" points="315.61,-550.5 313.56,-540.1 308.68,-549.51 315.61,-550.5"/>
</g>
<!-- 13 -->
<g id="node14" class="node">
<title>13</title>
<path fill="none" stroke="#56d8c1" stroke-width="2" d="M518,-612C518,-612 392,-612 392,-612 386,-612 380,-606 380,-600 380,-600 380,-588 380,-588 380,-582 386,-576 392,-576 392,-576 518,-576 518,-576 524,-576 530,-582 530,-588 530,-588 530,-600 530,-600 530,-606 524,-612 518,-612"/>
<text text-anchor="middle" x="455" y="-591.5" font-family="sans" font-size="10.00">annotation_standardization</text>
</g>
<!-- 13&#45;&gt;11 -->
<g id="edge20" class="edge">
<title>13&#45;&gt;11</title>
<path fill="none" stroke="grey" stroke-width="2" d="M421,-575.88C402.4,-566.51 379.17,-554.81 359.29,-544.8"/>
<polygon fill="grey" stroke="grey" stroke-width="2" points="360.64,-541.56 350.13,-540.19 357.49,-547.81 360.64,-541.56"/>
</g>
<!-- 13&#45;&gt;15 -->
<g id="edge24" class="edge">
<title>13&#45;&gt;15</title>
<path fill="none" stroke="grey" stroke-width="2" d="M448.59,-575.85C434.69,-538.68 401.71,-450.44 385.03,-405.82"/>
<polygon fill="grey" stroke="grey" stroke-width="2" points="388.22,-404.37 381.44,-396.23 381.67,-406.82 388.22,-404.37"/>
</g>
<!-- 13&#45;&gt;19 -->
<g id="edge30" class="edge">
<title>13&#45;&gt;19</title>
<path fill="none" stroke="grey" stroke-width="2" d="M466.21,-575.7C481.26,-552.02 508.27,-507.9 527,-468 536.58,-447.58 545.36,-423.55 551.44,-405.61"/>
<polygon fill="grey" stroke="grey" stroke-width="2" points="554.78,-406.67 554.62,-396.08 548.14,-404.46 554.78,-406.67"/>
</g>
<!-- 14 -->
<g id="node15" class="node">
<title>14</title>
<path fill="none" stroke="#56d86b" stroke-width="2" d="M501,-684C501,-684 409,-684 409,-684 403,-684 397,-678 397,-672 397,-672 397,-660 397,-660 397,-654 403,-648 409,-648 409,-648 501,-648 501,-648 507,-648 513,-654 513,-660 513,-660 513,-672 513,-672 513,-678 507,-684 501,-684"/>
<text text-anchor="middle" x="455" y="-663.5" font-family="sans" font-size="10.00">annotation_handling</text>
</g>
<!-- 14&#45;&gt;13 -->
<g id="edge22" class="edge">
<title>14&#45;&gt;13</title>
<path fill="none" stroke="grey" stroke-width="2" d="M455,-647.7C455,-639.98 455,-630.71 455,-622.11"/>
<polygon fill="grey" stroke="grey" stroke-width="2" points="458.5,-622.1 455,-612.1 451.5,-622.1 458.5,-622.1"/>
</g>
<!-- 15&#45;&gt;1 -->
<g id="edge9" class="edge">
<title>15&#45;&gt;1</title>
<path fill="none" stroke="grey" stroke-width="2" d="M322.58,-359.96C292.87,-350.03 255.12,-336.93 222,-324 221.16,-323.67 220.31,-323.33 219.45,-322.99"/>
<polygon fill="grey" stroke="grey" stroke-width="2" points="220.74,-319.74 210.16,-319.16 218.07,-326.21 220.74,-319.74"/>
</g>
<!-- 21 -->
<g id="node22" class="node">
<title>21</title>
<path fill="none" stroke="#569ad8" stroke-width="2" d="M490,-324C490,-324 428,-324 428,-324 422,-324 416,-318 416,-312 416,-312 416,-300 416,-300 416,-294 422,-288 428,-288 428,-288 490,-288 490,-288 496,-288 502,-294 502,-300 502,-300 502,-312 502,-312 502,-318 496,-324 490,-324"/>
<text text-anchor="middle" x="459" y="-303.5" font-family="sans" font-size="10.00">merge_counts</text>
</g>
<!-- 15&#45;&gt;21 -->
<g id="edge33" class="edge">
<title>15&#45;&gt;21</title>
<path fill="none" stroke="grey" stroke-width="2" d="M395.76,-359.7C406.24,-350.97 419.11,-340.24 430.5,-330.75"/>
<polygon fill="grey" stroke="grey" stroke-width="2" points="433.03,-333.19 438.47,-324.1 428.55,-327.82 433.03,-333.19"/>
</g>
<!-- 16 -->
<g id="node17" class="node">
<title>16</title>
<path fill="none" stroke="#d87d56" stroke-width="2" d="M461.5,-108C461.5,-108 336.5,-108 336.5,-108 330.5,-108 324.5,-102 324.5,-96 324.5,-96 324.5,-84 324.5,-84 324.5,-78 330.5,-72 336.5,-72 336.5,-72 461.5,-72 461.5,-72 467.5,-72 473.5,-78 473.5,-84 473.5,-84 473.5,-96 473.5,-96 473.5,-102 467.5,-108 461.5,-108"/>
<text text-anchor="middle" x="399" y="-87.5" font-family="sans" font-size="10.00">create_GeneTonic_list_files</text>
</g>
<!-- 16&#45;&gt;0 -->
<g id="edge3" class="edge">
<title>16&#45;&gt;0</title>
<path fill="none" stroke="grey" stroke-width="2" d="M399,-71.7C399,-63.98 399,-54.71 399,-46.11"/>
<polygon fill="grey" stroke="grey" stroke-width="2" points="402.5,-46.1 399,-36.1 395.5,-46.1 402.5,-46.1"/>
</g>
<!-- 17 -->
<g id="node18" class="node">
<title>17</title>
<path fill="none" stroke="#bed856" stroke-width="2" d="M582.5,-180C582.5,-180 503.5,-180 503.5,-180 497.5,-180 491.5,-174 491.5,-168 491.5,-168 491.5,-156 491.5,-156 491.5,-150 497.5,-144 503.5,-144 503.5,-144 582.5,-144 582.5,-144 588.5,-144 594.5,-150 594.5,-156 594.5,-156 594.5,-168 594.5,-168 594.5,-174 588.5,-180 582.5,-180"/>
<text text-anchor="middle" x="543" y="-159.5" font-family="sans" font-size="10.00">deseq2_complete</text>
</g>
<!-- 17&#45;&gt;16 -->
<g id="edge25" class="edge">
<title>17&#45;&gt;16</title>
<path fill="none" stroke="grey" stroke-width="2" d="M507.77,-143.88C488.42,-134.47 464.23,-122.71 443.57,-112.67"/>
<polygon fill="grey" stroke="grey" stroke-width="2" points="444.89,-109.41 434.36,-108.19 441.83,-115.71 444.89,-109.41"/>
</g>
<!-- 25 -->
<g id="node26" class="node">
<title>25</title>
<path fill="none" stroke="#56d8b9" stroke-width="2" d="M578.5,-108C578.5,-108 507.5,-108 507.5,-108 501.5,-108 495.5,-102 495.5,-96 495.5,-96 495.5,-84 495.5,-84 495.5,-78 501.5,-72 507.5,-72 507.5,-72 578.5,-72 578.5,-72 584.5,-72 590.5,-78 590.5,-84 590.5,-84 590.5,-96 590.5,-96 590.5,-102 584.5,-108 578.5,-108"/>
<text text-anchor="middle" x="543" y="-87.5" font-family="sans" font-size="10.00">final_tea_output</text>
</g>
<!-- 17&#45;&gt;25 -->
<g id="edge39" class="edge">
<title>17&#45;&gt;25</title>
<path fill="none" stroke="grey" stroke-width="2" d="M543,-143.7C543,-135.98 543,-126.71 543,-118.11"/>
<polygon fill="grey" stroke="grey" stroke-width="2" points="546.5,-118.1 543,-108.1 539.5,-118.1 546.5,-118.1"/>
</g>
<!-- 18 -->
<g id="node19" class="node">
<title>18</title>
<path fill="none" stroke="#566bd8" stroke-width="2" d="M589.5,-252C589.5,-252 530.5,-252 530.5,-252 524.5,-252 518.5,-246 518.5,-240 518.5,-240 518.5,-228 518.5,-228 518.5,-222 524.5,-216 530.5,-216 530.5,-216 589.5,-216 589.5,-216 595.5,-216 601.5,-222 601.5,-228 601.5,-228 601.5,-240 601.5,-240 601.5,-246 595.5,-252 589.5,-252"/>
<text text-anchor="middle" x="560" y="-231.5" font-family="sans" font-size="10.00">cdna_DESeq2</text>
</g>
<!-- 18&#45;&gt;17 -->
<g id="edge28" class="edge">
<title>18&#45;&gt;17</title>
<path fill="none" stroke="grey" stroke-width="2" d="M555.8,-215.7C553.9,-207.9 551.62,-198.51 549.52,-189.83"/>
<polygon fill="grey" stroke="grey" stroke-width="2" points="552.92,-189 547.15,-180.1 546.11,-190.65 552.92,-189"/>
</g>
<!-- 19&#45;&gt;18 -->
<g id="edge29" class="edge">
<title>19&#45;&gt;18</title>
<path fill="none" stroke="grey" stroke-width="2" d="M560,-359.87C560,-335.67 560,-291.21 560,-262.39"/>
<polygon fill="grey" stroke="grey" stroke-width="2" points="563.5,-262.19 560,-252.19 556.5,-262.19 563.5,-262.19"/>
</g>
<!-- 20 -->
<g id="node21" class="node">
<title>20</title>
<path fill="none" stroke="#56b9d8" stroke-width="2" d="M488.5,-252C488.5,-252 435.5,-252 435.5,-252 429.5,-252 423.5,-246 423.5,-240 423.5,-240 423.5,-228 423.5,-228 423.5,-222 429.5,-216 435.5,-216 435.5,-216 488.5,-216 488.5,-216 494.5,-216 500.5,-222 500.5,-228 500.5,-228 500.5,-240 500.5,-240 500.5,-246 494.5,-252 488.5,-252"/>
<text text-anchor="middle" x="462" y="-231.5" font-family="sans" font-size="10.00">gen_DESeq2</text>
</g>
<!-- 20&#45;&gt;17 -->
<g id="edge27" class="edge">
<title>20&#45;&gt;17</title>
<path fill="none" stroke="grey" stroke-width="2" d="M482.02,-215.7C492.13,-206.97 504.54,-196.24 515.52,-186.75"/>
<polygon fill="grey" stroke="grey" stroke-width="2" points="517.93,-189.29 523.21,-180.1 513.35,-183.99 517.93,-189.29"/>
</g>
<!-- 21&#45;&gt;20 -->
<g id="edge32" class="edge">
<title>21&#45;&gt;20</title>
<path fill="none" stroke="grey" stroke-width="2" d="M459.74,-287.7C460.07,-279.98 460.47,-270.71 460.84,-262.11"/>
<polygon fill="grey" stroke="grey" stroke-width="2" points="464.34,-262.25 461.27,-252.1 457.34,-261.95 464.34,-262.25"/>
</g>
<!-- 22 -->
<g id="node23" class="node">
<title>22</title>
<path fill="none" stroke="#5682d8" stroke-width="2" d="M461.5,-180C461.5,-180 328.5,-180 328.5,-180 322.5,-180 316.5,-174 316.5,-168 316.5,-168 316.5,-156 316.5,-156 316.5,-150 322.5,-144 328.5,-144 328.5,-144 461.5,-144 461.5,-144 467.5,-144 473.5,-150 473.5,-156 473.5,-156 473.5,-168 473.5,-168 473.5,-174 467.5,-180 461.5,-180"/>
<text text-anchor="middle" x="395" y="-159.5" font-family="sans" font-size="10.00">create_func_annotation_RDS</text>
</g>
<!-- 22&#45;&gt;16 -->
<g id="edge26" class="edge">
<title>22&#45;&gt;16</title>
<path fill="none" stroke="grey" stroke-width="2" d="M395.99,-143.7C396.43,-135.98 396.96,-126.71 397.45,-118.11"/>
<polygon fill="grey" stroke="grey" stroke-width="2" points="400.95,-118.29 398.02,-108.1 393.96,-117.89 400.95,-118.29"/>
</g>
<!-- 22&#45;&gt;25 -->
<g id="edge40" class="edge">
<title>22&#45;&gt;25</title>
<path fill="none" stroke="grey" stroke-width="2" d="M431.2,-143.88C451.26,-134.39 476.37,-122.51 497.71,-112.42"/>
<polygon fill="grey" stroke="grey" stroke-width="2" points="499.37,-115.51 506.91,-108.07 496.38,-109.18 499.37,-115.51"/>
</g>
<!-- 23 -->
<g id="node24" class="node">
<title>23</title>
<path fill="none" stroke="#a7d856" stroke-width="2" d="M354.5,-252C354.5,-252 217.5,-252 217.5,-252 211.5,-252 205.5,-246 205.5,-240 205.5,-240 205.5,-228 205.5,-228 205.5,-222 211.5,-216 217.5,-216 217.5,-216 354.5,-216 354.5,-216 360.5,-216 366.5,-222 366.5,-228 366.5,-228 366.5,-240 366.5,-240 366.5,-246 360.5,-252 354.5,-252"/>
<text text-anchor="middle" x="286" y="-231.5" font-family="sans" font-size="10.00">check_user_func_annotations</text>
</g>
<!-- 23&#45;&gt;22 -->
<g id="edge35" class="edge">
<title>23&#45;&gt;22</title>
<path fill="none" stroke="grey" stroke-width="2" d="M312.66,-215.88C326.78,-206.81 344.31,-195.55 359.56,-185.76"/>
<polygon fill="grey" stroke="grey" stroke-width="2" points="361.71,-188.54 368.23,-180.19 357.93,-182.65 361.71,-188.54"/>
</g>
<!-- 24 -->
<g id="node25" class="node">
<title>24</title>
<path fill="none" stroke="#afd856" stroke-width="2" d="M383.5,-324C383.5,-324 242.5,-324 242.5,-324 236.5,-324 230.5,-318 230.5,-312 230.5,-312 230.5,-300 230.5,-300 230.5,-294 236.5,-288 242.5,-288 242.5,-288 383.5,-288 383.5,-288 389.5,-288 395.5,-294 395.5,-300 395.5,-300 395.5,-312 395.5,-312 395.5,-318 389.5,-324 383.5,-324"/>
<text text-anchor="middle" x="313" y="-303.5" font-family="sans" font-size="10.00">handle_user_func_annotations</text>
</g>
<!-- 24&#45;&gt;22 -->
<g id="edge34" class="edge">
<title>24&#45;&gt;22</title>
<path fill="none" stroke="grey" stroke-width="2" d="M340.94,-287.77C353.49,-278.64 367.39,-266.34 376,-252 387.22,-233.32 391.87,-208.93 393.76,-190.41"/>
<polygon fill="grey" stroke="grey" stroke-width="2" points="397.27,-190.52 394.59,-180.27 390.29,-189.95 397.27,-190.52"/>
</g>
<!-- 24&#45;&gt;23 -->
<g id="edge36" class="edge">
<title>24&#45;&gt;23</title>
<path fill="none" stroke="grey" stroke-width="2" d="M306.33,-287.7C303.29,-279.81 299.62,-270.3 296.24,-261.55"/>
<polygon fill="grey" stroke="grey" stroke-width="2" points="299.46,-260.17 292.6,-252.1 292.93,-262.69 299.46,-260.17"/>
</g>
<!-- 25&#45;&gt;0 -->
<g id="edge1" class="edge">
<title>25&#45;&gt;0</title>
<path fill="none" stroke="grey" stroke-width="2" d="M507.77,-71.88C485.77,-61.18 457.51,-47.44 435.3,-36.65"/>
<polygon fill="grey" stroke="grey" stroke-width="2" points="436.72,-33.44 426.2,-32.22 433.66,-39.74 436.72,-33.44"/>
</g>
<!-- 26 -->
<g id="node27" class="node">
<title>26</title>
<path fill="none" stroke="#d85656" stroke-width="2" d="M719.5,-396C719.5,-396 676.5,-396 676.5,-396 670.5,-396 664.5,-390 664.5,-384 664.5,-384 664.5,-372 664.5,-372 664.5,-366 670.5,-360 676.5,-360 676.5,-360 719.5,-360 719.5,-360 725.5,-360 731.5,-366 731.5,-372 731.5,-372 731.5,-384 731.5,-384 731.5,-390 725.5,-396 719.5,-396"/>
<text text-anchor="middle" x="698" y="-375.5" font-family="sans" font-size="10.00">expansion</text>
</g>
<!-- 48 -->
<g id="node49" class="node">
<title>48</title>
<path fill="none" stroke="#56d8d0" stroke-width="2" d="M764.5,-252C764.5,-252 631.5,-252 631.5,-252 625.5,-252 619.5,-246 619.5,-240 619.5,-240 619.5,-228 619.5,-228 619.5,-222 625.5,-216 631.5,-216 631.5,-216 764.5,-216 764.5,-216 770.5,-216 776.5,-222 776.5,-228 776.5,-228 776.5,-240 776.5,-240 776.5,-246 770.5,-252 764.5,-252"/>
<text text-anchor="middle" x="698" y="-231.5" font-family="sans" font-size="10.00">expansion_checkpoint_finish</text>
</g>
<!-- 26&#45;&gt;48 -->
<g id="edge69" class="edge">
<title>26&#45;&gt;48</title>
<path fill="none" stroke="grey" stroke-width="2" d="M698,-359.87C698,-335.67 698,-291.21 698,-262.39"/>
<polygon fill="grey" stroke="grey" stroke-width="2" points="701.5,-262.19 698,-252.19 694.5,-262.19 701.5,-262.19"/>
</g>
<!-- 27 -->
<g id="node28" class="node">
<title>27</title>
<path fill="none" stroke="#d8b456" stroke-width="2" d="M849,-468C849,-468 739,-468 739,-468 733,-468 727,-462 727,-456 727,-456 727,-444 727,-444 727,-438 733,-432 739,-432 739,-432 849,-432 849,-432 855,-432 861,-438 861,-444 861,-444 861,-456 861,-456 861,-462 855,-468 849,-468"/>
<text text-anchor="middle" x="794" y="-447.5" font-family="sans" font-size="10.00">expansion_computation</text>
</g>
<!-- 27&#45;&gt;26 -->
<g id="edge42" class="edge">
<title>27&#45;&gt;26</title>
<path fill="none" stroke="grey" stroke-width="2" d="M770.27,-431.7C758.06,-422.8 743.01,-411.82 729.82,-402.2"/>
<polygon fill="grey" stroke="grey" stroke-width="2" points="731.6,-399.17 721.46,-396.1 727.48,-404.82 731.6,-399.17"/>
</g>
<!-- 28 -->
<g id="node29" class="node">
<title>28</title>
<path fill="none" stroke="#8fd856" stroke-width="2" d="M843,-540C843,-540 745,-540 745,-540 739,-540 733,-534 733,-528 733,-528 733,-516 733,-516 733,-510 739,-504 745,-504 745,-504 843,-504 843,-504 849,-504 855,-510 855,-516 855,-516 855,-528 855,-528 855,-534 849,-540 843,-540"/>
<text text-anchor="middle" x="794" y="-519.5" font-family="sans" font-size="10.00">Orthofinder_complete</text>
</g>
<!-- 28&#45;&gt;27 -->
<g id="edge43" class="edge">
<title>28&#45;&gt;27</title>
<path fill="none" stroke="grey" stroke-width="2" d="M794,-503.7C794,-495.98 794,-486.71 794,-478.11"/>
<polygon fill="grey" stroke="grey" stroke-width="2" points="797.5,-478.1 794,-468.1 790.5,-478.1 797.5,-478.1"/>
</g>
<!-- 42 -->
<g id="node43" class="node">
<title>42</title>
<path fill="none" stroke="#ced856" stroke-width="2" d="M696.5,-468C696.5,-468 595.5,-468 595.5,-468 589.5,-468 583.5,-462 583.5,-456 583.5,-456 583.5,-444 583.5,-444 583.5,-438 589.5,-432 595.5,-432 595.5,-432 696.5,-432 696.5,-432 702.5,-432 708.5,-438 708.5,-444 708.5,-444 708.5,-456 708.5,-456 708.5,-462 702.5,-468 696.5,-468"/>
<text text-anchor="middle" x="646" y="-447.5" font-family="sans" font-size="10.00">create_superset_fasta</text>
</g>
<!-- 28&#45;&gt;42 -->
<g id="edge59" class="edge">
<title>28&#45;&gt;42</title>
<path fill="none" stroke="grey" stroke-width="2" d="M757.8,-503.88C737.74,-494.39 712.63,-482.51 691.29,-472.42"/>
<polygon fill="grey" stroke="grey" stroke-width="2" points="692.62,-469.18 682.09,-468.07 689.63,-475.51 692.62,-469.18"/>
</g>
<!-- 45 -->
<g id="node46" class="node">
<title>45</title>
<path fill="none" stroke="#56b1d8" stroke-width="2" d="M943,-468C943,-468 891,-468 891,-468 885,-468 879,-462 879,-456 879,-456 879,-444 879,-444 879,-438 885,-432 891,-432 891,-432 943,-432 943,-432 949,-432 955,-438 955,-444 955,-444 955,-456 955,-456 955,-462 949,-468 943,-468"/>
<text text-anchor="middle" x="917" y="-447.5" font-family="sans" font-size="10.00">cafe5_setup</text>
</g>
<!-- 28&#45;&gt;45 -->
<g id="edge65" class="edge">
<title>28&#45;&gt;45</title>
<path fill="none" stroke="grey" stroke-width="2" d="M824.09,-503.88C840.32,-494.64 860.54,-483.13 877.97,-473.21"/>
<polygon fill="grey" stroke="grey" stroke-width="2" points="879.84,-476.18 886.8,-468.19 876.37,-470.09 879.84,-476.18"/>
</g>
<!-- 29 -->
<g id="node30" class="node">
<title>29</title>
<path fill="none" stroke="#61d856" stroke-width="2" d="M853,-612C853,-612 735,-612 735,-612 729,-612 723,-606 723,-600 723,-600 723,-588 723,-588 723,-582 729,-576 735,-576 735,-576 853,-576 853,-576 859,-576 865,-582 865,-588 865,-588 865,-600 865,-600 865,-606 859,-612 853,-612"/>
<text text-anchor="middle" x="794" y="-591.5" font-family="sans" font-size="10.00">hypothesis_species_trees</text>
</g>
<!-- 29&#45;&gt;28 -->
<g id="edge44" class="edge">
<title>29&#45;&gt;28</title>
<path fill="none" stroke="grey" stroke-width="2" d="M794,-575.7C794,-567.98 794,-558.71 794,-550.11"/>
<polygon fill="grey" stroke="grey" stroke-width="2" points="797.5,-550.1 794,-540.1 790.5,-550.1 797.5,-550.1"/>
</g>
<!-- 30 -->
<g id="node31" class="node">
<title>30</title>
<path fill="none" stroke="#97d856" stroke-width="2" d="M839.5,-684C839.5,-684 748.5,-684 748.5,-684 742.5,-684 736.5,-678 736.5,-672 736.5,-672 736.5,-660 736.5,-660 736.5,-654 742.5,-648 748.5,-648 748.5,-648 839.5,-648 839.5,-648 845.5,-648 851.5,-654 851.5,-660 851.5,-660 851.5,-672 851.5,-672 851.5,-678 845.5,-684 839.5,-684"/>
<text text-anchor="middle" x="794" y="-663.5" font-family="sans" font-size="10.00">Orthofinder_cleanup</text>
</g>
<!-- 30&#45;&gt;29 -->
<g id="edge45" class="edge">
<title>30&#45;&gt;29</title>
<path fill="none" stroke="grey" stroke-width="2" d="M794,-647.7C794,-639.98 794,-630.71 794,-622.11"/>
<polygon fill="grey" stroke="grey" stroke-width="2" points="797.5,-622.1 794,-612.1 790.5,-622.1 797.5,-622.1"/>
</g>
<!-- 31 -->
<g id="node32" class="node">
<title>31</title>
<path fill="none" stroke="#56d89a" stroke-width="2" d="M849,-756C849,-756 739,-756 739,-756 733,-756 727,-750 727,-744 727,-744 727,-732 727,-732 727,-726 733,-720 739,-720 739,-720 849,-720 849,-720 855,-720 861,-726 861,-732 861,-732 861,-744 861,-744 861,-750 855,-756 849,-756"/>
<text text-anchor="middle" x="794" y="-735.5" font-family="sans" font-size="10.00">Orthofinder_orthologues</text>
</g>
<!-- 31&#45;&gt;30 -->
<g id="edge46" class="edge">
<title>31&#45;&gt;30</title>
<path fill="none" stroke="grey" stroke-width="2" d="M794,-719.7C794,-711.98 794,-702.71 794,-694.11"/>
<polygon fill="grey" stroke="grey" stroke-width="2" points="797.5,-694.1 794,-684.1 790.5,-694.1 797.5,-694.1"/>
</g>
<!-- 32 -->
<g id="node33" class="node">
<title>32</title>
<path fill="none" stroke="#56d0d8" stroke-width="2" d="M833,-828C833,-828 755,-828 755,-828 749,-828 743,-822 743,-816 743,-816 743,-804 743,-804 743,-798 749,-792 755,-792 755,-792 833,-792 833,-792 839,-792 845,-798 845,-804 845,-804 845,-816 845,-816 845,-822 839,-828 833,-828"/>
<text text-anchor="middle" x="794" y="-807.5" font-family="sans" font-size="10.00">Orthofinder_Trees</text>
</g>
<!-- 32&#45;&gt;31 -->
<g id="edge47" class="edge">
<title>32&#45;&gt;31</title>
<path fill="none" stroke="grey" stroke-width="2" d="M794,-791.7C794,-783.98 794,-774.71 794,-766.11"/>
<polygon fill="grey" stroke="grey" stroke-width="2" points="797.5,-766.1 794,-756.1 790.5,-766.1 797.5,-766.1"/>
</g>
<!-- 33 -->
<g id="node34" class="node">
<title>33</title>
<path fill="none" stroke="#56d892" stroke-width="2" d="M849.5,-900C849.5,-900 738.5,-900 738.5,-900 732.5,-900 726.5,-894 726.5,-888 726.5,-888 726.5,-876 726.5,-876 726.5,-870 732.5,-864 738.5,-864 738.5,-864 849.5,-864 849.5,-864 855.5,-864 861.5,-870 861.5,-876 861.5,-876 861.5,-888 861.5,-888 861.5,-894 855.5,-900 849.5,-900"/>
<text text-anchor="middle" x="794" y="-879.5" font-family="sans" font-size="10.00">Orthofinder_orthogroups</text>
</g>
<!-- 33&#45;&gt;32 -->
<g id="edge48" class="edge">
<title>33&#45;&gt;32</title>
<path fill="none" stroke="grey" stroke-width="2" d="M794,-863.7C794,-855.98 794,-846.71 794,-838.11"/>
<polygon fill="grey" stroke="grey" stroke-width="2" points="797.5,-838.1 794,-828.1 790.5,-838.1 797.5,-838.1"/>
</g>
<!-- 34 -->
<g id="node35" class="node">
<title>34</title>
<path fill="none" stroke="#5673d8" stroke-width="2" d="M857.5,-972C857.5,-972 730.5,-972 730.5,-972 724.5,-972 718.5,-966 718.5,-960 718.5,-960 718.5,-948 718.5,-948 718.5,-942 724.5,-936 730.5,-936 730.5,-936 857.5,-936 857.5,-936 863.5,-936 869.5,-942 869.5,-948 869.5,-948 869.5,-960 869.5,-960 869.5,-966 863.5,-972 857.5,-972"/>
<text text-anchor="middle" x="794" y="-951.5" font-family="sans" font-size="10.00">Orthofinder_BLASTP_merge</text>
</g>
<!-- 34&#45;&gt;33 -->
<g id="edge49" class="edge">
<title>34&#45;&gt;33</title>
<path fill="none" stroke="grey" stroke-width="2" d="M794,-935.7C794,-927.98 794,-918.71 794,-910.11"/>
<polygon fill="grey" stroke="grey" stroke-width="2" points="797.5,-910.1 794,-900.1 790.5,-910.1 797.5,-910.1"/>
</g>
<!-- 35 -->
<g id="node36" class="node">
<title>35</title>
<path fill="none" stroke="#56d882" stroke-width="2" d="M839,-1044C839,-1044 749,-1044 749,-1044 743,-1044 737,-1038 737,-1032 737,-1032 737,-1020 737,-1020 737,-1014 743,-1008 749,-1008 749,-1008 839,-1008 839,-1008 845,-1008 851,-1014 851,-1020 851,-1020 851,-1032 851,-1032 851,-1038 845,-1044 839,-1044"/>
<text text-anchor="middle" x="794" y="-1023.5" font-family="sans" font-size="10.00">Orthofinder_BLASTP</text>
</g>
<!-- 35&#45;&gt;34 -->
<g id="edge50" class="edge">
<title>35&#45;&gt;34</title>
<path fill="none" stroke="grey" stroke-width="2" d="M794,-1007.7C794,-999.98 794,-990.71 794,-982.11"/>
<polygon fill="grey" stroke="grey" stroke-width="2" points="797.5,-982.1 794,-972.1 790.5,-982.1 797.5,-982.1"/>
</g>
<!-- 36 -->
<g id="node37" class="node">
<title>36</title>
<path fill="none" stroke="#568ad8" stroke-width="2" d="M803,-1260C803,-1260 713,-1260 713,-1260 707,-1260 701,-1254 701,-1248 701,-1248 701,-1236 701,-1236 701,-1230 707,-1224 713,-1224 713,-1224 803,-1224 803,-1224 809,-1224 815,-1230 815,-1236 815,-1236 815,-1248 815,-1248 815,-1254 809,-1260 803,-1260"/>
<text text-anchor="middle" x="758" y="-1239.5" font-family="sans" font-size="10.00">Orthofinder_prepare</text>
</g>
<!-- 36&#45;&gt;35 -->
<g id="edge53" class="edge">
<title>36&#45;&gt;35</title>
<path fill="none" stroke="grey" stroke-width="2" d="M749.85,-1223.71C736.73,-1193.29 714.49,-1128.79 736,-1080 740.99,-1068.69 749.71,-1058.74 758.9,-1050.62"/>
<polygon fill="grey" stroke="grey" stroke-width="2" points="761.17,-1053.28 766.66,-1044.23 756.72,-1047.88 761.17,-1053.28"/>
</g>
<!-- 40 -->
<g id="node41" class="node">
<title>40</title>
<path fill="none" stroke="#59d856" stroke-width="2" d="M840.5,-1188C840.5,-1188 757.5,-1188 757.5,-1188 751.5,-1188 745.5,-1182 745.5,-1176 745.5,-1176 745.5,-1164 745.5,-1164 745.5,-1158 751.5,-1152 757.5,-1152 757.5,-1152 840.5,-1152 840.5,-1152 846.5,-1152 852.5,-1158 852.5,-1164 852.5,-1164 852.5,-1176 852.5,-1176 852.5,-1182 846.5,-1188 840.5,-1188"/>
<text text-anchor="middle" x="799" y="-1167.5" font-family="sans" font-size="10.00">index_pep_FASTAs</text>
</g>
<!-- 36&#45;&gt;40 -->
<g id="edge57" class="edge">
<title>36&#45;&gt;40</title>
<path fill="none" stroke="grey" stroke-width="2" d="M768.13,-1223.7C772.85,-1215.64 778.56,-1205.89 783.78,-1196.98"/>
<polygon fill="grey" stroke="grey" stroke-width="2" points="786.95,-1198.5 788.98,-1188.1 780.91,-1194.96 786.95,-1198.5"/>
</g>
<!-- 37 -->
<g id="node38" class="node">
<title>37</title>
<path fill="none" stroke="#b6d856" stroke-width="2" d="M802,-1332C802,-1332 714,-1332 714,-1332 708,-1332 702,-1326 702,-1320 702,-1320 702,-1308 702,-1308 702,-1302 708,-1296 714,-1296 714,-1296 802,-1296 802,-1296 808,-1296 814,-1302 814,-1308 814,-1308 814,-1320 814,-1320 814,-1326 808,-1332 802,-1332"/>
<text text-anchor="middle" x="758" y="-1311.5" font-family="sans" font-size="10.00">Orthofinder_link_all</text>
</g>
<!-- 37&#45;&gt;36 -->
<g id="edge54" class="edge">
<title>37&#45;&gt;36</title>
<path fill="none" stroke="grey" stroke-width="2" d="M758,-1295.7C758,-1287.98 758,-1278.71 758,-1270.11"/>
<polygon fill="grey" stroke="grey" stroke-width="2" points="761.5,-1270.1 758,-1260.1 754.5,-1270.1 761.5,-1270.1"/>
</g>
<!-- 38 -->
<g id="node39" class="node">
<title>38</title>
<path fill="none" stroke="#56d88a" stroke-width="2" d="M789.5,-1404C789.5,-1404 726.5,-1404 726.5,-1404 720.5,-1404 714.5,-1398 714.5,-1392 714.5,-1392 714.5,-1380 714.5,-1380 714.5,-1374 720.5,-1368 726.5,-1368 726.5,-1368 789.5,-1368 789.5,-1368 795.5,-1368 801.5,-1374 801.5,-1380 801.5,-1380 801.5,-1392 801.5,-1392 801.5,-1398 795.5,-1404 789.5,-1404"/>
<text text-anchor="middle" x="758" y="-1383.5" font-family="sans" font-size="10.00">filter_isoforms</text>
</g>
<!-- 38&#45;&gt;37 -->
<g id="edge55" class="edge">
<title>38&#45;&gt;37</title>
<path fill="none" stroke="grey" stroke-width="2" d="M758,-1367.7C758,-1359.98 758,-1350.71 758,-1342.11"/>
<polygon fill="grey" stroke="grey" stroke-width="2" points="761.5,-1342.1 758,-1332.1 754.5,-1342.1 761.5,-1342.1"/>
</g>
<!-- 39 -->
<g id="node40" class="node">
<title>39</title>
<path fill="none" stroke="#56d85b" stroke-width="2" d="M802,-1476C802,-1476 714,-1476 714,-1476 708,-1476 702,-1470 702,-1464 702,-1464 702,-1452 702,-1452 702,-1446 708,-1440 714,-1440 714,-1440 802,-1440 802,-1440 808,-1440 814,-1446 814,-1452 814,-1452 814,-1464 814,-1464 814,-1470 808,-1476 802,-1476"/>
<text text-anchor="middle" x="758" y="-1455.5" font-family="sans" font-size="10.00">pep_fasta_handling</text>
</g>
<!-- 39&#45;&gt;38 -->
<g id="edge56" class="edge">
<title>39&#45;&gt;38</title>
<path fill="none" stroke="grey" stroke-width="2" d="M758,-1439.7C758,-1431.98 758,-1422.71 758,-1414.11"/>
<polygon fill="grey" stroke="grey" stroke-width="2" points="761.5,-1414.1 758,-1404.1 754.5,-1414.1 761.5,-1414.1"/>
</g>
<!-- 40&#45;&gt;35 -->
<g id="edge51" class="edge">
<title>40&#45;&gt;35</title>
<path fill="none" stroke="grey" stroke-width="2" d="M823.48,-1151.77C834.4,-1142.56 846.12,-1130.19 852,-1116 858.12,-1101.22 858.45,-1094.64 852,-1080 847.01,-1068.69 838.29,-1058.74 829.1,-1050.62"/>
<polygon fill="grey" stroke="grey" stroke-width="2" points="831.28,-1047.88 821.34,-1044.23 826.83,-1053.28 831.28,-1047.88"/>
</g>
<!-- 41 -->
<g id="node42" class="node">
<title>41</title>
<path fill="none" stroke="#5663d8" stroke-width="2" d="M831,-1116C831,-1116 757,-1116 757,-1116 751,-1116 745,-1110 745,-1104 745,-1104 745,-1092 745,-1092 745,-1086 751,-1080 757,-1080 757,-1080 831,-1080 831,-1080 837,-1080 843,-1086 843,-1092 843,-1092 843,-1104 843,-1104 843,-1110 837,-1116 831,-1116"/>
<text text-anchor="middle" x="794" y="-1095.5" font-family="sans" font-size="10.00">Orthofinder_split</text>
</g>
<!-- 40&#45;&gt;41 -->
<g id="edge58" class="edge">
<title>40&#45;&gt;41</title>
<path fill="none" stroke="grey" stroke-width="2" d="M797.76,-1151.7C797.21,-1143.98 796.55,-1134.71 795.94,-1126.11"/>
<polygon fill="grey" stroke="grey" stroke-width="2" points="799.43,-1125.83 795.22,-1116.1 792.44,-1126.33 799.43,-1125.83"/>
</g>
<!-- 41&#45;&gt;35 -->
<g id="edge52" class="edge">
<title>41&#45;&gt;35</title>
<path fill="none" stroke="grey" stroke-width="2" d="M794,-1079.7C794,-1071.98 794,-1062.71 794,-1054.11"/>
<polygon fill="grey" stroke="grey" stroke-width="2" points="797.5,-1054.1 794,-1044.1 790.5,-1054.1 797.5,-1054.1"/>
</g>
<!-- 42&#45;&gt;26 -->
<g id="edge41" class="edge">
<title>42&#45;&gt;26</title>
<path fill="none" stroke="grey" stroke-width="2" d="M658.85,-431.7C665.03,-423.39 672.54,-413.28 679.32,-404.14"/>
<polygon fill="grey" stroke="grey" stroke-width="2" points="682.14,-406.22 685.29,-396.1 676.52,-402.04 682.14,-406.22"/>
</g>
<!-- 43 -->
<g id="node44" class="node">
<title>43</title>
<path fill="none" stroke="#d8ac56" stroke-width="2" d="M850.5,-180C850.5,-180 759.5,-180 759.5,-180 753.5,-180 747.5,-174 747.5,-168 747.5,-168 747.5,-156 747.5,-156 747.5,-150 753.5,-144 759.5,-144 759.5,-144 850.5,-144 850.5,-144 856.5,-144 862.5,-150 862.5,-156 862.5,-156 862.5,-168 862.5,-168 862.5,-174 856.5,-180 850.5,-180"/>
<text text-anchor="middle" x="805" y="-159.5" font-family="sans" font-size="10.00">cafe5_complete_set</text>
</g>
<!-- 43&#45;&gt;25 -->
<g id="edge38" class="edge">
<title>43&#45;&gt;25</title>
<path fill="none" stroke="grey" stroke-width="2" d="M747.18,-145.55C703.56,-133.9 644,-117.99 600.47,-106.35"/>
<polygon fill="grey" stroke="grey" stroke-width="2" points="601.17,-102.92 590.6,-103.72 599.36,-109.68 601.17,-102.92"/>
</g>
<!-- 44 -->
<g id="node45" class="node">
<title>44</title>
<path fill="none" stroke="#d85e56" stroke-width="2" d="M973.5,-396C973.5,-396 860.5,-396 860.5,-396 854.5,-396 848.5,-390 848.5,-384 848.5,-384 848.5,-372 848.5,-372 848.5,-366 854.5,-360 860.5,-360 860.5,-360 973.5,-360 973.5,-360 979.5,-360 985.5,-366 985.5,-372 985.5,-372 985.5,-384 985.5,-384 985.5,-390 979.5,-396 973.5,-396"/>
<text text-anchor="middle" x="917" y="-375.5" font-family="sans" font-size="10.00">ultrametric_species_tree</text>
</g>
<!-- 44&#45;&gt;43 -->
<g id="edge62" class="edge">
<title>44&#45;&gt;43</title>
<path fill="none" stroke="grey" stroke-width="2" d="M927.63,-359.76C945.54,-328.27 976.88,-260.6 946,-216 929.29,-191.87 900.14,-178.71 872.66,-171.54"/>
<polygon fill="grey" stroke="grey" stroke-width="2" points="873.18,-168.07 862.64,-169.16 871.56,-174.88 873.18,-168.07"/>
</g>
<!-- 46 -->
<g id="node47" class="node">
<title>46</title>
<path fill="none" stroke="#d89556" stroke-width="2" d="M876.5,-324C876.5,-324 783.5,-324 783.5,-324 777.5,-324 771.5,-318 771.5,-312 771.5,-312 771.5,-300 771.5,-300 771.5,-294 777.5,-288 783.5,-288 783.5,-288 876.5,-288 876.5,-288 882.5,-288 888.5,-294 888.5,-300 888.5,-300 888.5,-312 888.5,-312 888.5,-318 882.5,-324 876.5,-324"/>
<text text-anchor="middle" x="830" y="-303.5" font-family="sans" font-size="10.00">reformat_HOG_table</text>
</g>
<!-- 44&#45;&gt;46 -->
<g id="edge66" class="edge">
<title>44&#45;&gt;46</title>
<path fill="none" stroke="grey" stroke-width="2" d="M895.49,-359.7C884.54,-350.88 871.05,-340.03 859.18,-330.47"/>
<polygon fill="grey" stroke="grey" stroke-width="2" points="861.24,-327.65 851.26,-324.1 856.86,-333.1 861.24,-327.65"/>
</g>
<!-- 47 -->
<g id="node48" class="node">
<title>47</title>
<path fill="none" stroke="#d88556" stroke-width="2" d="M925,-252C925,-252 845,-252 845,-252 839,-252 833,-246 833,-240 833,-240 833,-228 833,-228 833,-222 839,-216 845,-216 845,-216 925,-216 925,-216 931,-216 937,-222 937,-228 937,-228 937,-240 937,-240 937,-246 931,-252 925,-252"/>
<text text-anchor="middle" x="885" y="-231.5" font-family="sans" font-size="10.00">cafe5_filtered_set</text>
</g>
<!-- 44&#45;&gt;47 -->
<g id="edge68" class="edge">
<title>44&#45;&gt;47</title>
<path fill="none" stroke="grey" stroke-width="2" d="M913.51,-359.9C909.81,-341.96 903.72,-312.95 898,-288 896.06,-279.56 893.85,-270.39 891.81,-262.09"/>
<polygon fill="grey" stroke="grey" stroke-width="2" points="895.15,-261.02 889.35,-252.15 888.36,-262.7 895.15,-261.02"/>
</g>
<!-- 45&#45;&gt;44 -->
<g id="edge64" class="edge">
<title>45&#45;&gt;44</title>
<path fill="none" stroke="grey" stroke-width="2" d="M917,-431.7C917,-423.98 917,-414.71 917,-406.11"/>
<polygon fill="grey" stroke="grey" stroke-width="2" points="920.5,-406.1 917,-396.1 913.5,-406.1 920.5,-406.1"/>
</g>
<!-- 46&#45;&gt;43 -->
<g id="edge61" class="edge">
<title>46&#45;&gt;43</title>
<path fill="none" stroke="grey" stroke-width="2" d="M826.98,-287.87C822.72,-263.67 814.9,-219.21 809.82,-190.39"/>
<polygon fill="grey" stroke="grey" stroke-width="2" points="813.21,-189.43 808.03,-180.19 806.31,-190.64 813.21,-189.43"/>
</g>
<!-- 46&#45;&gt;47 -->
<g id="edge67" class="edge">
<title>46&#45;&gt;47</title>
<path fill="none" stroke="grey" stroke-width="2" d="M843.6,-287.7C850.12,-279.39 858.07,-269.28 865.25,-260.14"/>
<polygon fill="grey" stroke="grey" stroke-width="2" points="868.13,-262.13 871.56,-252.1 862.63,-257.81 868.13,-262.13"/>
</g>
<!-- 47&#45;&gt;43 -->
<g id="edge63" class="edge">
<title>47&#45;&gt;43</title>
<path fill="none" stroke="grey" stroke-width="2" d="M865.22,-215.7C855.25,-206.97 842.99,-196.24 832.14,-186.75"/>
<polygon fill="grey" stroke="grey" stroke-width="2" points="834.38,-184.06 824.55,-180.1 829.77,-189.32 834.38,-184.06"/>
</g>
<!-- 48&#45;&gt;25 -->
<g id="edge37" class="edge">
<title>48&#45;&gt;25</title>
<path fill="none" stroke="grey" stroke-width="2" d="M680.19,-215.71C661.45,-197.6 630.97,-168.46 604,-144 593.32,-134.31 581.38,-123.86 570.91,-114.82"/>
<polygon fill="grey" stroke="grey" stroke-width="2" points="573.11,-112.08 563.25,-108.21 568.54,-117.39 573.11,-112.08"/>
</g>
<!-- 48&#45;&gt;43 -->
<g id="edge60" class="edge">
<title>48&#45;&gt;43</title>
<path fill="none" stroke="grey" stroke-width="2" d="M724.18,-215.88C738.04,-206.81 755.24,-195.55 770.21,-185.76"/>
<polygon fill="grey" stroke="grey" stroke-width="2" points="772.27,-188.59 778.72,-180.19 768.44,-182.74 772.27,-188.59"/>
</g>
</g>
</svg>
