<?xml version="1.0" encoding="UTF-8" standalone="no"?>
<svg
   xmlns:dc="http://purl.org/dc/elements/1.1/"
   xmlns:cc="http://creativecommons.org/ns#"
   xmlns:rdf="http://www.w3.org/1999/02/22-rdf-syntax-ns#"
   xmlns:svg="http://www.w3.org/2000/svg"
   xmlns="http://www.w3.org/2000/svg"
   xmlns:sodipodi="http://sodipodi.sourceforge.net/DTD/sodipodi-0.dtd"
   xmlns:inkscape="http://www.inkscape.org/namespaces/inkscape"
   inkscape:version="1.0 (6e3e5246a0, 2020-05-07)"
   sodipodi:docname="latest_rulegraph.svg"
   id="svg476"
   version="1.1"
   viewBox="0.00 0.00 636.00 908.00"
   height="908pt"
   width="636pt">
  <metadata
     id="metadata482">
    <rdf:RDF>
      <cc:Work
         rdf:about="">
        <dc:format>image/svg+xml</dc:format>
        <dc:type
           rdf:resource="http://purl.org/dc/dcmitype/StillImage" />
      </cc:Work>
    </rdf:RDF>
  </metadata>
  <defs
     id="defs480" />
  <sodipodi:namedview
     inkscape:current-layer="graph0"
     inkscape:window-maximized="0"
     inkscape:window-y="0"
     inkscape:window-x="0"
     inkscape:cy="572.46231"
     inkscape:cx="894.71544"
     inkscape:zoom="0.83259912"
     showgrid="false"
     id="namedview478"
     inkscape:window-height="1279"
     inkscape:window-width="2639"
     inkscape:pageshadow="2"
     inkscape:pageopacity="0"
     guidetolerance="10"
     gridtolerance="10"
     objecttolerance="10"
     borderopacity="1"
     bordercolor="#666666"
     pagecolor="#ffffff" />
  <g
     transform="scale(1 1) rotate(0) translate(4 904)"
     class="graph"
     id="graph0">
    <title
       id="title2">snakemake_dag</title>
    <polygon
       id="polygon4"
       points="-4,4 -4,-904 632,-904 632,4 -4,4"
       stroke="none"
       fill="white" />
    <!-- 0 -->
    <g
       class="node"
       id="node1">
      <title
         id="title6">0</title>
      <path
         id="path8"
         d="M387,-36C387,-36 357,-36 357,-36 351,-36 345,-30 345,-24 345,-24 345,-12 345,-12 345,-6 351,-0 357,-0 357,-0 387,-0 387,-0 393,-0 399,-6 399,-12 399,-12 399,-24 399,-24 399,-30 393,-36 387,-36"
         stroke-width="2"
         stroke="#68d856"
         fill="none" />
      <text
         id="text10"
         font-size="10.00"
         font-family="sans"
         y="-15.5"
         x="372"
         text-anchor="middle">all</text>
    </g>
    <!-- 1 -->
    <g
       class="node"
       id="node2">
      <title
         id="title13">1</title>
      <path
         id="path15"
         d="M226,-252C226,-252 196,-252 196,-252 190,-252 184,-246 184,-240 184,-240 184,-228 184,-228 184,-222 190,-216 196,-216 196,-216 226,-216 226,-216 232,-216 238,-222 238,-228 238,-228 238,-240 238,-240 238,-246 232,-252 226,-252"
         stroke-width="2"
         stroke="#ced856"
         fill="none" />
      <text
         id="text17"
         font-size="10.00"
         font-family="sans"
         y="-231.5"
         x="211"
         text-anchor="middle">multiqc</text>
    </g>
    <!-- 1&#45;&gt;0 -->
    <g
       class="edge"
       id="edge1">
      <title
         id="title20">1-&gt;0</title>
      <path
         id="path22"
         d="M219.589,-215.945C235.447,-185.331 271.432,-119.797 312,-72 320.871,-61.5484 331.813,-51.283 341.913,-42.6117"
         stroke-width="2"
         stroke="grey"
         fill="none" />
      <polygon
         id="polygon24"
         points="344.357,-45.1299 349.777,-36.0262 339.863,-39.7631 344.357,-45.1299"
         stroke-width="2"
         stroke="grey"
         fill="grey" />
    </g>
    <!-- 2 -->
    <g
       class="node"
       id="node3">
      <title
         id="title27">2</title>
      <path
         id="path29"
         d="M411,-108C411,-108 333,-108 333,-108 327,-108 321,-102 321,-96 321,-96 321,-84 321,-84 321,-78 327,-72 333,-72 333,-72 411,-72 411,-72 417,-72 423,-78 423,-84 423,-84 423,-96 423,-96 423,-102 417,-108 411,-108"
         stroke-width="2"
         stroke="#d88d56"
         fill="none" />
      <text
         id="text31"
         font-size="10.00"
         font-family="sans"
         y="-87.5"
         x="372"
         text-anchor="middle">deseq2_complete</text>
    </g>
    <!-- 2&#45;&gt;0 -->
    <g
       class="edge"
       id="edge3">
      <title
         id="title34">2-&gt;0</title>
      <path
         id="path36"
         d="M372,-71.6966C372,-63.9827 372,-54.7125 372,-46.1124"
         stroke-width="2"
         stroke="grey"
         fill="none" />
      <polygon
         id="polygon38"
         points="375.5,-46.1043 372,-36.1043 368.5,-46.1044 375.5,-46.1043"
         stroke-width="2"
         stroke="grey"
         fill="grey" />
    </g>
    <!-- 3 -->
    <g
       class="node"
       id="node4">
      <title
         id="title41">3</title>
      <path
         id="path43"
         d="M572.5,-108C572.5,-108 477.5,-108 477.5,-108 471.5,-108 465.5,-102 465.5,-96 465.5,-96 465.5,-84 465.5,-84 465.5,-78 471.5,-72 477.5,-72 477.5,-72 572.5,-72 572.5,-72 578.5,-72 584.5,-78 584.5,-84 584.5,-84 584.5,-96 584.5,-96 584.5,-102 578.5,-108 572.5,-108"
         stroke-width="2"
         stroke="#566bd8"
         fill="none" />
      <text
         id="text45"
         font-size="10.00"
         font-family="sans"
         y="-87.5"
         x="525"
         text-anchor="middle">orthofinder_complete</text>
    </g>
    <!-- 3&#45;&gt;0 -->
    <g
       class="edge"
       id="edge2">
      <title
         id="title48">3-&gt;0</title>
      <path
         id="path50"
         d="M487.572,-71.8761C463.517,-60.8706 432.417,-46.6416 408.538,-35.7169"
         stroke-width="2"
         stroke="grey"
         fill="none" />
      <polygon
         id="polygon52"
         points="409.994,-32.534 399.444,-31.5563 407.082,-38.8994 409.994,-32.534"
         stroke-width="2"
         stroke="grey"
         fill="grey" />
    </g>
    <!-- 4 -->
    <g
       class="node"
       id="node5">
      <title
         id="title55">4</title>
      <path
         id="path57"
         d="M113,-396C113,-396 69,-396 69,-396 63,-396 57,-390 57,-384 57,-384 57,-372 57,-372 57,-366 63,-360 69,-360 69,-360 113,-360 113,-360 119,-360 125,-366 125,-372 125,-372 125,-384 125,-384 125,-390 119,-396 113,-396"
         stroke-width="2"
         stroke="#56d8a9"
         fill="none" />
      <text
         id="text59"
         font-size="10.00"
         font-family="sans"
         y="-375.5"
         x="91"
         text-anchor="middle">fastqc_raw</text>
    </g>
    <!-- 4&#45;&gt;1 -->
    <g
       class="edge"
       id="edge4">
      <title
         id="title62">4-&gt;1</title>
      <path
         id="path64"
         d="M93.3713,-359.885C96.7961,-340.594 104.725,-309.17 122,-288 135.845,-271.033 156.657,-258.215 174.674,-249.439"
         stroke-width="2"
         stroke="grey"
         fill="none" />
      <polygon
         id="polygon66"
         points="176.187,-252.595 183.79,-245.217 173.245,-246.243 176.187,-252.595"
         stroke-width="2"
         stroke="grey"
         fill="grey" />
    </g>
    <!-- 5 -->
    <g
       class="node"
       id="node6">
      <title
         id="title69">5</title>
      <path
         id="path71"
         d="M211,-324C211,-324 143,-324 143,-324 137,-324 131,-318 131,-312 131,-312 131,-300 131,-300 131,-294 137,-288 143,-288 143,-288 211,-288 211,-288 217,-288 223,-294 223,-300 223,-300 223,-312 223,-312 223,-318 217,-324 211,-324"
         stroke-width="2"
         stroke="#56d88a"
         fill="none" />
      <text
         id="text73"
         font-size="10.00"
         font-family="sans"
         y="-303.5"
         x="177"
         text-anchor="middle">fastqc_trimmed</text>
    </g>
    <!-- 4&#45;&gt;5 -->
    <g
       class="edge"
       id="edge14">
      <title
         id="title76">4-&gt;5</title>
      <path
         id="path78"
         d="M112.258,-359.697C123.089,-350.881 136.418,-340.032 148.16,-330.474"
         stroke-width="2"
         stroke="grey"
         fill="none" />
      <polygon
         id="polygon80"
         points="150.44,-333.132 155.986,-324.104 146.021,-327.703 150.44,-333.132"
         stroke-width="2"
         stroke="grey"
         fill="grey" />
    </g>
    <!-- 5&#45;&gt;1 -->
    <g
       class="edge"
       id="edge6">
      <title
         id="title83">5-&gt;1</title>
      <path
         id="path85"
         d="M185.404,-287.697C189.275,-279.728 193.952,-270.1 198.243,-261.264"
         stroke-width="2"
         stroke="grey"
         fill="none" />
      <polygon
         id="polygon87"
         points="201.471,-262.629 202.692,-252.104 195.175,-259.57 201.471,-262.629"
         stroke-width="2"
         stroke="grey"
         fill="grey" />
    </g>
    <!-- 6 -->
    <g
       class="node"
       id="node7">
      <title
         id="title90">6</title>
      <path
         id="path92"
         d="M238.5,-468C238.5,-468 165.5,-468 165.5,-468 159.5,-468 153.5,-462 153.5,-456 153.5,-456 153.5,-444 153.5,-444 153.5,-438 159.5,-432 165.5,-432 165.5,-432 238.5,-432 238.5,-432 244.5,-432 250.5,-438 250.5,-444 250.5,-444 250.5,-456 250.5,-456 250.5,-462 244.5,-468 238.5,-468"
         stroke-width="2"
         stroke="#d89c56"
         fill="none" />
      <text
         id="text94"
         font-size="10.00"
         font-family="sans"
         y="-447.5"
         x="202"
         text-anchor="middle">trimmomatic_SE</text>
    </g>
    <!-- 6&#45;&gt;1 -->
    <g
       class="edge"
       id="edge7">
      <title
         id="title97">6-&gt;1</title>
      <path
         id="path99"
         d="M214.238,-431.766C220.559,-421.82 227.637,-408.781 231,-396 243.214,-349.578 241.001,-335.151 232,-288 230.293,-279.056 227.1,-269.695 223.711,-261.373"
         stroke-width="2"
         stroke="grey"
         fill="none" />
      <polygon
         id="polygon101"
         points="226.908,-259.949 219.718,-252.167 220.486,-262.734 226.908,-259.949"
         stroke-width="2"
         stroke="grey"
         fill="grey" />
    </g>
    <!-- 13 -->
    <g
       class="node"
       id="node14">
      <title
         id="title104">13</title>
      <path
         id="path106"
         d="M210.5,-396C210.5,-396 155.5,-396 155.5,-396 149.5,-396 143.5,-390 143.5,-384 143.5,-384 143.5,-372 143.5,-372 143.5,-366 149.5,-360 155.5,-360 155.5,-360 210.5,-360 210.5,-360 216.5,-360 222.5,-366 222.5,-372 222.5,-372 222.5,-384 222.5,-384 222.5,-390 216.5,-396 210.5,-396"
         stroke-width="2"
         stroke="#9fd856"
         fill="none" />
      <text
         id="text108"
         font-size="10.00"
         font-family="sans"
         y="-375.5"
         x="183"
         text-anchor="middle">trim_cleanup</text>
    </g>
    <!-- 6&#45;&gt;13 -->
    <g
       class="edge"
       id="edge21">
      <title
         id="title111">6-&gt;13</title>
      <path
         id="path113"
         d="M197.303,-431.697C195.187,-423.898 192.638,-414.509 190.282,-405.829"
         stroke-width="2"
         stroke="grey"
         fill="none" />
      <polygon
         id="polygon115"
         points="193.64,-404.838 187.643,-396.104 186.884,-406.672 193.64,-404.838"
         stroke-width="2"
         stroke="grey"
         fill="grey" />
    </g>
    <!-- 7 -->
    <g
       class="node"
       id="node8">
      <title
         id="title118">7</title>
      <path
         id="path120"
         d="M84,-468C84,-468 12,-468 12,-468 6,-468 0,-462 0,-456 0,-456 0,-444 0,-444 0,-438 6,-432 12,-432 12,-432 84,-432 84,-432 90,-432 96,-438 96,-444 96,-444 96,-456 96,-456 96,-462 90,-468 84,-468"
         stroke-width="2"
         stroke="#88d856"
         fill="none" />
      <text
         id="text122"
         font-size="10.00"
         font-family="sans"
         y="-447.5"
         x="48"
         text-anchor="middle">trimmomatic_PE</text>
    </g>
    <!-- 7&#45;&gt;1 -->
    <g
       class="edge"
       id="edge8">
      <title
         id="title125">7-&gt;1</title>
      <path
         id="path127"
         d="M44.9757,-431.799C42.45,-413.519 40.3613,-383.999 48,-360 59.8936,-322.633 68.9628,-313.21 99,-288 121.203,-269.365 151.063,-255.663 174.368,-246.865"
         stroke-width="2"
         stroke="grey"
         fill="none" />
      <polygon
         id="polygon129"
         points="175.711,-250.101 183.913,-243.394 173.319,-243.522 175.711,-250.101"
         stroke-width="2"
         stroke="grey"
         fill="grey" />
    </g>
    <!-- 7&#45;&gt;13 -->
    <g
       class="edge"
       id="edge22">
      <title
         id="title132">7-&gt;13</title>
      <path
         id="path134"
         d="M81.0247,-431.876C99.0846,-422.512 121.645,-410.814 140.951,-400.803"
         stroke-width="2"
         stroke="grey"
         fill="none" />
      <polygon
         id="polygon136"
         points="142.582,-403.9 149.848,-396.19 139.36,-397.686 142.582,-403.9"
         stroke-width="2"
         stroke="grey"
         fill="grey" />
    </g>
    <!-- 8 -->
    <g
       class="node"
       id="node9">
      <title
         id="title139">8</title>
      <path
         id="path141"
         d="M350.5,-324C350.5,-324 291.5,-324 291.5,-324 285.5,-324 279.5,-318 279.5,-312 279.5,-312 279.5,-300 279.5,-300 279.5,-294 285.5,-288 291.5,-288 291.5,-288 350.5,-288 350.5,-288 356.5,-288 362.5,-294 362.5,-300 362.5,-300 362.5,-312 362.5,-312 362.5,-318 356.5,-324 350.5,-324"
         stroke-width="2"
         stroke="#56d86b"
         fill="none" />
      <text
         id="text143"
         font-size="10.00"
         font-family="sans"
         y="-303.5"
         x="321"
         text-anchor="middle">kallisto_quant</text>
    </g>
    <!-- 8&#45;&gt;1 -->
    <g
       class="edge"
       id="edge5">
      <title
         id="title146">8-&gt;1</title>
      <path
         id="path148"
         d="M294.091,-287.876C279.842,-278.808 262.154,-267.552 246.764,-257.759"
         stroke-width="2"
         stroke="grey"
         fill="none" />
      <polygon
         id="polygon150"
         points="248.328,-254.606 238.012,-252.19 244.57,-260.511 248.328,-254.606"
         stroke-width="2"
         stroke="grey"
         fill="grey" />
    </g>
    <!-- 16 -->
    <g
       class="node"
       id="node17">
      <title
         id="title153">16</title>
      <path
         id="path155"
         d="M357.5,-252C357.5,-252 268.5,-252 268.5,-252 262.5,-252 256.5,-246 256.5,-240 256.5,-240 256.5,-228 256.5,-228 256.5,-222 262.5,-216 268.5,-216 268.5,-216 357.5,-216 357.5,-216 363.5,-216 369.5,-222 369.5,-228 369.5,-228 369.5,-240 369.5,-240 369.5,-246 363.5,-252 357.5,-252"
         stroke-width="2"
         stroke="#d8bc56"
         fill="none" />
      <text
         id="text157"
         font-size="10.00"
         font-family="sans"
         y="-231.5"
         x="313"
         text-anchor="middle">tximport_and_setup</text>
    </g>
    <!-- 8&#45;&gt;16 -->
    <g
       class="edge"
       id="edge25">
      <title
         id="title160">8-&gt;16</title>
      <path
         id="path162"
         d="M319.022,-287.697C318.141,-279.983 317.081,-270.712 316.099,-262.112"
         stroke-width="2"
         stroke="grey"
         fill="none" />
      <polygon
         id="polygon164"
         points="319.568,-261.642 314.955,-252.104 312.613,-262.437 319.568,-261.642"
         stroke-width="2"
         stroke="grey"
         fill="grey" />
    </g>
    <!-- 9 -->
    <g
       class="node"
       id="node10">
      <title
         id="title167">9</title>
      <path
         id="path169"
         d="M453.5,-324C453.5,-324 392.5,-324 392.5,-324 386.5,-324 380.5,-318 380.5,-312 380.5,-312 380.5,-300 380.5,-300 380.5,-294 386.5,-288 392.5,-288 392.5,-288 453.5,-288 453.5,-288 459.5,-288 465.5,-294 465.5,-300 465.5,-300 465.5,-312 465.5,-312 465.5,-318 459.5,-324 453.5,-324"
         stroke-width="2"
         stroke="#567bd8"
         fill="none" />
      <text
         id="text171"
         font-size="10.00"
         font-family="sans"
         y="-303.5"
         x="423"
         text-anchor="middle">featureCounts</text>
    </g>
    <!-- 9&#45;&gt;1 -->
    <g
       class="edge"
       id="edge9">
      <title
         id="title174">9-&gt;1</title>
      <path
         id="path176"
         d="M380.47,-290.968C377.269,-289.951 374.086,-288.952 371,-288 319.056,-271.974 302.414,-272.236 247.809,-252.023"
         stroke-width="2"
         stroke="grey"
         fill="none" />
      <polygon
         id="polygon178"
         points="248.915,-248.7 238.323,-248.451 246.448,-255.251 248.915,-248.7"
         stroke-width="2"
         stroke="grey"
         fill="grey" />
    </g>
    <!-- 17 -->
    <g
       class="node"
       id="node18">
      <title
         id="title181">17</title>
      <path
         id="path183"
         d="M462,-252C462,-252 400,-252 400,-252 394,-252 388,-246 388,-240 388,-240 388,-228 388,-228 388,-222 394,-216 400,-216 400,-216 462,-216 462,-216 468,-216 474,-222 474,-228 474,-228 474,-240 474,-240 474,-246 468,-252 462,-252"
         stroke-width="2"
         stroke="#56d87b"
         fill="none" />
      <text
         id="text185"
         font-size="10.00"
         font-family="sans"
         y="-231.5"
         x="431"
         text-anchor="middle">merge_counts</text>
    </g>
    <!-- 9&#45;&gt;17 -->
    <g
       class="edge"
       id="edge26">
      <title
         id="title188">9-&gt;17</title>
      <path
         id="path190"
         d="M424.978,-287.697C425.859,-279.983 426.919,-270.712 427.901,-262.112"
         stroke-width="2"
         stroke="grey"
         fill="none" />
      <polygon
         id="polygon192"
         points="431.387,-262.437 429.045,-252.104 424.432,-261.642 431.387,-262.437"
         stroke-width="2"
         stroke="grey"
         fill="grey" />
    </g>
    <!-- 10 -->
    <g
       class="node"
       id="node11">
      <title
         id="title195">10</title>
      <path
         id="path197"
         d="M346,-180C346,-180 290,-180 290,-180 284,-180 278,-174 278,-168 278,-168 278,-156 278,-156 278,-150 284,-144 290,-144 290,-144 346,-144 346,-144 352,-144 358,-150 358,-156 358,-156 358,-168 358,-168 358,-174 352,-180 346,-180"
         stroke-width="2"
         stroke="#56d8d0"
         fill="none" />
      <text
         id="text199"
         font-size="10.00"
         font-family="sans"
         y="-159.5"
         x="318"
         text-anchor="middle">cdna_deseq2</text>
    </g>
    <!-- 10&#45;&gt;2 -->
    <g
       class="edge"
       id="edge11">
      <title
         id="title202">10-&gt;2</title>
      <path
         id="path204"
         d="M331.348,-143.697C337.757,-135.389 345.558,-125.277 352.606,-116.141"
         stroke-width="2"
         stroke="grey"
         fill="none" />
      <polygon
         id="polygon206"
         points="355.468,-118.16 358.805,-108.104 349.926,-113.884 355.468,-118.16"
         stroke-width="2"
         stroke="grey"
         fill="grey" />
    </g>
    <!-- 11 -->
    <g
       class="node"
       id="node12">
      <title
         id="title209">11</title>
      <path
         id="path211"
         d="M450.5,-180C450.5,-180 399.5,-180 399.5,-180 393.5,-180 387.5,-174 387.5,-168 387.5,-168 387.5,-156 387.5,-156 387.5,-150 393.5,-144 399.5,-144 399.5,-144 450.5,-144 450.5,-144 456.5,-144 462.5,-150 462.5,-156 462.5,-156 462.5,-168 462.5,-168 462.5,-174 456.5,-180 450.5,-180"
         stroke-width="2"
         stroke="#56c1d8"
         fill="none" />
      <text
         id="text213"
         font-size="10.00"
         font-family="sans"
         y="-159.5"
         x="425"
         text-anchor="middle">gen_deseq2</text>
    </g>
    <!-- 11&#45;&gt;2 -->
    <g
       class="edge"
       id="edge10">
      <title
         id="title216">11-&gt;2</title>
      <path
         id="path218"
         d="M411.899,-143.697C405.609,-135.389 397.953,-125.277 391.035,-116.141"
         stroke-width="2"
         stroke="grey"
         fill="none" />
      <polygon
         id="polygon220"
         points="393.777,-113.964 384.95,-108.104 388.196,-118.19 393.777,-113.964"
         stroke-width="2"
         stroke="grey"
         fill="grey" />
    </g>
    <!-- 12 -->
    <g
       class="node"
       id="node13">
      <title
         id="title223">12</title>
      <path
         id="path225"
         d="M593,-180C593,-180 505,-180 505,-180 499,-180 493,-174 493,-168 493,-168 493,-156 493,-156 493,-150 499,-144 505,-144 505,-144 593,-144 593,-144 599,-144 605,-150 605,-156 605,-156 605,-168 605,-168 605,-174 599,-180 593,-180"
         stroke-width="2"
         stroke="#56d89a"
         fill="none" />
      <text
         id="text227"
         font-size="10.00"
         font-family="sans"
         y="-159.5"
         x="549"
         text-anchor="middle">orthofinder_cleanup</text>
    </g>
    <!-- 12&#45;&gt;3 -->
    <g
       class="edge"
       id="edge12">
      <title
         id="title230">12-&gt;3</title>
      <path
         id="path232"
         d="M543.067,-143.697C540.394,-135.898 537.174,-126.509 534.199,-117.829"
         stroke-width="2"
         stroke="grey"
         fill="none" />
      <polygon
         id="polygon234"
         points="537.418,-116.429 530.864,-108.104 530.797,-118.699 537.418,-116.429"
         stroke-width="2"
         stroke="grey"
         fill="grey" />
    </g>
    <!-- 13&#45;&gt;5 -->
    <g
       class="edge"
       id="edge13">
      <title
         id="title237">13-&gt;5</title>
      <path
         id="path239"
         d="M181.517,-359.697C180.856,-351.983 180.061,-342.712 179.324,-334.112"
         stroke-width="2"
         stroke="grey"
         fill="none" />
      <polygon
         id="polygon241"
         points="182.807,-333.769 178.466,-324.104 175.833,-334.367 182.807,-333.769"
         stroke-width="2"
         stroke="grey"
         fill="grey" />
    </g>
    <!-- 13&#45;&gt;8 -->
    <g
       class="edge"
       id="edge16">
      <title
         id="title244">13-&gt;8</title>
      <path
         id="path246"
         d="M216.759,-359.876C235.22,-350.512 258.282,-338.814 278.017,-328.803"
         stroke-width="2"
         stroke="grey"
         fill="none" />
      <polygon
         id="polygon248"
         points="279.777,-331.835 287.112,-324.19 276.61,-325.592 279.777,-331.835"
         stroke-width="2"
         stroke="grey"
         fill="grey" />
    </g>
    <!-- 14 -->
    <g
       class="node"
       id="node15">
      <title
         id="title251">14</title>
      <path
         id="path253"
         d="M352,-396C352,-396 296,-396 296,-396 290,-396 284,-390 284,-384 284,-384 284,-372 284,-372 284,-366 290,-360 296,-360 296,-360 352,-360 352,-360 358,-360 364,-366 364,-372 364,-372 364,-384 364,-384 364,-390 358,-396 352,-396"
         stroke-width="2"
         stroke="#56d8c1"
         fill="none" />
      <text
         id="text255"
         font-size="10.00"
         font-family="sans"
         y="-375.5"
         x="324"
         text-anchor="middle">kallisto_index</text>
    </g>
    <!-- 14&#45;&gt;8 -->
    <g
       class="edge"
       id="edge15">
      <title
         id="title258">14-&gt;8</title>
      <path
         id="path260"
         d="M323.258,-359.697C322.928,-351.983 322.531,-342.712 322.162,-334.112"
         stroke-width="2"
         stroke="grey"
         fill="none" />
      <polygon
         id="polygon262"
         points="325.658,-333.945 321.733,-324.104 318.665,-334.245 325.658,-333.945"
         stroke-width="2"
         stroke="grey"
         fill="grey" />
    </g>
    <!-- 15 -->
    <g
       class="node"
       id="node16">
      <title
         id="title265">15</title>
      <path
         id="path267"
         d="M443,-396C443,-396 399,-396 399,-396 393,-396 387,-390 387,-384 387,-384 387,-372 387,-372 387,-366 393,-360 399,-360 399,-360 443,-360 443,-360 449,-360 455,-366 455,-372 455,-372 455,-384 455,-384 455,-390 449,-396 443,-396"
         stroke-width="2"
         stroke="#569ad8"
         fill="none" />
      <text
         id="text269"
         font-size="10.00"
         font-family="sans"
         y="-375.5"
         x="421"
         text-anchor="middle">STAR_align</text>
    </g>
    <!-- 15&#45;&gt;9 -->
    <g
       class="edge"
       id="edge17">
      <title
         id="title272">15-&gt;9</title>
      <path
         id="path274"
         d="M421.494,-359.697C421.715,-351.983 421.98,-342.712 422.225,-334.112"
         stroke-width="2"
         stroke="grey"
         fill="none" />
      <polygon
         id="polygon276"
         points="425.724,-334.2 422.511,-324.104 418.727,-334 425.724,-334.2"
         stroke-width="2"
         stroke="grey"
         fill="grey" />
    </g>
    <!-- 16&#45;&gt;10 -->
    <g
       class="edge"
       id="edge18">
      <title
         id="title279">16-&gt;10</title>
      <path
         id="path281"
         d="M314.236,-215.697C314.787,-207.983 315.449,-198.712 316.063,-190.112"
         stroke-width="2"
         stroke="grey"
         fill="none" />
      <polygon
         id="polygon283"
         points="319.557,-190.328 316.778,-180.104 312.575,-189.83 319.557,-190.328"
         stroke-width="2"
         stroke="grey"
         fill="grey" />
    </g>
    <!-- 17&#45;&gt;11 -->
    <g
       class="edge"
       id="edge19">
      <title
         id="title286">17-&gt;11</title>
      <path
         id="path288"
         d="M429.517,-215.697C428.856,-207.983 428.061,-198.712 427.324,-190.112"
         stroke-width="2"
         stroke="grey"
         fill="none" />
      <polygon
         id="polygon290"
         points="430.807,-189.769 426.466,-180.104 423.833,-190.367 430.807,-189.769"
         stroke-width="2"
         stroke="grey"
         fill="grey" />
    </g>
    <!-- 18 -->
    <g
       class="node"
       id="node19">
      <title
         id="title293">18</title>
      <path
         id="path295"
         d="M611.5,-252C611.5,-252 504.5,-252 504.5,-252 498.5,-252 492.5,-246 492.5,-240 492.5,-240 492.5,-228 492.5,-228 492.5,-222 498.5,-216 504.5,-216 504.5,-216 611.5,-216 611.5,-216 617.5,-216 623.5,-222 623.5,-228 623.5,-228 623.5,-240 623.5,-240 623.5,-246 617.5,-252 611.5,-252"
         stroke-width="2"
         stroke="#afd856"
         fill="none" />
      <text
         id="text297"
         font-size="10.00"
         font-family="sans"
         y="-231.5"
         x="558"
         text-anchor="middle">orthofinder_orthologues</text>
    </g>
    <!-- 18&#45;&gt;12 -->
    <g
       class="edge"
       id="edge20">
      <title
         id="title300">18-&gt;12</title>
      <path
         id="path302"
         d="M555.775,-215.697C554.783,-207.983 553.592,-198.712 552.486,-190.112"
         stroke-width="2"
         stroke="grey"
         fill="none" />
      <polygon
         id="polygon304"
         points="555.946,-189.576 551.199,-180.104 549.003,-190.469 555.946,-189.576"
         stroke-width="2"
         stroke="grey"
         fill="grey" />
    </g>
    <!-- 19 -->
    <g
       class="node"
       id="node20">
      <title
         id="title307">19</title>
      <path
         id="path309"
         d="M393.5,-468C393.5,-468 346.5,-468 346.5,-468 340.5,-468 334.5,-462 334.5,-456 334.5,-456 334.5,-444 334.5,-444 334.5,-438 340.5,-432 346.5,-432 346.5,-432 393.5,-432 393.5,-432 399.5,-432 405.5,-438 405.5,-444 405.5,-444 405.5,-456 405.5,-456 405.5,-462 399.5,-468 393.5,-468"
         stroke-width="2"
         stroke="#d86656"
         fill="none" />
      <text
         id="text311"
         font-size="10.00"
         font-family="sans"
         y="-447.5"
         x="370"
         text-anchor="middle">STAR_index</text>
    </g>
    <!-- 19&#45;&gt;14 -->
    <!-- 19&#45;&gt;15 -->
    <g
       class="edge"
       id="edge24">
      <title
         id="title321">19-&gt;15</title>
      <path
         id="path323"
         d="M382.607,-431.697C388.597,-423.474 395.876,-413.483 402.479,-404.421"
         stroke-width="2"
         stroke="grey"
         fill="none" />
      <polygon
         id="polygon325"
         points="405.478,-406.248 408.538,-396.104 399.821,-402.126 405.478,-406.248"
         stroke-width="2"
         stroke="grey"
         fill="grey" />
    </g>
    <!-- 19&#45;&gt;19 -->
    <!-- 20 -->
    <g
       class="node"
       id="node21">
      <title
         id="title335">20</title>
      <path
         id="path337"
         d="M595.5,-324C595.5,-324 520.5,-324 520.5,-324 514.5,-324 508.5,-318 508.5,-312 508.5,-312 508.5,-300 508.5,-300 508.5,-294 514.5,-288 520.5,-288 520.5,-288 595.5,-288 595.5,-288 601.5,-288 607.5,-294 607.5,-300 607.5,-300 607.5,-312 607.5,-312 607.5,-318 601.5,-324 595.5,-324"
         stroke-width="2"
         stroke="#59d856"
         fill="none" />
      <text
         id="text339"
         font-size="10.00"
         font-family="sans"
         y="-303.5"
         x="558"
         text-anchor="middle">orthofinder_trees</text>
    </g>
    <!-- 20&#45;&gt;18 -->
    <g
       class="edge"
       id="edge27">
      <title
         id="title342">20-&gt;18</title>
      <path
         id="path344"
         d="M558,-287.697C558,-279.983 558,-270.712 558,-262.112"
         stroke-width="2"
         stroke="grey"
         fill="none" />
      <polygon
         id="polygon346"
         points="561.5,-262.104 558,-252.104 554.5,-262.104 561.5,-262.104"
         stroke-width="2"
         stroke="grey"
         fill="grey" />
    </g>
    <!-- 21 -->
    <g
       class="node"
       id="node22">
      <title
         id="title349">21</title>
      <path
         id="path351"
         d="M599.5,-396C599.5,-396 516.5,-396 516.5,-396 510.5,-396 504.5,-390 504.5,-384 504.5,-384 504.5,-372 504.5,-372 504.5,-366 510.5,-360 516.5,-360 516.5,-360 599.5,-360 599.5,-360 605.5,-360 611.5,-366 611.5,-372 611.5,-372 611.5,-384 611.5,-384 611.5,-390 605.5,-396 599.5,-396"
         stroke-width="2"
         stroke="#d8d356"
         fill="none" />
      <text
         id="text353"
         font-size="10.00"
         font-family="sans"
         y="-375.5"
         x="558"
         text-anchor="middle">orthofinder_groups</text>
    </g>
    <!-- 21&#45;&gt;20 -->
    <g
       class="edge"
       id="edge29">
      <title
         id="title356">21-&gt;20</title>
      <path
         id="path358"
         d="M558,-359.697C558,-351.983 558,-342.712 558,-334.112"
         stroke-width="2"
         stroke="grey"
         fill="none" />
      <polygon
         id="polygon360"
         points="561.5,-334.104 558,-324.104 554.5,-334.104 561.5,-334.104"
         stroke-width="2"
         stroke="grey"
         fill="grey" />
    </g>
    <!-- 22 -->
    <g
       class="node"
       id="node23">
      <title
         id="title363">22</title>
      <path
         id="path365"
         d="M616,-468C616,-468 500,-468 500,-468 494,-468 488,-462 488,-456 488,-456 488,-444 488,-444 488,-438 494,-432 500,-432 500,-432 616,-432 616,-432 622,-432 628,-438 628,-444 628,-444 628,-456 628,-456 628,-462 622,-468 616,-468"
         stroke-width="2"
         stroke="#56d0d8"
         fill="none" />
      <text
         id="text367"
         font-size="10.00"
         font-family="sans"
         y="-447.5"
         x="558"
         text-anchor="middle">orthofinder_blastp_merge</text>
    </g>
    <!-- 22&#45;&gt;21 -->
    <g
       class="edge"
       id="edge30">
      <title
         id="title370">22-&gt;21</title>
      <path
         id="path372"
         d="M558,-431.697C558,-423.983 558,-414.712 558,-406.112"
         stroke-width="2"
         stroke="grey"
         fill="none" />
      <polygon
         id="polygon374"
         points="561.5,-406.104 558,-396.104 554.5,-406.104 561.5,-406.104"
         stroke-width="2"
         stroke="grey"
         fill="grey" />
    </g>
    <!-- 23 -->
    <g
       class="node"
       id="node24">
      <title
         id="title377">23</title>
      <path
         id="path379"
         d="M598,-540C598,-540 518,-540 518,-540 512,-540 506,-534 506,-528 506,-528 506,-516 506,-516 506,-510 512,-504 518,-504 518,-504 598,-504 598,-504 604,-504 610,-510 610,-516 610,-516 610,-528 610,-528 610,-534 604,-540 598,-540"
         stroke-width="2"
         stroke="#d8ac56"
         fill="none" />
      <text
         id="text381"
         font-size="10.00"
         font-family="sans"
         y="-519.5"
         x="558"
         text-anchor="middle">orthofinder_blastp</text>
    </g>
    <!-- 23&#45;&gt;22 -->
    <g
       class="edge"
       id="edge31">
      <title
         id="title384">23-&gt;22</title>
      <path
         id="path386"
         d="M558,-503.697C558,-495.983 558,-486.712 558,-478.112"
         stroke-width="2"
         stroke="grey"
         fill="none" />
      <polygon
         id="polygon388"
         points="561.5,-478.104 558,-468.104 554.5,-478.104 561.5,-478.104"
         stroke-width="2"
         stroke="grey"
         fill="grey" />
    </g>
    <!-- 24 -->
    <g
       class="node"
       id="node25">
      <title
         id="title391">24</title>
      <path
         id="path393"
         d="M566,-756C566,-756 478,-756 478,-756 472,-756 466,-750 466,-744 466,-744 466,-732 466,-732 466,-726 472,-720 478,-720 478,-720 566,-720 566,-720 572,-720 578,-726 578,-732 578,-732 578,-744 578,-744 578,-750 572,-756 566,-756"
         stroke-width="2"
         stroke="#56a9d8"
         fill="none" />
      <text
         id="text395"
         font-size="10.00"
         font-family="sans"
         y="-735.5"
         x="522"
         text-anchor="middle">orthofinder_prepare</text>
    </g>
    <!-- 24&#45;&gt;23 -->
    <g
       class="edge"
       id="edge33">
      <title
         id="title398">24-&gt;23</title>
      <path
         id="path400"
         d="M513.694,-719.788C509.259,-709.634 504.259,-696.384 502,-684 493.387,-636.779 483.023,-620.089 502,-576 506.789,-564.874 515.19,-554.991 524.05,-546.863"
         stroke-width="2"
         stroke="grey"
         fill="none" />
      <polygon
         id="polygon402"
         points="526.541,-549.338 531.876,-540.184 521.997,-544.013 526.541,-549.338"
         stroke-width="2"
         stroke="grey"
         fill="grey" />
    </g>
    <!-- 25 -->
    <g
       class="node"
       id="node26">
      <title
         id="title405">25</title>
      <path
         id="path407"
         d="M599,-684C599,-684 523,-684 523,-684 517,-684 511,-678 511,-672 511,-672 511,-660 511,-660 511,-654 517,-648 523,-648 523,-648 599,-648 599,-648 605,-648 611,-654 611,-660 611,-660 611,-672 611,-672 611,-678 605,-684 599,-684"
         stroke-width="2"
         stroke="#568ad8"
         fill="none" />
      <text
         id="text409"
         font-size="10.00"
         font-family="sans"
         y="-663.5"
         x="561"
         text-anchor="middle">index_pep_fastas</text>
    </g>
    <!-- 24&#45;&gt;25 -->
    <g
       class="edge"
       id="edge36">
      <title
         id="title412">24-&gt;25</title>
      <path
         id="path414"
         d="M531.64,-719.697C536.127,-711.644 541.559,-701.894 546.524,-692.982"
         stroke-width="2"
         stroke="grey"
         fill="none" />
      <polygon
         id="polygon416"
         points="549.661,-694.544 551.47,-684.104 543.546,-691.137 549.661,-694.544"
         stroke-width="2"
         stroke="grey"
         fill="grey" />
    </g>
    <!-- 25&#45;&gt;23 -->
    <g
       class="edge"
       id="edge32">
      <title
         id="title419">25-&gt;23</title>
      <path
         id="path421"
         d="M585.477,-647.768C596.404,-638.555 608.124,-626.186 614,-612 620.123,-597.218 620.326,-590.696 614,-576 609.211,-564.874 600.81,-554.991 591.95,-546.863"
         stroke-width="2"
         stroke="grey"
         fill="none" />
      <polygon
         id="polygon423"
         points="594.003,-544.013 584.124,-540.184 589.459,-549.338 594.003,-544.013"
         stroke-width="2"
         stroke="grey"
         fill="grey" />
    </g>
    <!-- 26 -->
    <g
       class="node"
       id="node27">
      <title
         id="title426">26</title>
      <path
         id="path428"
         d="M593,-612C593,-612 523,-612 523,-612 517,-612 511,-606 511,-600 511,-600 511,-588 511,-588 511,-582 517,-576 523,-576 523,-576 593,-576 593,-576 599,-576 605,-582 605,-588 605,-588 605,-600 605,-600 605,-606 599,-612 593,-612"
         stroke-width="2"
         stroke="#78d856"
         fill="none" />
      <text
         id="text430"
         font-size="10.00"
         font-family="sans"
         y="-591.5"
         x="558"
         text-anchor="middle">orthofinder_split</text>
    </g>
    <!-- 25&#45;&gt;26 -->
    <g
       class="edge"
       id="edge37">
      <title
         id="title433">25-&gt;26</title>
      <path
         id="path435"
         d="M560.258,-647.697C559.928,-639.983 559.531,-630.712 559.162,-622.112"
         stroke-width="2"
         stroke="grey"
         fill="none" />
      <polygon
         id="polygon437"
         points="562.658,-621.945 558.733,-612.104 555.665,-622.245 562.658,-621.945"
         stroke-width="2"
         stroke="grey"
         fill="grey" />
    </g>
    <!-- 26&#45;&gt;23 -->
    <g
       class="edge"
       id="edge34">
      <title
         id="title440">26-&gt;23</title>
      <path
         id="path442"
         d="M558,-575.697C558,-567.983 558,-558.712 558,-550.112"
         stroke-width="2"
         stroke="grey"
         fill="none" />
      <polygon
         id="polygon444"
         points="561.5,-550.104 558,-540.104 554.5,-550.104 561.5,-550.104"
         stroke-width="2"
         stroke="grey"
         fill="grey" />
    </g>
    <!-- 27 -->
    <g
       class="node"
       id="node28">
      <title
         id="title447">27</title>
      <path
         id="path449"
         d="M563,-828C563,-828 481,-828 481,-828 475,-828 469,-822 469,-816 469,-816 469,-804 469,-804 469,-798 475,-792 481,-792 481,-792 563,-792 563,-792 569,-792 575,-798 575,-804 575,-804 575,-816 575,-816 575,-822 569,-828 563,-828"
         stroke-width="2"
         stroke="#bed856"
         fill="none" />
      <text
         id="text451"
         font-size="10.00"
         font-family="sans"
         y="-807.5"
         x="522"
         text-anchor="middle">orthofinder_link_all</text>
    </g>
    <!-- 27&#45;&gt;24 -->
    <g
       class="edge"
       id="edge35">
      <title
         id="title454">27-&gt;24</title>
      <path
         id="path456"
         d="M522,-791.697C522,-783.983 522,-774.712 522,-766.112"
         stroke-width="2"
         stroke="grey"
         fill="none" />
      <polygon
         id="polygon458"
         points="525.5,-766.104 522,-756.104 518.5,-766.104 525.5,-766.104"
         stroke-width="2"
         stroke="grey"
         fill="grey" />
    </g>
    <!-- 28 -->
    <g
       class="node"
       id="node29">
      <title
         id="title461">28</title>
      <path
         id="path463"
         d="M552,-900C552,-900 492,-900 492,-900 486,-900 480,-894 480,-888 480,-888 480,-876 480,-876 480,-870 486,-864 492,-864 492,-864 552,-864 552,-864 558,-864 564,-870 564,-876 564,-876 564,-888 564,-888 564,-894 558,-900 552,-900"
         stroke-width="2"
         stroke="#d87556"
         fill="none" />
      <text
         id="text465"
         font-size="10.00"
         font-family="sans"
         y="-879.5"
         x="522"
         text-anchor="middle">filter_isoforms</text>
    </g>
    <!-- 28&#45;&gt;27 -->
    <g
       class="edge"
       id="edge38">
      <title
         id="title468">28-&gt;27</title>
      <path
         id="path470"
         d="M522,-863.697C522,-855.983 522,-846.712 522,-838.112"
         stroke-width="2"
         stroke="grey"
         fill="none" />
      <polygon
         id="polygon472"
         points="525.5,-838.104 522,-828.104 518.5,-838.104 525.5,-838.104"
         stroke-width="2"
         stroke="grey"
         fill="grey" />
    </g>
  </g>
</svg>
