<?xml version="1.0" encoding="UTF-8" standalone="no"?>
<!DOCTYPE svg PUBLIC "-//W3C//DTD SVG 1.1//EN"
 "http://www.w3.org/Graphics/SVG/1.1/DTD/svg11.dtd">
<!-- Generated by graphviz version 2.38.0 (20140413.2041)
 -->
<!-- Title: snakemake_dag Pages: 1 -->
<svg width="638pt" height="908pt"
 viewBox="0.00 0.00 638.00 908.00" xmlns="http://www.w3.org/2000/svg" xmlns:xlink="http://www.w3.org/1999/xlink">
<g id="graph0" class="graph" transform="scale(1 1) rotate(0) translate(4 904)">
<title>snakemake_dag</title>
<polygon fill="white" stroke="none" points="-4,4 -4,-904 634,-904 634,4 -4,4"/>
<!-- 0 -->
<g id="node1" class="node"><title>0</title>
<path fill="none" stroke="#566bd8" stroke-width="2" d="M322.5,-36C322.5,-36 292.5,-36 292.5,-36 286.5,-36 280.5,-30 280.5,-24 280.5,-24 280.5,-12 280.5,-12 280.5,-6 286.5,-0 292.5,-0 292.5,-0 322.5,-0 322.5,-0 328.5,-0 334.5,-6 334.5,-12 334.5,-12 334.5,-24 334.5,-24 334.5,-30 328.5,-36 322.5,-36"/>
<text text-anchor="middle" x="307.5" y="-15.5" font-family="sans" font-size="10.00">all</text>
</g>
<!-- 1 -->
<g id="node2" class="node"><title>1</title>
<path fill="none" stroke="#56d0d8" stroke-width="2" d="M322.5,-252C322.5,-252 292.5,-252 292.5,-252 286.5,-252 280.5,-246 280.5,-240 280.5,-240 280.5,-228 280.5,-228 280.5,-222 286.5,-216 292.5,-216 292.5,-216 322.5,-216 322.5,-216 328.5,-216 334.5,-222 334.5,-228 334.5,-228 334.5,-240 334.5,-240 334.5,-246 328.5,-252 322.5,-252"/>
<text text-anchor="middle" x="307.5" y="-231.5" font-family="sans" font-size="10.00">multiqc</text>
</g>
<!-- 1&#45;&gt;0 -->
<g id="edge2" class="edge"><title>1&#45;&gt;0</title>
<path fill="none" stroke="grey" stroke-width="2" d="M307.5,-215.849C307.5,-178.832 307.5,-91.1809 307.5,-46.3863"/>
<polygon fill="grey" stroke="grey" stroke-width="2" points="311,-46.2324 307.5,-36.2325 304,-46.2325 311,-46.2324"/>
</g>
<!-- 2 -->
<g id="node3" class="node"><title>2</title>
<path fill="none" stroke="#56d8c1" stroke-width="2" d="M244.5,-108C244.5,-108 166.5,-108 166.5,-108 160.5,-108 154.5,-102 154.5,-96 154.5,-96 154.5,-84 154.5,-84 154.5,-78 160.5,-72 166.5,-72 166.5,-72 244.5,-72 244.5,-72 250.5,-72 256.5,-78 256.5,-84 256.5,-84 256.5,-96 256.5,-96 256.5,-102 250.5,-108 244.5,-108"/>
<text text-anchor="middle" x="205.5" y="-87.5" font-family="sans" font-size="10.00">deseq2_complete</text>
</g>
<!-- 2&#45;&gt;0 -->
<g id="edge1" class="edge"><title>2&#45;&gt;0</title>
<path fill="none" stroke="grey" stroke-width="2" d="M230.452,-71.8761C243.542,-62.8931 259.76,-51.7625 273.936,-42.0341"/>
<polygon fill="grey" stroke="grey" stroke-width="2" points="276.187,-44.734 282.452,-36.1898 272.226,-38.9624 276.187,-44.734"/>
</g>
<!-- 3 -->
<g id="node4" class="node"><title>3</title>
<path fill="none" stroke="#bed856" stroke-width="2" d="M466,-108C466,-108 369,-108 369,-108 363,-108 357,-102 357,-96 357,-96 357,-84 357,-84 357,-78 363,-72 369,-72 369,-72 466,-72 466,-72 472,-72 478,-78 478,-84 478,-84 478,-96 478,-96 478,-102 472,-108 466,-108"/>
<text text-anchor="middle" x="417.5" y="-87.5" font-family="sans" font-size="10.00">Orthofinder_complete</text>
</g>
<!-- 3&#45;&gt;0 -->
<g id="edge3" class="edge"><title>3&#45;&gt;0</title>
<path fill="none" stroke="grey" stroke-width="2" d="M390.591,-71.8761C376.342,-62.8083 358.654,-51.5523 343.264,-41.7592"/>
<polygon fill="grey" stroke="grey" stroke-width="2" points="344.828,-38.6057 334.512,-36.1898 341.07,-44.5114 344.828,-38.6057"/>
</g>
<!-- 4 -->
<g id="node5" class="node"><title>4</title>
<path fill="none" stroke="#56d86b" stroke-width="2" d="M413.5,-396C413.5,-396 365.5,-396 365.5,-396 359.5,-396 353.5,-390 353.5,-384 353.5,-384 353.5,-372 353.5,-372 353.5,-366 359.5,-360 365.5,-360 365.5,-360 413.5,-360 413.5,-360 419.5,-360 425.5,-366 425.5,-372 425.5,-372 425.5,-384 425.5,-384 425.5,-390 419.5,-396 413.5,-396"/>
<text text-anchor="middle" x="389.5" y="-375.5" font-family="sans" font-size="10.00">FastQC_raw</text>
</g>
<!-- 4&#45;&gt;1 -->
<g id="edge6" class="edge"><title>4&#45;&gt;1</title>
<path fill="none" stroke="grey" stroke-width="2" d="M393.326,-359.712C396.549,-340.828 398.881,-310.303 386.5,-288 377.118,-271.101 359.804,-258.576 343.771,-249.958"/>
<polygon fill="grey" stroke="grey" stroke-width="2" points="345.056,-246.687 334.549,-245.332 341.918,-252.944 345.056,-246.687"/>
</g>
<!-- 5 -->
<g id="node6" class="node"><title>5</title>
<path fill="none" stroke="#d85656" stroke-width="2" d="M366,-324C366,-324 293,-324 293,-324 287,-324 281,-318 281,-312 281,-312 281,-300 281,-300 281,-294 287,-288 293,-288 293,-288 366,-288 366,-288 372,-288 378,-294 378,-300 378,-300 378,-312 378,-312 378,-318 372,-324 366,-324"/>
<text text-anchor="middle" x="329.5" y="-303.5" font-family="sans" font-size="10.00">FastQC_trimmed</text>
</g>
<!-- 4&#45;&gt;5 -->
<g id="edge14" class="edge"><title>4&#45;&gt;5</title>
<path fill="none" stroke="grey" stroke-width="2" d="M374.669,-359.697C367.475,-351.305 358.703,-341.07 350.81,-331.861"/>
<polygon fill="grey" stroke="grey" stroke-width="2" points="353.326,-329.419 344.161,-324.104 348.011,-333.975 353.326,-329.419"/>
</g>
<!-- 5&#45;&gt;1 -->
<g id="edge4" class="edge"><title>5&#45;&gt;1</title>
<path fill="none" stroke="grey" stroke-width="2" d="M324.062,-287.697C321.611,-279.898 318.66,-270.509 315.932,-261.829"/>
<polygon fill="grey" stroke="grey" stroke-width="2" points="319.213,-260.595 312.876,-252.104 312.535,-262.694 319.213,-260.595"/>
</g>
<!-- 6 -->
<g id="node7" class="node"><title>6</title>
<path fill="none" stroke="#56d87b" stroke-width="2" d="M198,-540C198,-540 125,-540 125,-540 119,-540 113,-534 113,-528 113,-528 113,-516 113,-516 113,-510 119,-504 125,-504 125,-504 198,-504 198,-504 204,-504 210,-510 210,-516 210,-516 210,-528 210,-528 210,-534 204,-540 198,-540"/>
<text text-anchor="middle" x="161.5" y="-519.5" font-family="sans" font-size="10.00">Trimmomatic_SE</text>
</g>
<!-- 6&#45;&gt;1 -->
<g id="edge7" class="edge"><title>6&#45;&gt;1</title>
<path fill="none" stroke="grey" stroke-width="2" d="M156.256,-503.701C144.741,-461.966 121.958,-354.308 170.5,-288 198.403,-249.885 226.777,-269.877 270.5,-252 270.598,-251.96 270.696,-251.92 270.795,-251.879"/>
<polygon fill="grey" stroke="grey" stroke-width="2" points="272.315,-255.036 280.135,-247.888 269.564,-248.599 272.315,-255.036"/>
</g>
<!-- 14 -->
<g id="node15" class="node"><title>14</title>
<path fill="none" stroke="#68d856" stroke-width="2" d="M336.5,-468C336.5,-468 238.5,-468 238.5,-468 232.5,-468 226.5,-462 226.5,-456 226.5,-456 226.5,-444 226.5,-444 226.5,-438 232.5,-432 238.5,-432 238.5,-432 336.5,-432 336.5,-432 342.5,-432 348.5,-438 348.5,-444 348.5,-444 348.5,-456 348.5,-456 348.5,-462 342.5,-468 336.5,-468"/>
<text text-anchor="middle" x="287.5" y="-447.5" font-family="sans" font-size="10.00">Trimmomatic_cleanup</text>
</g>
<!-- 6&#45;&gt;14 -->
<g id="edge24" class="edge"><title>6&#45;&gt;14</title>
<path fill="none" stroke="grey" stroke-width="2" d="M192.323,-503.876C208.95,-494.639 229.665,-483.131 247.519,-473.212"/>
<polygon fill="grey" stroke="grey" stroke-width="2" points="249.517,-476.106 256.558,-468.19 246.117,-469.987 249.517,-476.106"/>
</g>
<!-- 7 -->
<g id="node8" class="node"><title>7</title>
<path fill="none" stroke="#9fd856" stroke-width="2" d="M395.5,-540C395.5,-540 323.5,-540 323.5,-540 317.5,-540 311.5,-534 311.5,-528 311.5,-528 311.5,-516 311.5,-516 311.5,-510 317.5,-504 323.5,-504 323.5,-504 395.5,-504 395.5,-504 401.5,-504 407.5,-510 407.5,-516 407.5,-516 407.5,-528 407.5,-528 407.5,-534 401.5,-540 395.5,-540"/>
<text text-anchor="middle" x="359.5" y="-519.5" font-family="sans" font-size="10.00">Trimmomatic_PE</text>
</g>
<!-- 7&#45;&gt;1 -->
<g id="edge8" class="edge"><title>7&#45;&gt;1</title>
<path fill="none" stroke="grey" stroke-width="2" d="M376.112,-503.64C401.354,-475.144 445.355,-416.003 434.5,-360 427.936,-326.132 428.479,-313.731 405.5,-288 389.039,-269.567 364.598,-256.332 344.243,-247.698"/>
<polygon fill="grey" stroke="grey" stroke-width="2" points="345.511,-244.435 334.928,-243.939 342.892,-250.927 345.511,-244.435"/>
</g>
<!-- 7&#45;&gt;14 -->
<g id="edge25" class="edge"><title>7&#45;&gt;14</title>
<path fill="none" stroke="grey" stroke-width="2" d="M341.702,-503.697C332.896,-495.135 322.118,-484.656 312.499,-475.304"/>
<polygon fill="grey" stroke="grey" stroke-width="2" points="314.703,-472.566 305.093,-468.104 309.823,-477.585 314.703,-472.566"/>
</g>
<!-- 8 -->
<g id="node9" class="node"><title>8</title>
<path fill="none" stroke="#567bd8" stroke-width="2" d="M251,-324C251,-324 192,-324 192,-324 186,-324 180,-318 180,-312 180,-312 180,-300 180,-300 180,-294 186,-288 192,-288 192,-288 251,-288 251,-288 257,-288 263,-294 263,-300 263,-300 263,-312 263,-312 263,-318 257,-324 251,-324"/>
<text text-anchor="middle" x="221.5" y="-303.5" font-family="sans" font-size="10.00">kallisto_quant</text>
</g>
<!-- 8&#45;&gt;1 -->
<g id="edge9" class="edge"><title>8&#45;&gt;1</title>
<path fill="none" stroke="grey" stroke-width="2" d="M242.758,-287.697C253.589,-278.881 266.918,-268.032 278.66,-258.474"/>
<polygon fill="grey" stroke="grey" stroke-width="2" points="280.94,-261.132 286.486,-252.104 276.521,-255.703 280.94,-261.132"/>
</g>
<!-- 17 -->
<g id="node18" class="node"><title>17</title>
<path fill="none" stroke="#568ad8" stroke-width="2" d="M250,-252C250,-252 161,-252 161,-252 155,-252 149,-246 149,-240 149,-240 149,-228 149,-228 149,-222 155,-216 161,-216 161,-216 250,-216 250,-216 256,-216 262,-222 262,-228 262,-228 262,-240 262,-240 262,-246 256,-252 250,-252"/>
<text text-anchor="middle" x="205.5" y="-231.5" font-family="sans" font-size="10.00">tximport_and_setup</text>
</g>
<!-- 8&#45;&gt;17 -->
<g id="edge26" class="edge"><title>8&#45;&gt;17</title>
<path fill="none" stroke="grey" stroke-width="2" d="M217.545,-287.697C215.782,-279.983 213.663,-270.712 211.697,-262.112"/>
<polygon fill="grey" stroke="grey" stroke-width="2" points="215.05,-261.073 209.41,-252.104 208.226,-262.633 215.05,-261.073"/>
</g>
<!-- 9 -->
<g id="node10" class="node"><title>9</title>
<path fill="none" stroke="#ced856" stroke-width="2" d="M110.5,-396C110.5,-396 66.5,-396 66.5,-396 60.5,-396 54.5,-390 54.5,-384 54.5,-384 54.5,-372 54.5,-372 54.5,-366 60.5,-360 66.5,-360 66.5,-360 110.5,-360 110.5,-360 116.5,-360 122.5,-366 122.5,-372 122.5,-372 122.5,-384 122.5,-384 122.5,-390 116.5,-396 110.5,-396"/>
<text text-anchor="middle" x="88.5" y="-375.5" font-family="sans" font-size="10.00">STAR_align</text>
</g>
<!-- 9&#45;&gt;1 -->
<g id="edge10" class="edge"><title>9&#45;&gt;1</title>
<path fill="none" stroke="grey" stroke-width="2" d="M93.3913,-359.888C100.05,-339.693 113.921,-306.525 137.5,-288 185.654,-250.167 212.923,-272.856 270.5,-252 270.6,-251.964 270.7,-251.928 270.799,-251.891"/>
<polygon fill="grey" stroke="grey" stroke-width="2" points="272.232,-255.088 280.233,-248.143 269.647,-248.583 272.232,-255.088"/>
</g>
<!-- 10 -->
<g id="node11" class="node"><title>10</title>
<path fill="none" stroke="#d8d356" stroke-width="2" d="M73,-324C73,-324 12,-324 12,-324 6,-324 0,-318 0,-312 0,-312 0,-300 0,-300 0,-294 6,-288 12,-288 12,-288 73,-288 73,-288 79,-288 85,-294 85,-300 85,-300 85,-312 85,-312 85,-318 79,-324 73,-324"/>
<text text-anchor="middle" x="42.5" y="-303.5" font-family="sans" font-size="10.00">featureCounts</text>
</g>
<!-- 9&#45;&gt;10 -->
<g id="edge20" class="edge"><title>9&#45;&gt;10</title>
<path fill="none" stroke="grey" stroke-width="2" d="M77.1292,-359.697C71.7815,-351.559 65.2957,-341.689 59.3894,-332.701"/>
<polygon fill="grey" stroke="grey" stroke-width="2" points="62.1568,-330.539 53.74,-324.104 56.3068,-334.384 62.1568,-330.539"/>
</g>
<!-- 10&#45;&gt;1 -->
<g id="edge5" class="edge"><title>10&#45;&gt;1</title>
<path fill="none" stroke="grey" stroke-width="2" d="M85.0353,-291.897C89.8976,-290.523 94.7958,-289.195 99.5,-288 174.777,-268.885 196.755,-276.364 270.5,-252 270.601,-251.967 270.701,-251.933 270.802,-251.9"/>
<polygon fill="grey" stroke="grey" stroke-width="2" points="272.172,-255.124 280.295,-248.323 269.704,-248.573 272.172,-255.124"/>
</g>
<!-- 18 -->
<g id="node19" class="node"><title>18</title>
<path fill="none" stroke="#d86656" stroke-width="2" d="M103.5,-252C103.5,-252 41.5,-252 41.5,-252 35.5,-252 29.5,-246 29.5,-240 29.5,-240 29.5,-228 29.5,-228 29.5,-222 35.5,-216 41.5,-216 41.5,-216 103.5,-216 103.5,-216 109.5,-216 115.5,-222 115.5,-228 115.5,-228 115.5,-240 115.5,-240 115.5,-246 109.5,-252 103.5,-252"/>
<text text-anchor="middle" x="72.5" y="-231.5" font-family="sans" font-size="10.00">merge_counts</text>
</g>
<!-- 10&#45;&gt;18 -->
<g id="edge27" class="edge"><title>10&#45;&gt;18</title>
<path fill="none" stroke="grey" stroke-width="2" d="M49.9157,-287.697C53.2944,-279.813 57.3696,-270.304 61.123,-261.546"/>
<polygon fill="grey" stroke="grey" stroke-width="2" points="64.4473,-262.675 65.1696,-252.104 58.0133,-259.917 64.4473,-262.675"/>
</g>
<!-- 11 -->
<g id="node12" class="node"><title>11</title>
<path fill="none" stroke="#d88d56" stroke-width="2" d="M235,-180C235,-180 176,-180 176,-180 170,-180 164,-174 164,-168 164,-168 164,-156 164,-156 164,-150 170,-144 176,-144 176,-144 235,-144 235,-144 241,-144 247,-150 247,-156 247,-156 247,-168 247,-168 247,-174 241,-180 235,-180"/>
<text text-anchor="middle" x="205.5" y="-159.5" font-family="sans" font-size="10.00">cdna_DESeq2</text>
</g>
<!-- 11&#45;&gt;2 -->
<g id="edge11" class="edge"><title>11&#45;&gt;2</title>
<path fill="none" stroke="grey" stroke-width="2" d="M205.5,-143.697C205.5,-135.983 205.5,-126.712 205.5,-118.112"/>
<polygon fill="grey" stroke="grey" stroke-width="2" points="209,-118.104 205.5,-108.104 202,-118.104 209,-118.104"/>
</g>
<!-- 12 -->
<g id="node13" class="node"><title>12</title>
<path fill="none" stroke="#d8bc56" stroke-width="2" d="M116.5,-180C116.5,-180 62.5,-180 62.5,-180 56.5,-180 50.5,-174 50.5,-168 50.5,-168 50.5,-156 50.5,-156 50.5,-150 56.5,-144 62.5,-144 62.5,-144 116.5,-144 116.5,-144 122.5,-144 128.5,-150 128.5,-156 128.5,-156 128.5,-168 128.5,-168 128.5,-174 122.5,-180 116.5,-180"/>
<text text-anchor="middle" x="89.5" y="-159.5" font-family="sans" font-size="10.00">gen_DESeq2</text>
</g>
<!-- 12&#45;&gt;2 -->
<g id="edge12" class="edge"><title>12&#45;&gt;2</title>
<path fill="none" stroke="grey" stroke-width="2" d="M117.877,-143.876C133.044,-134.724 151.905,-123.342 168.239,-113.485"/>
<polygon fill="grey" stroke="grey" stroke-width="2" points="170.261,-116.353 177.014,-108.19 166.644,-110.36 170.261,-116.353"/>
</g>
<!-- 13 -->
<g id="node14" class="node"><title>13</title>
<path fill="none" stroke="#56a9d8" stroke-width="2" d="M504,-180C504,-180 415,-180 415,-180 409,-180 403,-174 403,-168 403,-168 403,-156 403,-156 403,-150 409,-144 415,-144 415,-144 504,-144 504,-144 510,-144 516,-150 516,-156 516,-156 516,-168 516,-168 516,-174 510,-180 504,-180"/>
<text text-anchor="middle" x="459.5" y="-159.5" font-family="sans" font-size="10.00">Orthofinder_cleanup</text>
</g>
<!-- 13&#45;&gt;3 -->
<g id="edge13" class="edge"><title>13&#45;&gt;3</title>
<path fill="none" stroke="grey" stroke-width="2" d="M449.118,-143.697C444.235,-135.559 438.313,-125.689 432.921,-116.701"/>
<polygon fill="grey" stroke="grey" stroke-width="2" points="435.909,-114.879 427.763,-108.104 429.906,-118.48 435.909,-114.879"/>
</g>
<!-- 14&#45;&gt;5 -->
<g id="edge15" class="edge"><title>14&#45;&gt;5</title>
<path fill="none" stroke="grey" stroke-width="2" d="M292.566,-431.871C299.756,-407.564 312.99,-362.819 321.51,-334.013"/>
<polygon fill="grey" stroke="grey" stroke-width="2" points="324.936,-334.771 324.416,-324.189 318.223,-332.786 324.936,-334.771"/>
</g>
<!-- 14&#45;&gt;8 -->
<g id="edge16" class="edge"><title>14&#45;&gt;8</title>
<path fill="none" stroke="grey" stroke-width="2" d="M286.43,-431.739C284.697,-413.148 280.186,-383.126 268.5,-360 263.319,-349.747 255.662,-339.921 248.025,-331.574"/>
<polygon fill="grey" stroke="grey" stroke-width="2" points="250.541,-329.141 241.089,-324.355 245.493,-333.991 250.541,-329.141"/>
</g>
<!-- 14&#45;&gt;9 -->
<g id="edge18" class="edge"><title>14&#45;&gt;9</title>
<path fill="none" stroke="grey" stroke-width="2" d="M239.074,-431.966C206.58,-420.536 164.117,-405.599 132.57,-394.502"/>
<polygon fill="grey" stroke="grey" stroke-width="2" points="133.333,-391.06 122.738,-391.044 131.01,-397.664 133.333,-391.06"/>
</g>
<!-- 15 -->
<g id="node16" class="node"><title>15</title>
<path fill="none" stroke="#56d8d0" stroke-width="2" d="M247.5,-396C247.5,-396 191.5,-396 191.5,-396 185.5,-396 179.5,-390 179.5,-384 179.5,-384 179.5,-372 179.5,-372 179.5,-366 185.5,-360 191.5,-360 191.5,-360 247.5,-360 247.5,-360 253.5,-360 259.5,-366 259.5,-372 259.5,-372 259.5,-384 259.5,-384 259.5,-390 253.5,-396 247.5,-396"/>
<text text-anchor="middle" x="219.5" y="-375.5" font-family="sans" font-size="10.00">kallisto_index</text>
</g>
<!-- 15&#45;&gt;8 -->
<g id="edge17" class="edge"><title>15&#45;&gt;8</title>
<path fill="none" stroke="grey" stroke-width="2" d="M219.994,-359.697C220.215,-351.983 220.48,-342.712 220.725,-334.112"/>
<polygon fill="grey" stroke="grey" stroke-width="2" points="224.224,-334.2 221.011,-324.104 217.227,-334 224.224,-334.2"/>
</g>
<!-- 16 -->
<g id="node17" class="node"><title>16</title>
<path fill="none" stroke="#afd856" stroke-width="2" d="M111,-468C111,-468 64,-468 64,-468 58,-468 52,-462 52,-456 52,-456 52,-444 52,-444 52,-438 58,-432 64,-432 64,-432 111,-432 111,-432 117,-432 123,-438 123,-444 123,-444 123,-456 123,-456 123,-462 117,-468 111,-468"/>
<text text-anchor="middle" x="87.5" y="-447.5" font-family="sans" font-size="10.00">STAR_index</text>
</g>
<!-- 16&#45;&gt;9 -->
<g id="edge19" class="edge"><title>16&#45;&gt;9</title>
<path fill="none" stroke="grey" stroke-width="2" d="M87.7472,-431.697C87.8574,-423.983 87.9898,-414.712 88.1127,-406.112"/>
<polygon fill="grey" stroke="grey" stroke-width="2" points="91.6124,-406.153 88.2557,-396.104 84.6131,-406.053 91.6124,-406.153"/>
</g>
<!-- 17&#45;&gt;11 -->
<g id="edge21" class="edge"><title>17&#45;&gt;11</title>
<path fill="none" stroke="grey" stroke-width="2" d="M205.5,-215.697C205.5,-207.983 205.5,-198.712 205.5,-190.112"/>
<polygon fill="grey" stroke="grey" stroke-width="2" points="209,-190.104 205.5,-180.104 202,-190.104 209,-190.104"/>
</g>
<!-- 18&#45;&gt;12 -->
<g id="edge22" class="edge"><title>18&#45;&gt;12</title>
<path fill="none" stroke="grey" stroke-width="2" d="M76.7022,-215.697C78.5962,-207.898 80.8765,-198.509 82.9843,-189.829"/>
<polygon fill="grey" stroke="grey" stroke-width="2" points="86.3872,-190.648 85.3461,-180.104 79.5849,-188.996 86.3872,-190.648"/>
</g>
<!-- 19 -->
<g id="node20" class="node"><title>19</title>
<path fill="none" stroke="#56d88a" stroke-width="2" d="M535,-252C535,-252 426,-252 426,-252 420,-252 414,-246 414,-240 414,-240 414,-228 414,-228 414,-222 420,-216 426,-216 426,-216 535,-216 535,-216 541,-216 547,-222 547,-228 547,-228 547,-240 547,-240 547,-246 541,-252 535,-252"/>
<text text-anchor="middle" x="480.5" y="-231.5" font-family="sans" font-size="10.00">Orthofinder_orthologues</text>
</g>
<!-- 19&#45;&gt;13 -->
<g id="edge23" class="edge"><title>19&#45;&gt;13</title>
<path fill="none" stroke="grey" stroke-width="2" d="M475.309,-215.697C472.969,-207.898 470.153,-198.509 467.549,-189.829"/>
<polygon fill="grey" stroke="grey" stroke-width="2" points="470.857,-188.677 464.631,-180.104 464.152,-190.688 470.857,-188.677"/>
</g>
<!-- 20 -->
<g id="node21" class="node"><title>20</title>
<path fill="none" stroke="#d87556" stroke-width="2" d="M580,-324C580,-324 503,-324 503,-324 497,-324 491,-318 491,-312 491,-312 491,-300 491,-300 491,-294 497,-288 503,-288 503,-288 580,-288 580,-288 586,-288 592,-294 592,-300 592,-300 592,-312 592,-312 592,-318 586,-324 580,-324"/>
<text text-anchor="middle" x="541.5" y="-303.5" font-family="sans" font-size="10.00">Orthofinder_Trees</text>
</g>
<!-- 20&#45;&gt;19 -->
<g id="edge28" class="edge"><title>20&#45;&gt;19</title>
<path fill="none" stroke="grey" stroke-width="2" d="M526.421,-287.697C519.108,-279.305 510.19,-269.07 502.165,-259.861"/>
<polygon fill="grey" stroke="grey" stroke-width="2" points="504.614,-257.344 495.405,-252.104 499.336,-261.943 504.614,-257.344"/>
</g>
<!-- 21 -->
<g id="node22" class="node"><title>21</title>
<path fill="none" stroke="#78d856" stroke-width="2" d="M606.5,-396C606.5,-396 496.5,-396 496.5,-396 490.5,-396 484.5,-390 484.5,-384 484.5,-384 484.5,-372 484.5,-372 484.5,-366 490.5,-360 496.5,-360 496.5,-360 606.5,-360 606.5,-360 612.5,-360 618.5,-366 618.5,-372 618.5,-372 618.5,-384 618.5,-384 618.5,-390 612.5,-396 606.5,-396"/>
<text text-anchor="middle" x="551.5" y="-375.5" font-family="sans" font-size="10.00">Orthofinder_orthogroups</text>
</g>
<!-- 21&#45;&gt;20 -->
<g id="edge29" class="edge"><title>21&#45;&gt;20</title>
<path fill="none" stroke="grey" stroke-width="2" d="M549.028,-359.697C547.926,-351.983 546.602,-342.712 545.373,-334.112"/>
<polygon fill="grey" stroke="grey" stroke-width="2" points="548.823,-333.509 543.943,-324.104 541.893,-334.499 548.823,-333.509"/>
</g>
<!-- 22 -->
<g id="node23" class="node"><title>22</title>
<path fill="none" stroke="#56c1d8" stroke-width="2" d="M618,-468C618,-468 493,-468 493,-468 487,-468 481,-462 481,-456 481,-456 481,-444 481,-444 481,-438 487,-432 493,-432 493,-432 618,-432 618,-432 624,-432 630,-438 630,-444 630,-444 630,-456 630,-456 630,-462 624,-468 618,-468"/>
<text text-anchor="middle" x="555.5" y="-447.5" font-family="sans" font-size="10.00">Orthofinder_BLASTP_merge</text>
</g>
<!-- 22&#45;&gt;21 -->
<g id="edge30" class="edge"><title>22&#45;&gt;21</title>
<path fill="none" stroke="grey" stroke-width="2" d="M554.511,-431.697C554.07,-423.983 553.541,-414.712 553.049,-406.112"/>
<polygon fill="grey" stroke="grey" stroke-width="2" points="556.542,-405.888 552.477,-396.104 549.554,-406.288 556.542,-405.888"/>
</g>
<!-- 23 -->
<g id="node24" class="node"><title>23</title>
<path fill="none" stroke="#d89c56" stroke-width="2" d="M600,-540C600,-540 511,-540 511,-540 505,-540 499,-534 499,-528 499,-528 499,-516 499,-516 499,-510 505,-504 511,-504 511,-504 600,-504 600,-504 606,-504 612,-510 612,-516 612,-516 612,-528 612,-528 612,-534 606,-540 600,-540"/>
<text text-anchor="middle" x="555.5" y="-519.5" font-family="sans" font-size="10.00">Orthofinder_BLASTP</text>
</g>
<!-- 23&#45;&gt;22 -->
<g id="edge31" class="edge"><title>23&#45;&gt;22</title>
<path fill="none" stroke="grey" stroke-width="2" d="M555.5,-503.697C555.5,-495.983 555.5,-486.712 555.5,-478.112"/>
<polygon fill="grey" stroke="grey" stroke-width="2" points="559,-478.104 555.5,-468.104 552,-478.104 559,-478.104"/>
</g>
<!-- 24 -->
<g id="node25" class="node"><title>24</title>
<path fill="none" stroke="#569ad8" stroke-width="2" d="M564,-756C564,-756 475,-756 475,-756 469,-756 463,-750 463,-744 463,-744 463,-732 463,-732 463,-726 469,-720 475,-720 475,-720 564,-720 564,-720 570,-720 576,-726 576,-732 576,-732 576,-744 576,-744 576,-750 570,-756 564,-756"/>
<text text-anchor="middle" x="519.5" y="-735.5" font-family="sans" font-size="10.00">Orthofinder_prepare</text>
</g>
<!-- 24&#45;&gt;23 -->
<g id="edge32" class="edge"><title>24&#45;&gt;23</title>
<path fill="none" stroke="grey" stroke-width="2" d="M510.782,-719.833C506.125,-709.694 500.875,-696.444 498.5,-684 489.5,-636.851 479.328,-620.005 498.5,-576 503.433,-564.677 512.111,-554.682 521.229,-546.512"/>
<polygon fill="grey" stroke="grey" stroke-width="2" points="523.489,-549.185 528.92,-540.088 519.001,-543.812 523.489,-549.185"/>
</g>
<!-- 25 -->
<g id="node26" class="node"><title>25</title>
<path fill="none" stroke="#56d89a" stroke-width="2" d="M601,-684C601,-684 520,-684 520,-684 514,-684 508,-678 508,-672 508,-672 508,-660 508,-660 508,-654 514,-648 520,-648 520,-648 601,-648 601,-648 607,-648 613,-654 613,-660 613,-660 613,-672 613,-672 613,-678 607,-684 601,-684"/>
<text text-anchor="middle" x="560.5" y="-663.5" font-family="sans" font-size="10.00">index_pep_FASTAs</text>
</g>
<!-- 24&#45;&gt;25 -->
<g id="edge36" class="edge"><title>24&#45;&gt;25</title>
<path fill="none" stroke="grey" stroke-width="2" d="M529.635,-719.697C534.352,-711.644 540.062,-701.894 545.282,-692.982"/>
<polygon fill="grey" stroke="grey" stroke-width="2" points="548.448,-694.502 550.482,-684.104 542.408,-690.964 548.448,-694.502"/>
</g>
<!-- 25&#45;&gt;23 -->
<g id="edge34" class="edge"><title>25&#45;&gt;23</title>
<path fill="none" stroke="grey" stroke-width="2" d="M583.805,-647.819C594.401,-638.538 605.82,-626.094 611.5,-612 617.481,-597.16 617.826,-590.696 611.5,-576 606.711,-564.874 598.31,-554.991 589.45,-546.863"/>
<polygon fill="grey" stroke="grey" stroke-width="2" points="591.503,-544.013 581.624,-540.184 586.959,-549.338 591.503,-544.013"/>
</g>
<!-- 26 -->
<g id="node27" class="node"><title>26</title>
<path fill="none" stroke="#88d856" stroke-width="2" d="M591,-612C591,-612 520,-612 520,-612 514,-612 508,-606 508,-600 508,-600 508,-588 508,-588 508,-582 514,-576 520,-576 520,-576 591,-576 591,-576 597,-576 603,-582 603,-588 603,-588 603,-600 603,-600 603,-606 597,-612 591,-612"/>
<text text-anchor="middle" x="555.5" y="-591.5" font-family="sans" font-size="10.00">Orthofinder_split</text>
</g>
<!-- 25&#45;&gt;26 -->
<g id="edge37" class="edge"><title>25&#45;&gt;26</title>
<path fill="none" stroke="grey" stroke-width="2" d="M559.264,-647.697C558.713,-639.983 558.051,-630.712 557.437,-622.112"/>
<polygon fill="grey" stroke="grey" stroke-width="2" points="560.925,-621.83 556.722,-612.104 553.943,-622.328 560.925,-621.83"/>
</g>
<!-- 26&#45;&gt;23 -->
<g id="edge33" class="edge"><title>26&#45;&gt;23</title>
<path fill="none" stroke="grey" stroke-width="2" d="M555.5,-575.697C555.5,-567.983 555.5,-558.712 555.5,-550.112"/>
<polygon fill="grey" stroke="grey" stroke-width="2" points="559,-550.104 555.5,-540.104 552,-550.104 559,-550.104"/>
</g>
<!-- 27 -->
<g id="node28" class="node"><title>27</title>
<path fill="none" stroke="#59d856" stroke-width="2" d="M561,-828C561,-828 478,-828 478,-828 472,-828 466,-822 466,-816 466,-816 466,-804 466,-804 466,-798 472,-792 478,-792 478,-792 561,-792 561,-792 567,-792 573,-798 573,-804 573,-804 573,-816 573,-816 573,-822 567,-828 561,-828"/>
<text text-anchor="middle" x="519.5" y="-807.5" font-family="sans" font-size="10.00">Orthofinder_link_all</text>
</g>
<!-- 27&#45;&gt;24 -->
<g id="edge35" class="edge"><title>27&#45;&gt;24</title>
<path fill="none" stroke="grey" stroke-width="2" d="M519.5,-791.697C519.5,-783.983 519.5,-774.712 519.5,-766.112"/>
<polygon fill="grey" stroke="grey" stroke-width="2" points="523,-766.104 519.5,-756.104 516,-766.104 523,-766.104"/>
</g>
<!-- 28 -->
<g id="node29" class="node"><title>28</title>
<path fill="none" stroke="#56d8a9" stroke-width="2" d="M549.5,-900C549.5,-900 489.5,-900 489.5,-900 483.5,-900 477.5,-894 477.5,-888 477.5,-888 477.5,-876 477.5,-876 477.5,-870 483.5,-864 489.5,-864 489.5,-864 549.5,-864 549.5,-864 555.5,-864 561.5,-870 561.5,-876 561.5,-876 561.5,-888 561.5,-888 561.5,-894 555.5,-900 549.5,-900"/>
<text text-anchor="middle" x="519.5" y="-879.5" font-family="sans" font-size="10.00">filter_isoforms</text>
</g>
<!-- 28&#45;&gt;27 -->
<g id="edge38" class="edge"><title>28&#45;&gt;27</title>
<path fill="none" stroke="grey" stroke-width="2" d="M519.5,-863.697C519.5,-855.983 519.5,-846.712 519.5,-838.112"/>
<polygon fill="grey" stroke="grey" stroke-width="2" points="523,-838.104 519.5,-828.104 516,-838.104 523,-838.104"/>
</g>
</g>
</svg>
