<?xml version="1.0" encoding="UTF-8" standalone="no"?>
<!DOCTYPE svg PUBLIC "-//W3C//DTD SVG 1.1//EN"
 "http://www.w3.org/Graphics/SVG/1.1/DTD/svg11.dtd">
<!-- Generated by graphviz version 2.47.2 (20210527.1257)
 -->
<!-- Title: snakemake_dag Pages: 1 -->
<svg width="1196pt" height="1484pt"
 viewBox="0.00 0.00 1195.50 1484.00" xmlns="http://www.w3.org/2000/svg" xmlns:xlink="http://www.w3.org/1999/xlink">
<g id="graph0" class="graph" transform="scale(1 1) rotate(0) translate(4 1480)">
<title>snakemake_dag</title>
<polygon fill="white" stroke="transparent" points="-4,4 -4,-1480 1191.5,-1480 1191.5,4 -4,4"/>
<!-- 0 -->
<g id="node1" class="node">
<title>0</title>
<path fill="none" stroke="#56d89a" stroke-width="2" d="M414,-36C414,-36 384,-36 384,-36 378,-36 372,-30 372,-24 372,-24 372,-12 372,-12 372,-6 378,0 384,0 384,0 414,0 414,0 420,0 426,-6 426,-12 426,-12 426,-24 426,-24 426,-30 420,-36 414,-36"/>
<text text-anchor="middle" x="399" y="-15.5" font-family="sans" font-size="10.00">all</text>
</g>
<!-- 1 -->
<g id="node2" class="node">
<title>1</title>
<path fill="none" stroke="#56d8a9" stroke-width="2" d="M240,-324C240,-324 210,-324 210,-324 204,-324 198,-318 198,-312 198,-312 198,-300 198,-300 198,-294 204,-288 210,-288 210,-288 240,-288 240,-288 246,-288 252,-294 252,-300 252,-300 252,-312 252,-312 252,-318 246,-324 240,-324"/>
<text text-anchor="middle" x="225" y="-303.5" font-family="sans" font-size="10.00">multiqc</text>
</g>
<!-- 1&#45;&gt;0 -->
<g id="edge2" class="edge">
<title>1&#45;&gt;0</title>
<path fill="none" stroke="grey" stroke-width="2" d="M235.36,-287.97C264.61,-239.89 347.94,-102.93 383.07,-45.19"/>
<polygon fill="grey" stroke="grey" stroke-width="2" points="386.26,-46.67 388.47,-36.31 380.28,-43.03 386.26,-46.67"/>
</g>
<!-- 2 -->
<g id="node3" class="node">
<title>2</title>
<path fill="none" stroke="#569ad8" stroke-width="2" d="M173,-468C173,-468 123,-468 123,-468 117,-468 111,-462 111,-456 111,-456 111,-444 111,-444 111,-438 117,-432 123,-432 123,-432 173,-432 173,-432 179,-432 185,-438 185,-444 185,-444 185,-456 185,-456 185,-462 179,-468 173,-468"/>
<text text-anchor="middle" x="148" y="-447.5" font-family="sans" font-size="10.00">FastQC_raw</text>
</g>
<!-- 2&#45;&gt;1 -->
<g id="edge7" class="edge">
<title>2&#45;&gt;1</title>
<path fill="none" stroke="grey" stroke-width="2" d="M140.98,-431.74C134.49,-412.88 127.58,-382.38 140,-360 150.42,-341.22 170.56,-328.23 188.62,-319.81"/>
<polygon fill="grey" stroke="grey" stroke-width="2" points="190.04,-323.01 197.82,-315.82 187.25,-316.59 190.04,-323.01"/>
</g>
<!-- 3 -->
<g id="node4" class="node">
<title>3</title>
<path fill="none" stroke="#d86656" stroke-width="2" d="M235,-396C235,-396 161,-396 161,-396 155,-396 149,-390 149,-384 149,-384 149,-372 149,-372 149,-366 155,-360 161,-360 161,-360 235,-360 235,-360 241,-360 247,-366 247,-372 247,-372 247,-384 247,-384 247,-390 241,-396 235,-396"/>
<text text-anchor="middle" x="198" y="-375.5" font-family="sans" font-size="10.00">FastQC_trimmed</text>
</g>
<!-- 2&#45;&gt;3 -->
<g id="edge10" class="edge">
<title>2&#45;&gt;3</title>
<path fill="none" stroke="grey" stroke-width="2" d="M160.36,-431.7C166.23,-423.47 173.37,-413.48 179.84,-404.42"/>
<polygon fill="grey" stroke="grey" stroke-width="2" points="182.82,-406.28 185.78,-396.1 177.12,-402.21 182.82,-406.28"/>
</g>
<!-- 3&#45;&gt;1 -->
<g id="edge4" class="edge">
<title>3&#45;&gt;1</title>
<path fill="none" stroke="grey" stroke-width="2" d="M204.67,-359.7C207.71,-351.81 211.38,-342.3 214.76,-333.55"/>
<polygon fill="grey" stroke="grey" stroke-width="2" points="218.07,-334.69 218.4,-324.1 211.54,-332.17 218.07,-334.69"/>
</g>
<!-- 4 -->
<g id="node5" class="node">
<title>4</title>
<path fill="none" stroke="#80d856" stroke-width="2" d="M253.5,-540C253.5,-540 152.5,-540 152.5,-540 146.5,-540 140.5,-534 140.5,-528 140.5,-528 140.5,-516 140.5,-516 140.5,-510 146.5,-504 152.5,-504 152.5,-504 253.5,-504 253.5,-504 259.5,-504 265.5,-510 265.5,-516 265.5,-516 265.5,-528 265.5,-528 265.5,-534 259.5,-540 253.5,-540"/>
<text text-anchor="middle" x="203" y="-519.5" font-family="sans" font-size="10.00">Trimmomatic_cleanup</text>
</g>
<!-- 4&#45;&gt;3 -->
<g id="edge11" class="edge">
<title>4&#45;&gt;3</title>
<path fill="none" stroke="grey" stroke-width="2" d="M202.4,-503.87C201.54,-479.67 199.98,-435.21 198.96,-406.39"/>
<polygon fill="grey" stroke="grey" stroke-width="2" points="202.46,-406.06 198.61,-396.19 195.46,-406.31 202.46,-406.06"/>
</g>
<!-- 7 -->
<g id="node8" class="node">
<title>7</title>
<path fill="none" stroke="#56a2d8" stroke-width="2" d="M505.5,-468C505.5,-468 444.5,-468 444.5,-468 438.5,-468 432.5,-462 432.5,-456 432.5,-456 432.5,-444 432.5,-444 432.5,-438 438.5,-432 444.5,-432 444.5,-432 505.5,-432 505.5,-432 511.5,-432 517.5,-438 517.5,-444 517.5,-444 517.5,-456 517.5,-456 517.5,-462 511.5,-468 505.5,-468"/>
<text text-anchor="middle" x="475" y="-447.5" font-family="sans" font-size="10.00">kallisto_quant</text>
</g>
<!-- 4&#45;&gt;7 -->
<g id="edge15" class="edge">
<title>4&#45;&gt;7</title>
<path fill="none" stroke="grey" stroke-width="2" d="M265.74,-504.85C313.29,-492.62 377.87,-476 422.66,-464.47"/>
<polygon fill="grey" stroke="grey" stroke-width="2" points="423.65,-467.83 432.47,-461.95 421.91,-461.05 423.65,-467.83"/>
</g>
<!-- 10 -->
<g id="node11" class="node">
<title>10</title>
<path fill="none" stroke="#56d88a" stroke-width="2" d="M322.5,-468C322.5,-468 275.5,-468 275.5,-468 269.5,-468 263.5,-462 263.5,-456 263.5,-456 263.5,-444 263.5,-444 263.5,-438 269.5,-432 275.5,-432 275.5,-432 322.5,-432 322.5,-432 328.5,-432 334.5,-438 334.5,-444 334.5,-444 334.5,-456 334.5,-456 334.5,-462 328.5,-468 322.5,-468"/>
<text text-anchor="middle" x="299" y="-447.5" font-family="sans" font-size="10.00">STAR_align</text>
</g>
<!-- 4&#45;&gt;10 -->
<g id="edge18" class="edge">
<title>4&#45;&gt;10</title>
<path fill="none" stroke="grey" stroke-width="2" d="M226.73,-503.7C238.94,-494.8 253.99,-483.82 267.18,-474.2"/>
<polygon fill="grey" stroke="grey" stroke-width="2" points="269.52,-476.82 275.54,-468.1 265.4,-471.17 269.52,-476.82"/>
</g>
<!-- 5 -->
<g id="node6" class="node">
<title>5</title>
<path fill="none" stroke="#d8a456" stroke-width="2" d="M86,-612C86,-612 12,-612 12,-612 6,-612 0,-606 0,-600 0,-600 0,-588 0,-588 0,-582 6,-576 12,-576 12,-576 86,-576 86,-576 92,-576 98,-582 98,-588 98,-588 98,-600 98,-600 98,-606 92,-612 86,-612"/>
<text text-anchor="middle" x="49" y="-591.5" font-family="sans" font-size="10.00">Trimmomatic_SE</text>
</g>
<!-- 5&#45;&gt;1 -->
<g id="edge8" class="edge">
<title>5&#45;&gt;1</title>
<path fill="none" stroke="grey" stroke-width="2" d="M48.26,-575.82C47.37,-533.9 50.76,-425 105,-360 125.96,-334.88 161.18,-321.26 188.06,-314.15"/>
<polygon fill="grey" stroke="grey" stroke-width="2" points="189.03,-317.52 197.91,-311.73 187.36,-310.72 189.03,-317.52"/>
</g>
<!-- 5&#45;&gt;4 -->
<g id="edge13" class="edge">
<title>5&#45;&gt;4</title>
<path fill="none" stroke="grey" stroke-width="2" d="M86.67,-575.88C107.63,-566.35 133.9,-554.41 156.18,-544.28"/>
<polygon fill="grey" stroke="grey" stroke-width="2" points="157.79,-547.39 165.45,-540.07 154.9,-541.02 157.79,-547.39"/>
</g>
<!-- 6 -->
<g id="node7" class="node">
<title>6</title>
<path fill="none" stroke="#d86e56" stroke-width="2" d="M217,-612C217,-612 143,-612 143,-612 137,-612 131,-606 131,-600 131,-600 131,-588 131,-588 131,-582 137,-576 143,-576 143,-576 217,-576 217,-576 223,-576 229,-582 229,-588 229,-588 229,-600 229,-600 229,-606 223,-612 217,-612"/>
<text text-anchor="middle" x="180" y="-591.5" font-family="sans" font-size="10.00">Trimmomatic_PE</text>
</g>
<!-- 6&#45;&gt;1 -->
<g id="edge5" class="edge">
<title>6&#45;&gt;1</title>
<path fill="none" stroke="grey" stroke-width="2" d="M161.45,-575.63C151.77,-565.84 140.25,-553 132,-540 105.31,-497.93 93.11,-481.02 102,-432 108.1,-398.37 106.66,-385.86 129,-360 144.83,-341.68 168.63,-328.48 188.57,-319.84"/>
<polygon fill="grey" stroke="grey" stroke-width="2" points="190.08,-323 197.99,-315.96 187.41,-316.53 190.08,-323"/>
</g>
<!-- 6&#45;&gt;4 -->
<g id="edge12" class="edge">
<title>6&#45;&gt;4</title>
<path fill="none" stroke="grey" stroke-width="2" d="M185.69,-575.7C188.25,-567.9 191.33,-558.51 194.18,-549.83"/>
<polygon fill="grey" stroke="grey" stroke-width="2" points="197.58,-550.7 197.38,-540.1 190.93,-548.51 197.58,-550.7"/>
</g>
<!-- 7&#45;&gt;1 -->
<g id="edge6" class="edge">
<title>7&#45;&gt;1</title>
<path fill="none" stroke="grey" stroke-width="2" d="M476.4,-431.74C477.02,-411.72 474.74,-379.02 456,-360 442.42,-346.21 324.06,-324.07 262.25,-313.3"/>
<polygon fill="grey" stroke="grey" stroke-width="2" points="262.57,-309.8 252.12,-311.54 261.38,-316.7 262.57,-309.8"/>
</g>
<!-- 19 -->
<g id="node20" class="node">
<title>19</title>
<path fill="none" stroke="#56d0d8" stroke-width="2" d="M605,-396C605,-396 515,-396 515,-396 509,-396 503,-390 503,-384 503,-384 503,-372 503,-372 503,-366 509,-360 515,-360 515,-360 605,-360 605,-360 611,-360 617,-366 617,-372 617,-372 617,-384 617,-384 617,-390 611,-396 605,-396"/>
<text text-anchor="middle" x="560" y="-375.5" font-family="sans" font-size="10.00">tximport_and_setup</text>
</g>
<!-- 7&#45;&gt;19 -->
<g id="edge31" class="edge">
<title>7&#45;&gt;19</title>
<path fill="none" stroke="grey" stroke-width="2" d="M496.01,-431.7C506.72,-422.88 519.89,-412.03 531.5,-402.47"/>
<polygon fill="grey" stroke="grey" stroke-width="2" points="533.74,-405.16 539.23,-396.1 529.29,-399.76 533.74,-405.16"/>
</g>
<!-- 8 -->
<g id="node9" class="node">
<title>8</title>
<path fill="none" stroke="#d6d856" stroke-width="2" d="M646,-540C646,-540 586,-540 586,-540 580,-540 574,-534 574,-528 574,-528 574,-516 574,-516 574,-510 580,-504 586,-504 586,-504 646,-504 646,-504 652,-504 658,-510 658,-516 658,-516 658,-528 658,-528 658,-534 652,-540 646,-540"/>
<text text-anchor="middle" x="616" y="-519.5" font-family="sans" font-size="10.00">kallisto_index</text>
</g>
<!-- 8&#45;&gt;7 -->
<g id="edge14" class="edge">
<title>8&#45;&gt;7</title>
<path fill="none" stroke="grey" stroke-width="2" d="M581.51,-503.88C562.56,-494.47 538.87,-482.71 518.64,-472.67"/>
<polygon fill="grey" stroke="grey" stroke-width="2" points="520.14,-469.5 509.63,-468.19 517.03,-475.77 520.14,-469.5"/>
</g>
<!-- 9 -->
<g id="node10" class="node">
<title>9</title>
<path fill="none" stroke="#59d856" stroke-width="2" d="M662.5,-612C662.5,-612 569.5,-612 569.5,-612 563.5,-612 557.5,-606 557.5,-600 557.5,-600 557.5,-588 557.5,-588 557.5,-582 563.5,-576 569.5,-576 569.5,-576 662.5,-576 662.5,-576 668.5,-576 674.5,-582 674.5,-588 674.5,-588 674.5,-600 674.5,-600 674.5,-606 668.5,-612 662.5,-612"/>
<text text-anchor="middle" x="616" y="-591.5" font-family="sans" font-size="10.00">cdna_fasta_handling</text>
</g>
<!-- 9&#45;&gt;8 -->
<g id="edge16" class="edge">
<title>9&#45;&gt;8</title>
<path fill="none" stroke="grey" stroke-width="2" d="M616,-575.7C616,-567.98 616,-558.71 616,-550.11"/>
<polygon fill="grey" stroke="grey" stroke-width="2" points="619.5,-550.1 616,-540.1 612.5,-550.1 619.5,-550.1"/>
</g>
<!-- 10&#45;&gt;1 -->
<g id="edge3" class="edge">
<title>10&#45;&gt;1</title>
<path fill="none" stroke="grey" stroke-width="2" d="M291.15,-431.74C282.82,-413.66 269.07,-384.53 256,-360 251.29,-351.16 245.86,-341.66 240.87,-333.19"/>
<polygon fill="grey" stroke="grey" stroke-width="2" points="243.81,-331.28 235.69,-324.47 237.79,-334.85 243.81,-331.28"/>
</g>
<!-- 15 -->
<g id="node16" class="node">
<title>15</title>
<path fill="none" stroke="#88d856" stroke-width="2" d="M435,-396C435,-396 315,-396 315,-396 309,-396 303,-390 303,-384 303,-384 303,-372 303,-372 303,-366 309,-360 315,-360 315,-360 435,-360 435,-360 441,-360 447,-366 447,-372 447,-372 447,-384 447,-384 447,-390 441,-396 435,-396"/>
<text text-anchor="middle" x="375" y="-375.5" font-family="sans" font-size="10.00">featureCounts_gene_level</text>
</g>
<!-- 10&#45;&gt;15 -->
<g id="edge22" class="edge">
<title>10&#45;&gt;15</title>
<path fill="none" stroke="grey" stroke-width="2" d="M317.79,-431.7C327.17,-423.05 338.68,-412.45 348.91,-403.03"/>
<polygon fill="grey" stroke="grey" stroke-width="2" points="351.45,-405.45 356.43,-396.1 346.7,-400.3 351.45,-405.45"/>
</g>
<!-- 11 -->
<g id="node12" class="node">
<title>11</title>
<path fill="none" stroke="#56c1d8" stroke-width="2" d="M346,-540C346,-540 296,-540 296,-540 290,-540 284,-534 284,-528 284,-528 284,-516 284,-516 284,-510 290,-504 296,-504 296,-504 346,-504 346,-504 352,-504 358,-510 358,-516 358,-516 358,-528 358,-528 358,-534 352,-540 346,-540"/>
<text text-anchor="middle" x="321" y="-519.5" font-family="sans" font-size="10.00">STAR_index</text>
</g>
<!-- 11&#45;&gt;10 -->
<g id="edge17" class="edge">
<title>11&#45;&gt;10</title>
<path fill="none" stroke="grey" stroke-width="2" d="M315.56,-503.7C313.11,-495.9 310.16,-486.51 307.43,-477.83"/>
<polygon fill="grey" stroke="grey" stroke-width="2" points="310.71,-476.59 304.38,-468.1 304.04,-478.69 310.71,-476.59"/>
</g>
<!-- 12 -->
<g id="node13" class="node">
<title>12</title>
<path fill="none" stroke="#78d856" stroke-width="2" d="M355,-612C355,-612 267,-612 267,-612 261,-612 255,-606 255,-600 255,-600 255,-588 255,-588 255,-582 261,-576 267,-576 267,-576 355,-576 355,-576 361,-576 367,-582 367,-588 367,-588 367,-600 367,-600 367,-606 361,-612 355,-612"/>
<text text-anchor="middle" x="311" y="-591.5" font-family="sans" font-size="10.00">gen_fasta_handling</text>
</g>
<!-- 12&#45;&gt;11 -->
<g id="edge19" class="edge">
<title>12&#45;&gt;11</title>
<path fill="none" stroke="grey" stroke-width="2" d="M313.47,-575.7C314.57,-567.98 315.9,-558.71 317.13,-550.11"/>
<polygon fill="grey" stroke="grey" stroke-width="2" points="320.61,-550.5 318.56,-540.1 313.68,-549.51 320.61,-550.5"/>
</g>
<!-- 13 -->
<g id="node14" class="node">
<title>13</title>
<path fill="none" stroke="#d8cb56" stroke-width="2" d="M523,-612C523,-612 397,-612 397,-612 391,-612 385,-606 385,-600 385,-600 385,-588 385,-588 385,-582 391,-576 397,-576 397,-576 523,-576 523,-576 529,-576 535,-582 535,-588 535,-588 535,-600 535,-600 535,-606 529,-612 523,-612"/>
<text text-anchor="middle" x="460" y="-591.5" font-family="sans" font-size="10.00">annotation_standardization</text>
</g>
<!-- 13&#45;&gt;11 -->
<g id="edge20" class="edge">
<title>13&#45;&gt;11</title>
<path fill="none" stroke="grey" stroke-width="2" d="M426,-575.88C407.4,-566.51 384.17,-554.81 364.29,-544.8"/>
<polygon fill="grey" stroke="grey" stroke-width="2" points="365.64,-541.56 355.13,-540.19 362.49,-547.81 365.64,-541.56"/>
</g>
<!-- 13&#45;&gt;15 -->
<g id="edge23" class="edge">
<title>13&#45;&gt;15</title>
<path fill="none" stroke="grey" stroke-width="2" d="M453.19,-575.85C438.39,-538.6 403.23,-450.07 385.54,-405.54"/>
<polygon fill="grey" stroke="grey" stroke-width="2" points="388.79,-404.23 381.84,-396.23 382.28,-406.82 388.79,-404.23"/>
</g>
<!-- 13&#45;&gt;19 -->
<g id="edge32" class="edge">
<title>13&#45;&gt;19</title>
<path fill="none" stroke="grey" stroke-width="2" d="M470.09,-575.99C483.92,-552.28 509.09,-507.73 527,-468 536.27,-447.43 545.06,-423.41 551.24,-405.51"/>
<polygon fill="grey" stroke="grey" stroke-width="2" points="554.56,-406.6 554.47,-396.01 547.94,-404.35 554.56,-406.6"/>
</g>
<!-- 14 -->
<g id="node15" class="node">
<title>14</title>
<path fill="none" stroke="#56d8c9" stroke-width="2" d="M506,-684C506,-684 414,-684 414,-684 408,-684 402,-678 402,-672 402,-672 402,-660 402,-660 402,-654 408,-648 414,-648 414,-648 506,-648 506,-648 512,-648 518,-654 518,-660 518,-660 518,-672 518,-672 518,-678 512,-684 506,-684"/>
<text text-anchor="middle" x="460" y="-663.5" font-family="sans" font-size="10.00">annotation_handling</text>
</g>
<!-- 14&#45;&gt;13 -->
<g id="edge21" class="edge">
<title>14&#45;&gt;13</title>
<path fill="none" stroke="grey" stroke-width="2" d="M460,-647.7C460,-639.98 460,-630.71 460,-622.11"/>
<polygon fill="grey" stroke="grey" stroke-width="2" points="463.5,-622.1 460,-612.1 456.5,-622.1 463.5,-622.1"/>
</g>
<!-- 15&#45;&gt;1 -->
<g id="edge9" class="edge">
<title>15&#45;&gt;1</title>
<path fill="none" stroke="grey" stroke-width="2" d="M338.31,-359.88C314.98,-348.99 284.9,-334.95 261.59,-324.07"/>
<polygon fill="grey" stroke="grey" stroke-width="2" points="262.92,-320.83 252.38,-319.78 259.96,-327.18 262.92,-320.83"/>
</g>
<!-- 21 -->
<g id="node22" class="node">
<title>21</title>
<path fill="none" stroke="#56d892" stroke-width="2" d="M424,-324C424,-324 362,-324 362,-324 356,-324 350,-318 350,-312 350,-312 350,-300 350,-300 350,-294 356,-288 362,-288 362,-288 424,-288 424,-288 430,-288 436,-294 436,-300 436,-300 436,-312 436,-312 436,-318 430,-324 424,-324"/>
<text text-anchor="middle" x="393" y="-303.5" font-family="sans" font-size="10.00">merge_counts</text>
</g>
<!-- 15&#45;&gt;21 -->
<g id="edge34" class="edge">
<title>15&#45;&gt;21</title>
<path fill="none" stroke="grey" stroke-width="2" d="M379.45,-359.7C381.45,-351.9 383.87,-342.51 386.1,-333.83"/>
<polygon fill="grey" stroke="grey" stroke-width="2" points="389.5,-334.66 388.6,-324.1 382.72,-332.92 389.5,-334.66"/>
</g>
<!-- 16 -->
<g id="node17" class="node">
<title>16</title>
<path fill="none" stroke="#9fd856" stroke-width="2" d="M739.5,-108C739.5,-108 668.5,-108 668.5,-108 662.5,-108 656.5,-102 656.5,-96 656.5,-96 656.5,-84 656.5,-84 656.5,-78 662.5,-72 668.5,-72 668.5,-72 739.5,-72 739.5,-72 745.5,-72 751.5,-78 751.5,-84 751.5,-84 751.5,-96 751.5,-96 751.5,-102 745.5,-108 739.5,-108"/>
<text text-anchor="middle" x="704" y="-87.5" font-family="sans" font-size="10.00">final_tea_output</text>
</g>
<!-- 16&#45;&gt;0 -->
<g id="edge1" class="edge">
<title>16&#45;&gt;0</title>
<path fill="none" stroke="grey" stroke-width="2" d="M656.34,-78.06C595.59,-64.12 491.8,-40.3 436.42,-27.59"/>
<polygon fill="grey" stroke="grey" stroke-width="2" points="436.86,-24.1 426.34,-25.27 435.3,-30.92 436.86,-24.1"/>
</g>
<!-- 17 -->
<g id="node18" class="node">
<title>17</title>
<path fill="none" stroke="#d85656" stroke-width="2" d="M586.5,-180C586.5,-180 507.5,-180 507.5,-180 501.5,-180 495.5,-174 495.5,-168 495.5,-168 495.5,-156 495.5,-156 495.5,-150 501.5,-144 507.5,-144 507.5,-144 586.5,-144 586.5,-144 592.5,-144 598.5,-150 598.5,-156 598.5,-156 598.5,-168 598.5,-168 598.5,-174 592.5,-180 586.5,-180"/>
<text text-anchor="middle" x="547" y="-159.5" font-family="sans" font-size="10.00">deseq2_complete</text>
</g>
<!-- 17&#45;&gt;16 -->
<g id="edge24" class="edge">
<title>17&#45;&gt;16</title>
<path fill="none" stroke="grey" stroke-width="2" d="M585.41,-143.88C606.87,-134.31 633.8,-122.3 656.57,-112.15"/>
<polygon fill="grey" stroke="grey" stroke-width="2" points="658.01,-115.34 665.72,-108.07 655.16,-108.94 658.01,-115.34"/>
</g>
<!-- 18 -->
<g id="node19" class="node">
<title>18</title>
<path fill="none" stroke="#97d856" stroke-width="2" d="M576.5,-252C576.5,-252 517.5,-252 517.5,-252 511.5,-252 505.5,-246 505.5,-240 505.5,-240 505.5,-228 505.5,-228 505.5,-222 511.5,-216 517.5,-216 517.5,-216 576.5,-216 576.5,-216 582.5,-216 588.5,-222 588.5,-228 588.5,-228 588.5,-240 588.5,-240 588.5,-246 582.5,-252 576.5,-252"/>
<text text-anchor="middle" x="547" y="-231.5" font-family="sans" font-size="10.00">cdna_DESeq2</text>
</g>
<!-- 18&#45;&gt;17 -->
<g id="edge29" class="edge">
<title>18&#45;&gt;17</title>
<path fill="none" stroke="grey" stroke-width="2" d="M547,-215.7C547,-207.98 547,-198.71 547,-190.11"/>
<polygon fill="grey" stroke="grey" stroke-width="2" points="550.5,-190.1 547,-180.1 543.5,-190.1 550.5,-190.1"/>
</g>
<!-- 19&#45;&gt;18 -->
<g id="edge30" class="edge">
<title>19&#45;&gt;18</title>
<path fill="none" stroke="grey" stroke-width="2" d="M558.43,-359.87C556.22,-335.67 552.15,-291.21 549.51,-262.39"/>
<polygon fill="grey" stroke="grey" stroke-width="2" points="552.97,-261.83 548.57,-252.19 546,-262.47 552.97,-261.83"/>
</g>
<!-- 20 -->
<g id="node21" class="node">
<title>20</title>
<path fill="none" stroke="#d88556" stroke-width="2" d="M438.5,-252C438.5,-252 385.5,-252 385.5,-252 379.5,-252 373.5,-246 373.5,-240 373.5,-240 373.5,-228 373.5,-228 373.5,-222 379.5,-216 385.5,-216 385.5,-216 438.5,-216 438.5,-216 444.5,-216 450.5,-222 450.5,-228 450.5,-228 450.5,-240 450.5,-240 450.5,-246 444.5,-252 438.5,-252"/>
<text text-anchor="middle" x="412" y="-231.5" font-family="sans" font-size="10.00">gen_DESeq2</text>
</g>
<!-- 20&#45;&gt;17 -->
<g id="edge28" class="edge">
<title>20&#45;&gt;17</title>
<path fill="none" stroke="grey" stroke-width="2" d="M445.02,-215.88C463.08,-206.51 485.65,-194.81 504.95,-184.8"/>
<polygon fill="grey" stroke="grey" stroke-width="2" points="506.58,-187.9 513.85,-180.19 503.36,-181.69 506.58,-187.9"/>
</g>
<!-- 21&#45;&gt;20 -->
<g id="edge33" class="edge">
<title>21&#45;&gt;20</title>
<path fill="none" stroke="grey" stroke-width="2" d="M397.7,-287.7C399.81,-279.9 402.36,-270.51 404.72,-261.83"/>
<polygon fill="grey" stroke="grey" stroke-width="2" points="408.12,-262.67 407.36,-252.1 401.36,-260.84 408.12,-262.67"/>
</g>
<!-- 22 -->
<g id="node23" class="node">
<title>22</title>
<path fill="none" stroke="#568ad8" stroke-width="2" d="M905.5,-396C905.5,-396 862.5,-396 862.5,-396 856.5,-396 850.5,-390 850.5,-384 850.5,-384 850.5,-372 850.5,-372 850.5,-366 856.5,-360 862.5,-360 862.5,-360 905.5,-360 905.5,-360 911.5,-360 917.5,-366 917.5,-372 917.5,-372 917.5,-384 917.5,-384 917.5,-390 911.5,-396 905.5,-396"/>
<text text-anchor="middle" x="884" y="-375.5" font-family="sans" font-size="10.00">expansion</text>
</g>
<!-- 49 -->
<g id="node50" class="node">
<title>49</title>
<path fill="none" stroke="#56d8b9" stroke-width="2" d="M950.5,-252C950.5,-252 817.5,-252 817.5,-252 811.5,-252 805.5,-246 805.5,-240 805.5,-240 805.5,-228 805.5,-228 805.5,-222 811.5,-216 817.5,-216 817.5,-216 950.5,-216 950.5,-216 956.5,-216 962.5,-222 962.5,-228 962.5,-228 962.5,-240 962.5,-240 962.5,-246 956.5,-252 950.5,-252"/>
<text text-anchor="middle" x="884" y="-231.5" font-family="sans" font-size="10.00">expansion_checkpoint_finish</text>
</g>
<!-- 22&#45;&gt;49 -->
<g id="edge69" class="edge">
<title>22&#45;&gt;49</title>
<path fill="none" stroke="grey" stroke-width="2" d="M884,-359.87C884,-335.67 884,-291.21 884,-262.39"/>
<polygon fill="grey" stroke="grey" stroke-width="2" points="887.5,-262.19 884,-252.19 880.5,-262.19 887.5,-262.19"/>
</g>
<!-- 23 -->
<g id="node24" class="node">
<title>23</title>
<path fill="none" stroke="#56c9d8" stroke-width="2" d="M998,-468C998,-468 888,-468 888,-468 882,-468 876,-462 876,-456 876,-456 876,-444 876,-444 876,-438 882,-432 888,-432 888,-432 998,-432 998,-432 1004,-432 1010,-438 1010,-444 1010,-444 1010,-456 1010,-456 1010,-462 1004,-468 998,-468"/>
<text text-anchor="middle" x="943" y="-447.5" font-family="sans" font-size="10.00">expansion_computation</text>
</g>
<!-- 23&#45;&gt;22 -->
<g id="edge36" class="edge">
<title>23&#45;&gt;22</title>
<path fill="none" stroke="grey" stroke-width="2" d="M928.42,-431.7C921.34,-423.3 912.72,-413.07 904.95,-403.86"/>
<polygon fill="grey" stroke="grey" stroke-width="2" points="907.54,-401.49 898.42,-396.1 902.19,-406.01 907.54,-401.49"/>
</g>
<!-- 24 -->
<g id="node25" class="node">
<title>24</title>
<path fill="none" stroke="#56d8c1" stroke-width="2" d="M843,-540C843,-540 745,-540 745,-540 739,-540 733,-534 733,-528 733,-528 733,-516 733,-516 733,-510 739,-504 745,-504 745,-504 843,-504 843,-504 849,-504 855,-510 855,-516 855,-516 855,-528 855,-528 855,-534 849,-540 843,-540"/>
<text text-anchor="middle" x="794" y="-519.5" font-family="sans" font-size="10.00">Orthofinder_complete</text>
</g>
<!-- 24&#45;&gt;23 -->
<g id="edge37" class="edge">
<title>24&#45;&gt;23</title>
<path fill="none" stroke="grey" stroke-width="2" d="M830.45,-503.88C850.64,-494.39 875.92,-482.51 897.41,-472.42"/>
<polygon fill="grey" stroke="grey" stroke-width="2" points="899.11,-475.49 906.67,-468.07 896.13,-469.15 899.11,-475.49"/>
</g>
<!-- 38 -->
<g id="node39" class="node">
<title>38</title>
<path fill="none" stroke="#566bd8" stroke-width="2" d="M845.5,-468C845.5,-468 744.5,-468 744.5,-468 738.5,-468 732.5,-462 732.5,-456 732.5,-456 732.5,-444 732.5,-444 732.5,-438 738.5,-432 744.5,-432 744.5,-432 845.5,-432 845.5,-432 851.5,-432 857.5,-438 857.5,-444 857.5,-444 857.5,-456 857.5,-456 857.5,-462 851.5,-468 845.5,-468"/>
<text text-anchor="middle" x="795" y="-447.5" font-family="sans" font-size="10.00">create_superset_fasta</text>
</g>
<!-- 24&#45;&gt;38 -->
<g id="edge53" class="edge">
<title>24&#45;&gt;38</title>
<path fill="none" stroke="grey" stroke-width="2" d="M794.25,-503.7C794.36,-495.98 794.49,-486.71 794.61,-478.11"/>
<polygon fill="grey" stroke="grey" stroke-width="2" points="798.11,-478.15 794.76,-468.1 791.11,-478.05 798.11,-478.15"/>
</g>
<!-- 41 -->
<g id="node42" class="node">
<title>41</title>
<path fill="none" stroke="#b6d856" stroke-width="2" d="M702,-468C702,-468 650,-468 650,-468 644,-468 638,-462 638,-456 638,-456 638,-444 638,-444 638,-438 644,-432 650,-432 650,-432 702,-432 702,-432 708,-432 714,-438 714,-444 714,-444 714,-456 714,-456 714,-462 708,-468 702,-468"/>
<text text-anchor="middle" x="676" y="-447.5" font-family="sans" font-size="10.00">cafe5_setup</text>
</g>
<!-- 24&#45;&gt;41 -->
<g id="edge59" class="edge">
<title>24&#45;&gt;41</title>
<path fill="none" stroke="grey" stroke-width="2" d="M765.13,-503.88C749.71,-494.72 730.52,-483.34 713.9,-473.48"/>
<polygon fill="grey" stroke="grey" stroke-width="2" points="715.36,-470.28 704.98,-468.19 711.79,-476.3 715.36,-470.28"/>
</g>
<!-- 25 -->
<g id="node26" class="node">
<title>25</title>
<path fill="none" stroke="#56b1d8" stroke-width="2" d="M852,-612C852,-612 734,-612 734,-612 728,-612 722,-606 722,-600 722,-600 722,-588 722,-588 722,-582 728,-576 734,-576 734,-576 852,-576 852,-576 858,-576 864,-582 864,-588 864,-588 864,-600 864,-600 864,-606 858,-612 852,-612"/>
<text text-anchor="middle" x="793" y="-591.5" font-family="sans" font-size="10.00">hypothesis_species_trees</text>
</g>
<!-- 25&#45;&gt;24 -->
<g id="edge38" class="edge">
<title>25&#45;&gt;24</title>
<path fill="none" stroke="grey" stroke-width="2" d="M793.25,-575.7C793.36,-567.98 793.49,-558.71 793.61,-550.11"/>
<polygon fill="grey" stroke="grey" stroke-width="2" points="797.11,-550.15 793.76,-540.1 790.11,-550.05 797.11,-550.15"/>
</g>
<!-- 26 -->
<g id="node27" class="node">
<title>26</title>
<path fill="none" stroke="#56d863" stroke-width="2" d="M835.5,-684C835.5,-684 744.5,-684 744.5,-684 738.5,-684 732.5,-678 732.5,-672 732.5,-672 732.5,-660 732.5,-660 732.5,-654 738.5,-648 744.5,-648 744.5,-648 835.5,-648 835.5,-648 841.5,-648 847.5,-654 847.5,-660 847.5,-660 847.5,-672 847.5,-672 847.5,-678 841.5,-684 835.5,-684"/>
<text text-anchor="middle" x="790" y="-663.5" font-family="sans" font-size="10.00">Orthofinder_cleanup</text>
</g>
<!-- 26&#45;&gt;25 -->
<g id="edge39" class="edge">
<title>26&#45;&gt;25</title>
<path fill="none" stroke="grey" stroke-width="2" d="M790.74,-647.7C791.07,-639.98 791.47,-630.71 791.84,-622.11"/>
<polygon fill="grey" stroke="grey" stroke-width="2" points="795.34,-622.25 792.27,-612.1 788.34,-621.95 795.34,-622.25"/>
</g>
<!-- 27 -->
<g id="node28" class="node">
<title>27</title>
<path fill="none" stroke="#d87556" stroke-width="2" d="M843,-756C843,-756 733,-756 733,-756 727,-756 721,-750 721,-744 721,-744 721,-732 721,-732 721,-726 727,-720 733,-720 733,-720 843,-720 843,-720 849,-720 855,-726 855,-732 855,-732 855,-744 855,-744 855,-750 849,-756 843,-756"/>
<text text-anchor="middle" x="788" y="-735.5" font-family="sans" font-size="10.00">Orthofinder_orthologues</text>
</g>
<!-- 27&#45;&gt;26 -->
<g id="edge40" class="edge">
<title>27&#45;&gt;26</title>
<path fill="none" stroke="grey" stroke-width="2" d="M788.49,-719.7C788.71,-711.98 788.98,-702.71 789.23,-694.11"/>
<polygon fill="grey" stroke="grey" stroke-width="2" points="792.72,-694.2 789.51,-684.1 785.73,-694 792.72,-694.2"/>
</g>
<!-- 28 -->
<g id="node29" class="node">
<title>28</title>
<path fill="none" stroke="#d89556" stroke-width="2" d="M827,-828C827,-828 749,-828 749,-828 743,-828 737,-822 737,-816 737,-816 737,-804 737,-804 737,-798 743,-792 749,-792 749,-792 827,-792 827,-792 833,-792 839,-798 839,-804 839,-804 839,-816 839,-816 839,-822 833,-828 827,-828"/>
<text text-anchor="middle" x="788" y="-807.5" font-family="sans" font-size="10.00">Orthofinder_Trees</text>
</g>
<!-- 28&#45;&gt;27 -->
<g id="edge41" class="edge">
<title>28&#45;&gt;27</title>
<path fill="none" stroke="grey" stroke-width="2" d="M788,-791.7C788,-783.98 788,-774.71 788,-766.11"/>
<polygon fill="grey" stroke="grey" stroke-width="2" points="791.5,-766.1 788,-756.1 784.5,-766.1 791.5,-766.1"/>
</g>
<!-- 29 -->
<g id="node30" class="node">
<title>29</title>
<path fill="none" stroke="#56d8b1" stroke-width="2" d="M843.5,-900C843.5,-900 732.5,-900 732.5,-900 726.5,-900 720.5,-894 720.5,-888 720.5,-888 720.5,-876 720.5,-876 720.5,-870 726.5,-864 732.5,-864 732.5,-864 843.5,-864 843.5,-864 849.5,-864 855.5,-870 855.5,-876 855.5,-876 855.5,-888 855.5,-888 855.5,-894 849.5,-900 843.5,-900"/>
<text text-anchor="middle" x="788" y="-879.5" font-family="sans" font-size="10.00">Orthofinder_orthogroups</text>
</g>
<!-- 29&#45;&gt;28 -->
<g id="edge42" class="edge">
<title>29&#45;&gt;28</title>
<path fill="none" stroke="grey" stroke-width="2" d="M788,-863.7C788,-855.98 788,-846.71 788,-838.11"/>
<polygon fill="grey" stroke="grey" stroke-width="2" points="791.5,-838.1 788,-828.1 784.5,-838.1 791.5,-838.1"/>
</g>
<!-- 30 -->
<g id="node31" class="node">
<title>30</title>
<path fill="none" stroke="#a7d856" stroke-width="2" d="M851.5,-972C851.5,-972 724.5,-972 724.5,-972 718.5,-972 712.5,-966 712.5,-960 712.5,-960 712.5,-948 712.5,-948 712.5,-942 718.5,-936 724.5,-936 724.5,-936 851.5,-936 851.5,-936 857.5,-936 863.5,-942 863.5,-948 863.5,-948 863.5,-960 863.5,-960 863.5,-966 857.5,-972 851.5,-972"/>
<text text-anchor="middle" x="788" y="-951.5" font-family="sans" font-size="10.00">Orthofinder_BLASTP_merge</text>
</g>
<!-- 30&#45;&gt;29 -->
<g id="edge43" class="edge">
<title>30&#45;&gt;29</title>
<path fill="none" stroke="grey" stroke-width="2" d="M788,-935.7C788,-927.98 788,-918.71 788,-910.11"/>
<polygon fill="grey" stroke="grey" stroke-width="2" points="791.5,-910.1 788,-900.1 784.5,-910.1 791.5,-910.1"/>
</g>
<!-- 31 -->
<g id="node32" class="node">
<title>31</title>
<path fill="none" stroke="#567bd8" stroke-width="2" d="M832,-1044C832,-1044 742,-1044 742,-1044 736,-1044 730,-1038 730,-1032 730,-1032 730,-1020 730,-1020 730,-1014 736,-1008 742,-1008 742,-1008 832,-1008 832,-1008 838,-1008 844,-1014 844,-1020 844,-1020 844,-1032 844,-1032 844,-1038 838,-1044 832,-1044"/>
<text text-anchor="middle" x="787" y="-1023.5" font-family="sans" font-size="10.00">Orthofinder_BLASTP</text>
</g>
<!-- 31&#45;&gt;30 -->
<g id="edge44" class="edge">
<title>31&#45;&gt;30</title>
<path fill="none" stroke="grey" stroke-width="2" d="M787.25,-1007.7C787.36,-999.98 787.49,-990.71 787.61,-982.11"/>
<polygon fill="grey" stroke="grey" stroke-width="2" points="791.11,-982.15 787.76,-972.1 784.11,-982.05 791.11,-982.15"/>
</g>
<!-- 32 -->
<g id="node33" class="node">
<title>32</title>
<path fill="none" stroke="#d8c356" stroke-width="2" d="M794,-1260C794,-1260 704,-1260 704,-1260 698,-1260 692,-1254 692,-1248 692,-1248 692,-1236 692,-1236 692,-1230 698,-1224 704,-1224 704,-1224 794,-1224 794,-1224 800,-1224 806,-1230 806,-1236 806,-1236 806,-1248 806,-1248 806,-1254 800,-1260 794,-1260"/>
<text text-anchor="middle" x="749" y="-1239.5" font-family="sans" font-size="10.00">Orthofinder_prepare</text>
</g>
<!-- 32&#45;&gt;31 -->
<g id="edge47" class="edge">
<title>32&#45;&gt;31</title>
<path fill="none" stroke="grey" stroke-width="2" d="M752.05,-1223.85C758.63,-1186.75 774.25,-1098.81 782.19,-1054.1"/>
<polygon fill="grey" stroke="grey" stroke-width="2" points="785.64,-1054.69 783.94,-1044.23 778.75,-1053.47 785.64,-1054.69"/>
</g>
<!-- 36 -->
<g id="node37" class="node">
<title>36</title>
<path fill="none" stroke="#d88d56" stroke-width="2" d="M872.5,-1188C872.5,-1188 789.5,-1188 789.5,-1188 783.5,-1188 777.5,-1182 777.5,-1176 777.5,-1176 777.5,-1164 777.5,-1164 777.5,-1158 783.5,-1152 789.5,-1152 789.5,-1152 872.5,-1152 872.5,-1152 878.5,-1152 884.5,-1158 884.5,-1164 884.5,-1164 884.5,-1176 884.5,-1176 884.5,-1182 878.5,-1188 872.5,-1188"/>
<text text-anchor="middle" x="831" y="-1167.5" font-family="sans" font-size="10.00">index_pep_FASTAs</text>
</g>
<!-- 32&#45;&gt;36 -->
<g id="edge51" class="edge">
<title>32&#45;&gt;36</title>
<path fill="none" stroke="grey" stroke-width="2" d="M769.27,-1223.7C779.5,-1214.97 792.06,-1204.24 803.18,-1194.75"/>
<polygon fill="grey" stroke="grey" stroke-width="2" points="805.63,-1197.26 810.96,-1188.1 801.09,-1191.94 805.63,-1197.26"/>
</g>
<!-- 33 -->
<g id="node34" class="node">
<title>33</title>
<path fill="none" stroke="#68d856" stroke-width="2" d="M789,-1332C789,-1332 701,-1332 701,-1332 695,-1332 689,-1326 689,-1320 689,-1320 689,-1308 689,-1308 689,-1302 695,-1296 701,-1296 701,-1296 789,-1296 789,-1296 795,-1296 801,-1302 801,-1308 801,-1308 801,-1320 801,-1320 801,-1326 795,-1332 789,-1332"/>
<text text-anchor="middle" x="745" y="-1311.5" font-family="sans" font-size="10.00">Orthofinder_link_all</text>
</g>
<!-- 33&#45;&gt;32 -->
<g id="edge48" class="edge">
<title>33&#45;&gt;32</title>
<path fill="none" stroke="grey" stroke-width="2" d="M745.99,-1295.7C746.43,-1287.98 746.96,-1278.71 747.45,-1270.11"/>
<polygon fill="grey" stroke="grey" stroke-width="2" points="750.95,-1270.29 748.02,-1260.1 743.96,-1269.89 750.95,-1270.29"/>
</g>
<!-- 34 -->
<g id="node35" class="node">
<title>34</title>
<path fill="none" stroke="#d85e56" stroke-width="2" d="M777.5,-1404C777.5,-1404 714.5,-1404 714.5,-1404 708.5,-1404 702.5,-1398 702.5,-1392 702.5,-1392 702.5,-1380 702.5,-1380 702.5,-1374 708.5,-1368 714.5,-1368 714.5,-1368 777.5,-1368 777.5,-1368 783.5,-1368 789.5,-1374 789.5,-1380 789.5,-1380 789.5,-1392 789.5,-1392 789.5,-1398 783.5,-1404 777.5,-1404"/>
<text text-anchor="middle" x="746" y="-1383.5" font-family="sans" font-size="10.00">filter_isoforms</text>
</g>
<!-- 34&#45;&gt;33 -->
<g id="edge49" class="edge">
<title>34&#45;&gt;33</title>
<path fill="none" stroke="grey" stroke-width="2" d="M745.75,-1367.7C745.64,-1359.98 745.51,-1350.71 745.39,-1342.11"/>
<polygon fill="grey" stroke="grey" stroke-width="2" points="748.89,-1342.05 745.24,-1332.1 741.89,-1342.15 748.89,-1342.05"/>
</g>
<!-- 45 -->
<g id="node46" class="node">
<title>45</title>
<path fill="none" stroke="#d87d56" stroke-width="2" d="M944.5,-1332C944.5,-1332 831.5,-1332 831.5,-1332 825.5,-1332 819.5,-1326 819.5,-1320 819.5,-1320 819.5,-1308 819.5,-1308 819.5,-1302 825.5,-1296 831.5,-1296 831.5,-1296 944.5,-1296 944.5,-1296 950.5,-1296 956.5,-1302 956.5,-1308 956.5,-1308 956.5,-1320 956.5,-1320 956.5,-1326 950.5,-1332 944.5,-1332"/>
<text text-anchor="middle" x="888" y="-1311.5" font-family="sans" font-size="10.00">create_ahrd_species_tsv</text>
</g>
<!-- 34&#45;&gt;45 -->
<g id="edge67" class="edge">
<title>34&#45;&gt;45</title>
<path fill="none" stroke="grey" stroke-width="2" d="M780.74,-1367.88C799.82,-1358.47 823.68,-1346.71 844.05,-1336.67"/>
<polygon fill="grey" stroke="grey" stroke-width="2" points="845.71,-1339.75 853.13,-1332.19 842.61,-1333.47 845.71,-1339.75"/>
</g>
<!-- 35 -->
<g id="node36" class="node">
<title>35</title>
<path fill="none" stroke="#56d8d0" stroke-width="2" d="M790,-1476C790,-1476 702,-1476 702,-1476 696,-1476 690,-1470 690,-1464 690,-1464 690,-1452 690,-1452 690,-1446 696,-1440 702,-1440 702,-1440 790,-1440 790,-1440 796,-1440 802,-1446 802,-1452 802,-1452 802,-1464 802,-1464 802,-1470 796,-1476 790,-1476"/>
<text text-anchor="middle" x="746" y="-1455.5" font-family="sans" font-size="10.00">pep_fasta_handling</text>
</g>
<!-- 35&#45;&gt;34 -->
<g id="edge50" class="edge">
<title>35&#45;&gt;34</title>
<path fill="none" stroke="grey" stroke-width="2" d="M746,-1439.7C746,-1431.98 746,-1422.71 746,-1414.11"/>
<polygon fill="grey" stroke="grey" stroke-width="2" points="749.5,-1414.1 746,-1404.1 742.5,-1414.1 749.5,-1414.1"/>
</g>
<!-- 36&#45;&gt;31 -->
<g id="edge45" class="edge">
<title>36&#45;&gt;31</title>
<path fill="none" stroke="grey" stroke-width="2" d="M821.62,-1151.75C816.41,-1141.59 810.16,-1128.34 806,-1116 799.15,-1095.7 794.22,-1071.93 791.11,-1054.06"/>
<polygon fill="grey" stroke="grey" stroke-width="2" points="794.53,-1053.33 789.44,-1044.04 787.63,-1054.48 794.53,-1053.33"/>
</g>
<!-- 37 -->
<g id="node38" class="node">
<title>37</title>
<path fill="none" stroke="#56d8a2" stroke-width="2" d="M901,-1116C901,-1116 827,-1116 827,-1116 821,-1116 815,-1110 815,-1104 815,-1104 815,-1092 815,-1092 815,-1086 821,-1080 827,-1080 827,-1080 901,-1080 901,-1080 907,-1080 913,-1086 913,-1092 913,-1092 913,-1104 913,-1104 913,-1110 907,-1116 901,-1116"/>
<text text-anchor="middle" x="864" y="-1095.5" font-family="sans" font-size="10.00">Orthofinder_split</text>
</g>
<!-- 36&#45;&gt;37 -->
<g id="edge52" class="edge">
<title>36&#45;&gt;37</title>
<path fill="none" stroke="grey" stroke-width="2" d="M839.16,-1151.7C842.91,-1143.73 847.45,-1134.1 851.62,-1125.26"/>
<polygon fill="grey" stroke="grey" stroke-width="2" points="854.84,-1126.64 855.94,-1116.1 848.51,-1123.66 854.84,-1126.64"/>
</g>
<!-- 37&#45;&gt;31 -->
<g id="edge46" class="edge">
<title>37&#45;&gt;31</title>
<path fill="none" stroke="grey" stroke-width="2" d="M844.97,-1079.7C835.46,-1071.05 823.79,-1060.45 813.43,-1051.03"/>
<polygon fill="grey" stroke="grey" stroke-width="2" points="815.57,-1048.24 805.81,-1044.1 810.86,-1053.42 815.57,-1048.24"/>
</g>
<!-- 38&#45;&gt;22 -->
<g id="edge35" class="edge">
<title>38&#45;&gt;22</title>
<path fill="none" stroke="grey" stroke-width="2" d="M817,-431.7C828.21,-422.88 842,-412.03 854.15,-402.47"/>
<polygon fill="grey" stroke="grey" stroke-width="2" points="856.56,-405.04 862.25,-396.1 852.23,-399.54 856.56,-405.04"/>
</g>
<!-- 39 -->
<g id="node40" class="node">
<title>39</title>
<path fill="none" stroke="#d8ac56" stroke-width="2" d="M749.5,-180C749.5,-180 658.5,-180 658.5,-180 652.5,-180 646.5,-174 646.5,-168 646.5,-168 646.5,-156 646.5,-156 646.5,-150 652.5,-144 658.5,-144 658.5,-144 749.5,-144 749.5,-144 755.5,-144 761.5,-150 761.5,-156 761.5,-156 761.5,-168 761.5,-168 761.5,-174 755.5,-180 749.5,-180"/>
<text text-anchor="middle" x="704" y="-159.5" font-family="sans" font-size="10.00">cafe5_complete_set</text>
</g>
<!-- 39&#45;&gt;16 -->
<g id="edge27" class="edge">
<title>39&#45;&gt;16</title>
<path fill="none" stroke="grey" stroke-width="2" d="M704,-143.7C704,-135.98 704,-126.71 704,-118.11"/>
<polygon fill="grey" stroke="grey" stroke-width="2" points="707.5,-118.1 704,-108.1 700.5,-118.1 707.5,-118.1"/>
</g>
<!-- 40 -->
<g id="node41" class="node">
<title>40</title>
<path fill="none" stroke="#d8bc56" stroke-width="2" d="M760.5,-396C760.5,-396 647.5,-396 647.5,-396 641.5,-396 635.5,-390 635.5,-384 635.5,-384 635.5,-372 635.5,-372 635.5,-366 641.5,-360 647.5,-360 647.5,-360 760.5,-360 760.5,-360 766.5,-360 772.5,-366 772.5,-372 772.5,-372 772.5,-384 772.5,-384 772.5,-390 766.5,-396 760.5,-396"/>
<text text-anchor="middle" x="704" y="-375.5" font-family="sans" font-size="10.00">ultrametric_species_tree</text>
</g>
<!-- 40&#45;&gt;39 -->
<g id="edge54" class="edge">
<title>40&#45;&gt;39</title>
<path fill="none" stroke="grey" stroke-width="2" d="M671.47,-359.98C658.21,-351.18 644.3,-339.09 637,-324 630.03,-309.6 633.96,-303.71 637,-288 643.56,-254.13 649.39,-246.23 666,-216 671.15,-206.62 677.68,-196.95 683.86,-188.47"/>
<polygon fill="grey" stroke="grey" stroke-width="2" points="686.68,-190.55 689.87,-180.45 681.07,-186.36 686.68,-190.55"/>
</g>
<!-- 42 -->
<g id="node43" class="node">
<title>42</title>
<path fill="none" stroke="#bed856" stroke-width="2" d="M750.5,-324C750.5,-324 657.5,-324 657.5,-324 651.5,-324 645.5,-318 645.5,-312 645.5,-312 645.5,-300 645.5,-300 645.5,-294 651.5,-288 657.5,-288 657.5,-288 750.5,-288 750.5,-288 756.5,-288 762.5,-294 762.5,-300 762.5,-300 762.5,-312 762.5,-312 762.5,-318 756.5,-324 750.5,-324"/>
<text text-anchor="middle" x="704" y="-303.5" font-family="sans" font-size="10.00">reformat_HOG_table</text>
</g>
<!-- 40&#45;&gt;42 -->
<g id="edge60" class="edge">
<title>40&#45;&gt;42</title>
<path fill="none" stroke="grey" stroke-width="2" d="M704,-359.7C704,-351.98 704,-342.71 704,-334.11"/>
<polygon fill="grey" stroke="grey" stroke-width="2" points="707.5,-334.1 704,-324.1 700.5,-334.1 707.5,-334.1"/>
</g>
<!-- 43 -->
<g id="node44" class="node">
<title>43</title>
<path fill="none" stroke="#56a9d8" stroke-width="2" d="M775,-252C775,-252 695,-252 695,-252 689,-252 683,-246 683,-240 683,-240 683,-228 683,-228 683,-222 689,-216 695,-216 695,-216 775,-216 775,-216 781,-216 787,-222 787,-228 787,-228 787,-240 787,-240 787,-246 781,-252 775,-252"/>
<text text-anchor="middle" x="735" y="-231.5" font-family="sans" font-size="10.00">cafe5_filtered_set</text>
</g>
<!-- 40&#45;&gt;43 -->
<g id="edge61" class="edge">
<title>40&#45;&gt;43</title>
<path fill="none" stroke="grey" stroke-width="2" d="M737.36,-359.86C750.71,-351.09 764.64,-339.06 772,-324 782.22,-303.07 770.39,-278.58 757.46,-260.6"/>
<polygon fill="grey" stroke="grey" stroke-width="2" points="759.98,-258.14 751.11,-252.33 754.43,-262.4 759.98,-258.14"/>
</g>
<!-- 41&#45;&gt;40 -->
<g id="edge58" class="edge">
<title>41&#45;&gt;40</title>
<path fill="none" stroke="grey" stroke-width="2" d="M682.92,-431.7C686.07,-423.81 689.88,-414.3 693.38,-405.55"/>
<polygon fill="grey" stroke="grey" stroke-width="2" points="696.69,-406.69 697.16,-396.1 690.19,-404.09 696.69,-406.69"/>
</g>
<!-- 42&#45;&gt;39 -->
<g id="edge56" class="edge">
<title>42&#45;&gt;39</title>
<path fill="none" stroke="grey" stroke-width="2" d="M691.27,-287.85C684.71,-277.92 677.39,-264.88 674,-252 669.92,-236.53 669.92,-231.47 674,-216 676.49,-206.54 681.1,-196.99 685.97,-188.66"/>
<polygon fill="grey" stroke="grey" stroke-width="2" points="688.95,-190.49 691.27,-180.15 683.01,-186.79 688.95,-190.49"/>
</g>
<!-- 42&#45;&gt;43 -->
<g id="edge62" class="edge">
<title>42&#45;&gt;43</title>
<path fill="none" stroke="grey" stroke-width="2" d="M711.66,-287.7C715.19,-279.73 719.46,-270.1 723.37,-261.26"/>
<polygon fill="grey" stroke="grey" stroke-width="2" points="726.58,-262.67 727.43,-252.1 720.18,-259.83 726.58,-262.67"/>
</g>
<!-- 43&#45;&gt;39 -->
<g id="edge57" class="edge">
<title>43&#45;&gt;39</title>
<path fill="none" stroke="grey" stroke-width="2" d="M727.34,-215.7C723.81,-207.73 719.54,-198.1 715.63,-189.26"/>
<polygon fill="grey" stroke="grey" stroke-width="2" points="718.82,-187.83 711.57,-180.1 712.42,-190.67 718.82,-187.83"/>
</g>
<!-- 44 -->
<g id="node45" class="node">
<title>44</title>
<path fill="none" stroke="#56b9d8" stroke-width="2" d="M1110.5,-1188C1110.5,-1188 977.5,-1188 977.5,-1188 971.5,-1188 965.5,-1182 965.5,-1176 965.5,-1176 965.5,-1164 965.5,-1164 965.5,-1158 971.5,-1152 977.5,-1152 977.5,-1152 1110.5,-1152 1110.5,-1152 1116.5,-1152 1122.5,-1158 1122.5,-1164 1122.5,-1164 1122.5,-1176 1122.5,-1176 1122.5,-1182 1116.5,-1188 1110.5,-1188"/>
<text text-anchor="middle" x="1044" y="-1167.5" font-family="sans" font-size="10.00">create_func_annotation_RDS</text>
</g>
<!-- 44&#45;&gt;16 -->
<g id="edge26" class="edge">
<title>44&#45;&gt;16</title>
<path fill="none" stroke="grey" stroke-width="2" d="M1044,-1151.95C1044,-1125.29 1044,-1072.11 1044,-1027 1044,-1027 1044,-1027 1044,-233 1044,-112.18 858.94,-92.34 761.88,-90.25"/>
<polygon fill="grey" stroke="grey" stroke-width="2" points="761.69,-86.75 751.63,-90.09 761.58,-93.74 761.69,-86.75"/>
</g>
<!-- 50 -->
<g id="node51" class="node">
<title>50</title>
<path fill="none" stroke="#afd856" stroke-width="2" d="M934,-1260C934,-1260 838,-1260 838,-1260 832,-1260 826,-1254 826,-1248 826,-1248 826,-1236 826,-1236 826,-1230 832,-1224 838,-1224 838,-1224 934,-1224 934,-1224 940,-1224 946,-1230 946,-1236 946,-1236 946,-1248 946,-1248 946,-1254 940,-1260 934,-1260"/>
<text text-anchor="middle" x="886" y="-1239.5" font-family="sans" font-size="10.00">ahrd_checkpoint_end</text>
</g>
<!-- 45&#45;&gt;50 -->
<g id="edge70" class="edge">
<title>45&#45;&gt;50</title>
<path fill="none" stroke="grey" stroke-width="2" d="M887.51,-1295.7C887.29,-1287.98 887.02,-1278.71 886.77,-1270.11"/>
<polygon fill="grey" stroke="grey" stroke-width="2" points="890.27,-1270 886.49,-1260.1 883.28,-1270.2 890.27,-1270"/>
</g>
<!-- 46 -->
<g id="node47" class="node">
<title>46</title>
<path fill="none" stroke="#5673d8" stroke-width="2" d="M955,-1404C955,-1404 821,-1404 821,-1404 815,-1404 809,-1398 809,-1392 809,-1392 809,-1380 809,-1380 809,-1374 815,-1368 821,-1368 821,-1368 955,-1368 955,-1368 961,-1368 967,-1374 967,-1380 967,-1380 967,-1392 967,-1392 967,-1398 961,-1404 955,-1404"/>
<text text-anchor="middle" x="888" y="-1383.5" font-family="sans" font-size="10.00">delete_example_species_tsv</text>
</g>
<!-- 46&#45;&gt;45 -->
<g id="edge66" class="edge">
<title>46&#45;&gt;45</title>
<path fill="none" stroke="grey" stroke-width="2" d="M888,-1367.7C888,-1359.98 888,-1350.71 888,-1342.11"/>
<polygon fill="grey" stroke="grey" stroke-width="2" points="891.5,-1342.1 888,-1332.1 884.5,-1342.1 891.5,-1342.1"/>
</g>
<!-- 47 -->
<g id="node48" class="node">
<title>47</title>
<path fill="none" stroke="#56d873" stroke-width="2" d="M1113.5,-1260C1113.5,-1260 976.5,-1260 976.5,-1260 970.5,-1260 964.5,-1254 964.5,-1248 964.5,-1248 964.5,-1236 964.5,-1236 964.5,-1230 970.5,-1224 976.5,-1224 976.5,-1224 1113.5,-1224 1113.5,-1224 1119.5,-1224 1125.5,-1230 1125.5,-1236 1125.5,-1236 1125.5,-1248 1125.5,-1248 1125.5,-1254 1119.5,-1260 1113.5,-1260"/>
<text text-anchor="middle" x="1045" y="-1239.5" font-family="sans" font-size="10.00">check_user_func_annotations</text>
</g>
<!-- 47&#45;&gt;44 -->
<g id="edge63" class="edge">
<title>47&#45;&gt;44</title>
<path fill="none" stroke="grey" stroke-width="2" d="M1044.75,-1223.7C1044.64,-1215.98 1044.51,-1206.71 1044.39,-1198.11"/>
<polygon fill="grey" stroke="grey" stroke-width="2" points="1047.89,-1198.05 1044.24,-1188.1 1040.89,-1198.15 1047.89,-1198.05"/>
</g>
<!-- 48 -->
<g id="node49" class="node">
<title>48</title>
<path fill="none" stroke="#5692d8" stroke-width="2" d="M1175.5,-1332C1175.5,-1332 1034.5,-1332 1034.5,-1332 1028.5,-1332 1022.5,-1326 1022.5,-1320 1022.5,-1320 1022.5,-1308 1022.5,-1308 1022.5,-1302 1028.5,-1296 1034.5,-1296 1034.5,-1296 1175.5,-1296 1175.5,-1296 1181.5,-1296 1187.5,-1302 1187.5,-1308 1187.5,-1308 1187.5,-1320 1187.5,-1320 1187.5,-1326 1181.5,-1332 1175.5,-1332"/>
<text text-anchor="middle" x="1105" y="-1311.5" font-family="sans" font-size="10.00">handle_user_func_annotations</text>
</g>
<!-- 48&#45;&gt;44 -->
<g id="edge65" class="edge">
<title>48&#45;&gt;44</title>
<path fill="none" stroke="grey" stroke-width="2" d="M1119,-1295.76C1132.27,-1277.19 1148.33,-1247.18 1135,-1224 1127.52,-1210.99 1115.49,-1200.88 1102.59,-1193.14"/>
<polygon fill="grey" stroke="grey" stroke-width="2" points="1104.01,-1189.93 1093.56,-1188.15 1100.62,-1196.05 1104.01,-1189.93"/>
</g>
<!-- 48&#45;&gt;47 -->
<g id="edge68" class="edge">
<title>48&#45;&gt;47</title>
<path fill="none" stroke="grey" stroke-width="2" d="M1090.17,-1295.7C1082.98,-1287.3 1074.2,-1277.07 1066.31,-1267.86"/>
<polygon fill="grey" stroke="grey" stroke-width="2" points="1068.83,-1265.42 1059.66,-1260.1 1063.51,-1269.97 1068.83,-1265.42"/>
</g>
<!-- 49&#45;&gt;16 -->
<g id="edge25" class="edge">
<title>49&#45;&gt;16</title>
<path fill="none" stroke="grey" stroke-width="2" d="M862.29,-215.87C830.26,-190.6 770.24,-143.25 734.02,-114.68"/>
<polygon fill="grey" stroke="grey" stroke-width="2" points="735.81,-111.64 725.79,-108.19 731.47,-117.13 735.81,-111.64"/>
</g>
<!-- 49&#45;&gt;39 -->
<g id="edge55" class="edge">
<title>49&#45;&gt;39</title>
<path fill="none" stroke="grey" stroke-width="2" d="M839.97,-215.88C815.03,-206.18 783.66,-193.98 757.34,-183.74"/>
<polygon fill="grey" stroke="grey" stroke-width="2" points="758.48,-180.43 747.89,-180.07 755.94,-186.95 758.48,-180.43"/>
</g>
<!-- 50&#45;&gt;44 -->
<g id="edge64" class="edge">
<title>50&#45;&gt;44</title>
<path fill="none" stroke="grey" stroke-width="2" d="M924.65,-1223.88C946.25,-1214.31 973.35,-1202.3 996.27,-1192.15"/>
<polygon fill="grey" stroke="grey" stroke-width="2" points="997.75,-1195.32 1005.47,-1188.07 994.91,-1188.92 997.75,-1195.32"/>
</g>
</g>
</svg>
