<?xml version="1.0" encoding="UTF-8" standalone="no"?>
<!DOCTYPE svg PUBLIC "-//W3C//DTD SVG 1.1//EN"
 "http://www.w3.org/Graphics/SVG/1.1/DTD/svg11.dtd">
<!-- Generated by graphviz version 2.48.0 (20210717.2242)
 -->
<!-- Title: snakemake_dag Pages: 1 -->
<svg width="759pt" height="1412pt"
 viewBox="0.00 0.00 758.62 1412.00" xmlns="http://www.w3.org/2000/svg" xmlns:xlink="http://www.w3.org/1999/xlink">
<g id="graph0" class="graph" transform="scale(1 1) rotate(0) translate(4 1408)">
<title>snakemake_dag</title>
<polygon fill="white" stroke="transparent" points="-4,4 -4,-1408 754.62,-1408 754.62,4 -4,4"/>
<!-- 0 -->
<g id="node1" class="node">
<title>0</title>
<path fill="none" stroke="#56d86b" stroke-width="2" d="M281.12,-36C281.12,-36 251.12,-36 251.12,-36 245.12,-36 239.12,-30 239.12,-24 239.12,-24 239.12,-12 239.12,-12 239.12,-6 245.12,0 251.12,0 251.12,0 281.12,0 281.12,0 287.12,0 293.12,-6 293.12,-12 293.12,-12 293.12,-24 293.12,-24 293.12,-30 287.12,-36 281.12,-36"/>
<text text-anchor="middle" x="266.12" y="-15.5" font-family="sans" font-size="10.00">all</text>
</g>
<!-- 1 -->
<g id="node2" class="node">
<title>1</title>
<path fill="none" stroke="#d8c356" stroke-width="2" d="M188.12,-324C188.12,-324 158.12,-324 158.12,-324 152.12,-324 146.12,-318 146.12,-312 146.12,-312 146.12,-300 146.12,-300 146.12,-294 152.12,-288 158.12,-288 158.12,-288 188.12,-288 188.12,-288 194.12,-288 200.12,-294 200.12,-300 200.12,-300 200.12,-312 200.12,-312 200.12,-318 194.12,-324 188.12,-324"/>
<text text-anchor="middle" x="173.12" y="-303.5" font-family="sans" font-size="10.00">multiqc</text>
</g>
<!-- 1&#45;&gt;0 -->
<g id="edge1" class="edge">
<title>1&#45;&gt;0</title>
<path fill="none" stroke="grey" stroke-width="2" d="M178.66,-287.97C194.22,-240.09 238.46,-104.06 257.37,-45.9"/>
<polygon fill="grey" stroke="grey" stroke-width="2" points="260.73,-46.9 260.49,-36.31 254.07,-44.73 260.73,-46.9"/>
</g>
<!-- 2 -->
<g id="node3" class="node">
<title>2</title>
<path fill="none" stroke="#d89c56" stroke-width="2" d="M89.12,-468C89.12,-468 39.12,-468 39.12,-468 33.12,-468 27.12,-462 27.12,-456 27.12,-456 27.12,-444 27.12,-444 27.12,-438 33.12,-432 39.12,-432 39.12,-432 89.12,-432 89.12,-432 95.12,-432 101.12,-438 101.12,-444 101.12,-444 101.12,-456 101.12,-456 101.12,-462 95.12,-468 89.12,-468"/>
<text text-anchor="middle" x="64.12" y="-447.5" font-family="sans" font-size="10.00">FastQC_raw</text>
</g>
<!-- 2&#45;&gt;1 -->
<g id="edge7" class="edge">
<title>2&#45;&gt;1</title>
<path fill="none" stroke="grey" stroke-width="2" d="M50.85,-431.94C37.84,-412.98 21.99,-382.13 37.12,-360 59.12,-327.81 103.8,-315.17 135.95,-310.21"/>
<polygon fill="grey" stroke="grey" stroke-width="2" points="136.46,-313.67 145.9,-308.85 135.52,-306.73 136.46,-313.67"/>
</g>
<!-- 3 -->
<g id="node4" class="node">
<title>3</title>
<path fill="none" stroke="#56b1d8" stroke-width="2" d="M132.12,-396C132.12,-396 58.12,-396 58.12,-396 52.12,-396 46.12,-390 46.12,-384 46.12,-384 46.12,-372 46.12,-372 46.12,-366 52.12,-360 58.12,-360 58.12,-360 132.12,-360 132.12,-360 138.12,-360 144.12,-366 144.12,-372 144.12,-372 144.12,-384 144.12,-384 144.12,-390 138.12,-396 132.12,-396"/>
<text text-anchor="middle" x="95.12" y="-375.5" font-family="sans" font-size="10.00">FastQC_trimmed</text>
</g>
<!-- 2&#45;&gt;3 -->
<g id="edge10" class="edge">
<title>2&#45;&gt;3</title>
<path fill="none" stroke="grey" stroke-width="2" d="M71.78,-431.7C75.31,-423.73 79.57,-414.1 83.49,-405.26"/>
<polygon fill="grey" stroke="grey" stroke-width="2" points="86.69,-406.67 87.54,-396.1 80.29,-403.83 86.69,-406.67"/>
</g>
<!-- 3&#45;&gt;1 -->
<g id="edge3" class="edge">
<title>3&#45;&gt;1</title>
<path fill="none" stroke="grey" stroke-width="2" d="M114.4,-359.7C124.03,-351.05 135.85,-340.45 146.35,-331.03"/>
<polygon fill="grey" stroke="grey" stroke-width="2" points="148.95,-333.39 154.06,-324.1 144.28,-328.18 148.95,-333.39"/>
</g>
<!-- 4 -->
<g id="node5" class="node">
<title>4</title>
<path fill="none" stroke="#70d856" stroke-width="2" d="M265.62,-540C265.62,-540 164.62,-540 164.62,-540 158.62,-540 152.62,-534 152.62,-528 152.62,-528 152.62,-516 152.62,-516 152.62,-510 158.62,-504 164.62,-504 164.62,-504 265.62,-504 265.62,-504 271.62,-504 277.62,-510 277.62,-516 277.62,-516 277.62,-528 277.62,-528 277.62,-534 271.62,-540 265.62,-540"/>
<text text-anchor="middle" x="215.12" y="-519.5" font-family="sans" font-size="10.00">Trimmomatic_cleanup</text>
</g>
<!-- 4&#45;&gt;3 -->
<g id="edge11" class="edge">
<title>4&#45;&gt;3</title>
<path fill="none" stroke="grey" stroke-width="2" d="M196.81,-503.93C186.29,-493.82 173.04,-480.57 162.12,-468 144.35,-447.55 125.97,-422.83 112.96,-404.64"/>
<polygon fill="grey" stroke="grey" stroke-width="2" points="115.67,-402.41 107.03,-396.28 109.96,-406.46 115.67,-402.41"/>
</g>
<!-- 7 -->
<g id="node8" class="node">
<title>7</title>
<path fill="none" stroke="#56d8c9" stroke-width="2" d="M415.62,-396C415.62,-396 354.62,-396 354.62,-396 348.62,-396 342.62,-390 342.62,-384 342.62,-384 342.62,-372 342.62,-372 342.62,-366 348.62,-360 354.62,-360 354.62,-360 415.62,-360 415.62,-360 421.62,-360 427.62,-366 427.62,-372 427.62,-372 427.62,-384 427.62,-384 427.62,-390 421.62,-396 415.62,-396"/>
<text text-anchor="middle" x="385.12" y="-375.5" font-family="sans" font-size="10.00">kallisto_quant</text>
</g>
<!-- 4&#45;&gt;7 -->
<g id="edge15" class="edge">
<title>4&#45;&gt;7</title>
<path fill="none" stroke="grey" stroke-width="2" d="M235.62,-503.87C265.87,-478.6 322.56,-431.25 356.77,-402.68"/>
<polygon fill="grey" stroke="grey" stroke-width="2" points="359.11,-405.29 364.54,-396.19 354.62,-399.91 359.11,-405.29"/>
</g>
<!-- 9 -->
<g id="node10" class="node">
<title>9</title>
<path fill="none" stroke="#56d8a9" stroke-width="2" d="M230.62,-468C230.62,-468 183.62,-468 183.62,-468 177.62,-468 171.62,-462 171.62,-456 171.62,-456 171.62,-444 171.62,-444 171.62,-438 177.62,-432 183.62,-432 183.62,-432 230.62,-432 230.62,-432 236.62,-432 242.62,-438 242.62,-444 242.62,-444 242.62,-456 242.62,-456 242.62,-462 236.62,-468 230.62,-468"/>
<text text-anchor="middle" x="207.12" y="-447.5" font-family="sans" font-size="10.00">STAR_align</text>
</g>
<!-- 4&#45;&gt;9 -->
<g id="edge17" class="edge">
<title>4&#45;&gt;9</title>
<path fill="none" stroke="grey" stroke-width="2" d="M213.14,-503.7C212.26,-495.98 211.2,-486.71 210.22,-478.11"/>
<polygon fill="grey" stroke="grey" stroke-width="2" points="213.69,-477.64 209.07,-468.1 206.73,-478.44 213.69,-477.64"/>
</g>
<!-- 5 -->
<g id="node6" class="node">
<title>5</title>
<path fill="none" stroke="#d86656" stroke-width="2" d="M301.12,-612C301.12,-612 227.12,-612 227.12,-612 221.12,-612 215.12,-606 215.12,-600 215.12,-600 215.12,-588 215.12,-588 215.12,-582 221.12,-576 227.12,-576 227.12,-576 301.12,-576 301.12,-576 307.12,-576 313.12,-582 313.12,-588 313.12,-588 313.12,-600 313.12,-600 313.12,-606 307.12,-612 301.12,-612"/>
<text text-anchor="middle" x="264.12" y="-591.5" font-family="sans" font-size="10.00">Trimmomatic_SE</text>
</g>
<!-- 5&#45;&gt;1 -->
<g id="edge4" class="edge">
<title>5&#45;&gt;1</title>
<path fill="none" stroke="grey" stroke-width="2" d="M273.61,-575.74C294.86,-534.54 340.9,-428.8 295.12,-360 273.73,-327.86 250.41,-338.99 209.48,-323.75"/>
<polygon fill="grey" stroke="grey" stroke-width="2" points="210.77,-320.49 200.19,-319.94 208.11,-326.97 210.77,-320.49"/>
</g>
<!-- 5&#45;&gt;4 -->
<g id="edge12" class="edge">
<title>5&#45;&gt;4</title>
<path fill="none" stroke="grey" stroke-width="2" d="M252.01,-575.7C246.25,-567.47 239.26,-557.48 232.91,-548.42"/>
<polygon fill="grey" stroke="grey" stroke-width="2" points="235.69,-546.29 227.09,-540.1 229.96,-550.3 235.69,-546.29"/>
</g>
<!-- 6 -->
<g id="node7" class="node">
<title>6</title>
<path fill="none" stroke="#56c9d8" stroke-width="2" d="M146.12,-612C146.12,-612 72.12,-612 72.12,-612 66.12,-612 60.12,-606 60.12,-600 60.12,-600 60.12,-588 60.12,-588 60.12,-582 66.12,-576 72.12,-576 72.12,-576 146.12,-576 146.12,-576 152.12,-576 158.12,-582 158.12,-588 158.12,-588 158.12,-600 158.12,-600 158.12,-606 152.12,-612 146.12,-612"/>
<text text-anchor="middle" x="109.12" y="-591.5" font-family="sans" font-size="10.00">Trimmomatic_PE</text>
</g>
<!-- 6&#45;&gt;1 -->
<g id="edge8" class="edge">
<title>6&#45;&gt;1</title>
<path fill="none" stroke="grey" stroke-width="2" d="M86.43,-575.92C74.78,-566.32 61,-553.56 51.12,-540 3.56,-474.79 -23.22,-423.09 27.12,-360 53.41,-327.05 102.04,-314.58 135.91,-309.86"/>
<polygon fill="grey" stroke="grey" stroke-width="2" points="136.41,-313.33 145.91,-308.63 135.56,-306.38 136.41,-313.33"/>
</g>
<!-- 6&#45;&gt;4 -->
<g id="edge13" class="edge">
<title>6&#45;&gt;4</title>
<path fill="none" stroke="grey" stroke-width="2" d="M135.05,-575.88C148.78,-566.81 165.83,-555.55 180.65,-545.76"/>
<polygon fill="grey" stroke="grey" stroke-width="2" points="182.67,-548.62 189.09,-540.19 178.82,-542.78 182.67,-548.62"/>
</g>
<!-- 7&#45;&gt;1 -->
<g id="edge6" class="edge">
<title>7&#45;&gt;1</title>
<path fill="none" stroke="grey" stroke-width="2" d="M342.19,-364.16C298.9,-351.2 235.69,-332.24 210.21,-323.84"/>
<polygon fill="grey" stroke="grey" stroke-width="2" points="211.05,-320.42 200.45,-320.42 208.74,-327.03 211.05,-320.42"/>
</g>
<!-- 15 -->
<g id="node16" class="node">
<title>15</title>
<path fill="none" stroke="#56d8c1" stroke-width="2" d="M424.12,-324C424.12,-324 334.12,-324 334.12,-324 328.12,-324 322.12,-318 322.12,-312 322.12,-312 322.12,-300 322.12,-300 322.12,-294 328.12,-288 334.12,-288 334.12,-288 424.12,-288 424.12,-288 430.12,-288 436.12,-294 436.12,-300 436.12,-300 436.12,-312 436.12,-312 436.12,-318 430.12,-324 424.12,-324"/>
<text text-anchor="middle" x="379.12" y="-303.5" font-family="sans" font-size="10.00">tximport_and_setup</text>
</g>
<!-- 7&#45;&gt;15 -->
<g id="edge25" class="edge">
<title>7&#45;&gt;15</title>
<path fill="none" stroke="grey" stroke-width="2" d="M383.64,-359.7C382.97,-351.98 382.18,-342.71 381.44,-334.11"/>
<polygon fill="grey" stroke="grey" stroke-width="2" points="384.93,-333.77 380.58,-324.1 377.95,-334.37 384.93,-333.77"/>
</g>
<!-- 8 -->
<g id="node9" class="node">
<title>8</title>
<path fill="none" stroke="#56d8d8" stroke-width="2" d="M415.12,-468C415.12,-468 355.12,-468 355.12,-468 349.12,-468 343.12,-462 343.12,-456 343.12,-456 343.12,-444 343.12,-444 343.12,-438 349.12,-432 355.12,-432 355.12,-432 415.12,-432 415.12,-432 421.12,-432 427.12,-438 427.12,-444 427.12,-444 427.12,-456 427.12,-456 427.12,-462 421.12,-468 415.12,-468"/>
<text text-anchor="middle" x="385.12" y="-447.5" font-family="sans" font-size="10.00">kallisto_index</text>
</g>
<!-- 8&#45;&gt;7 -->
<g id="edge14" class="edge">
<title>8&#45;&gt;7</title>
<path fill="none" stroke="grey" stroke-width="2" d="M385.12,-431.7C385.12,-423.98 385.12,-414.71 385.12,-406.11"/>
<polygon fill="grey" stroke="grey" stroke-width="2" points="388.62,-406.1 385.12,-396.1 381.62,-406.1 388.62,-406.1"/>
</g>
<!-- 9&#45;&gt;1 -->
<g id="edge5" class="edge">
<title>9&#45;&gt;1</title>
<path fill="none" stroke="grey" stroke-width="2" d="M201.52,-431.93C198.24,-421.6 194.17,-408.12 191.12,-396 185.96,-375.49 181.27,-352.03 177.96,-334.35"/>
<polygon fill="grey" stroke="grey" stroke-width="2" points="181.34,-333.37 176.1,-324.17 174.46,-334.64 181.34,-333.37"/>
</g>
<!-- 11 -->
<g id="node12" class="node">
<title>11</title>
<path fill="none" stroke="#5663d8" stroke-width="2" d="M274.12,-396C274.12,-396 212.12,-396 212.12,-396 206.12,-396 200.12,-390 200.12,-384 200.12,-384 200.12,-372 200.12,-372 200.12,-366 206.12,-360 212.12,-360 212.12,-360 274.12,-360 274.12,-360 280.12,-360 286.12,-366 286.12,-372 286.12,-372 286.12,-384 286.12,-384 286.12,-390 280.12,-396 274.12,-396"/>
<text text-anchor="middle" x="243.12" y="-375.5" font-family="sans" font-size="10.00">featureCounts</text>
</g>
<!-- 9&#45;&gt;11 -->
<g id="edge18" class="edge">
<title>9&#45;&gt;11</title>
<path fill="none" stroke="grey" stroke-width="2" d="M216.02,-431.7C220.12,-423.73 225.07,-414.1 229.61,-405.26"/>
<polygon fill="grey" stroke="grey" stroke-width="2" points="232.86,-406.6 234.32,-396.1 226.64,-403.4 232.86,-406.6"/>
</g>
<!-- 10 -->
<g id="node11" class="node">
<title>10</title>
<path fill="none" stroke="#88d856" stroke-width="2" d="M122.12,-540C122.12,-540 72.12,-540 72.12,-540 66.12,-540 60.12,-534 60.12,-528 60.12,-528 60.12,-516 60.12,-516 60.12,-510 66.12,-504 72.12,-504 72.12,-504 122.12,-504 122.12,-504 128.12,-504 134.12,-510 134.12,-516 134.12,-516 134.12,-528 134.12,-528 134.12,-534 128.12,-540 122.12,-540"/>
<text text-anchor="middle" x="97.12" y="-519.5" font-family="sans" font-size="10.00">STAR_index</text>
</g>
<!-- 10&#45;&gt;9 -->
<g id="edge16" class="edge">
<title>10&#45;&gt;9</title>
<path fill="none" stroke="grey" stroke-width="2" d="M124.03,-503.88C138.28,-494.81 155.96,-483.55 171.35,-473.76"/>
<polygon fill="grey" stroke="grey" stroke-width="2" points="173.55,-476.51 180.11,-468.19 169.79,-470.61 173.55,-476.51"/>
</g>
<!-- 11&#45;&gt;1 -->
<g id="edge9" class="edge">
<title>11&#45;&gt;1</title>
<path fill="none" stroke="grey" stroke-width="2" d="M225.82,-359.7C217.25,-351.14 206.77,-340.66 197.42,-331.3"/>
<polygon fill="grey" stroke="grey" stroke-width="2" points="199.77,-328.7 190.22,-324.1 194.82,-333.65 199.77,-328.7"/>
</g>
<!-- 17 -->
<g id="node18" class="node">
<title>17</title>
<path fill="none" stroke="#56d89a" stroke-width="2" d="M292.12,-324C292.12,-324 230.12,-324 230.12,-324 224.12,-324 218.12,-318 218.12,-312 218.12,-312 218.12,-300 218.12,-300 218.12,-294 224.12,-288 230.12,-288 230.12,-288 292.12,-288 292.12,-288 298.12,-288 304.12,-294 304.12,-300 304.12,-300 304.12,-312 304.12,-312 304.12,-318 298.12,-324 292.12,-324"/>
<text text-anchor="middle" x="261.12" y="-303.5" font-family="sans" font-size="10.00">merge_counts</text>
</g>
<!-- 11&#45;&gt;17 -->
<g id="edge27" class="edge">
<title>11&#45;&gt;17</title>
<path fill="none" stroke="grey" stroke-width="2" d="M247.57,-359.7C249.57,-351.9 251.99,-342.51 254.22,-333.83"/>
<polygon fill="grey" stroke="grey" stroke-width="2" points="257.62,-334.66 256.72,-324.1 250.84,-332.92 257.62,-334.66"/>
</g>
<!-- 12 -->
<g id="node13" class="node">
<title>12</title>
<path fill="none" stroke="#b6d856" stroke-width="2" d="M481.62,-108C481.62,-108 410.62,-108 410.62,-108 404.62,-108 398.62,-102 398.62,-96 398.62,-96 398.62,-84 398.62,-84 398.62,-78 404.62,-72 410.62,-72 410.62,-72 481.62,-72 481.62,-72 487.62,-72 493.62,-78 493.62,-84 493.62,-84 493.62,-96 493.62,-96 493.62,-102 487.62,-108 481.62,-108"/>
<text text-anchor="middle" x="446.12" y="-87.5" font-family="sans" font-size="10.00">final_tea_output</text>
</g>
<!-- 12&#45;&gt;0 -->
<g id="edge2" class="edge">
<title>12&#45;&gt;0</title>
<path fill="none" stroke="grey" stroke-width="2" d="M402.09,-71.88C371.64,-60.04 331.6,-44.47 302.87,-33.29"/>
<polygon fill="grey" stroke="grey" stroke-width="2" points="303.8,-29.9 293.21,-29.54 301.27,-36.42 303.8,-29.9"/>
</g>
<!-- 13 -->
<g id="node14" class="node">
<title>13</title>
<path fill="none" stroke="#d87d56" stroke-width="2" d="M418.62,-180C418.62,-180 339.62,-180 339.62,-180 333.62,-180 327.62,-174 327.62,-168 327.62,-168 327.62,-156 327.62,-156 327.62,-150 333.62,-144 339.62,-144 339.62,-144 418.62,-144 418.62,-144 424.62,-144 430.62,-150 430.62,-156 430.62,-156 430.62,-168 430.62,-168 430.62,-174 424.62,-180 418.62,-180"/>
<text text-anchor="middle" x="379.12" y="-159.5" font-family="sans" font-size="10.00">deseq2_complete</text>
</g>
<!-- 13&#45;&gt;12 -->
<g id="edge19" class="edge">
<title>13&#45;&gt;12</title>
<path fill="none" stroke="grey" stroke-width="2" d="M395.68,-143.7C403.79,-135.22 413.71,-124.86 422.59,-115.58"/>
<polygon fill="grey" stroke="grey" stroke-width="2" points="425.36,-117.75 429.75,-108.1 420.3,-112.91 425.36,-117.75"/>
</g>
<!-- 14 -->
<g id="node15" class="node">
<title>14</title>
<path fill="none" stroke="#567bd8" stroke-width="2" d="M408.62,-252C408.62,-252 349.62,-252 349.62,-252 343.62,-252 337.62,-246 337.62,-240 337.62,-240 337.62,-228 337.62,-228 337.62,-222 343.62,-216 349.62,-216 349.62,-216 408.62,-216 408.62,-216 414.62,-216 420.62,-222 420.62,-228 420.62,-228 420.62,-240 420.62,-240 420.62,-246 414.62,-252 408.62,-252"/>
<text text-anchor="middle" x="379.12" y="-231.5" font-family="sans" font-size="10.00">cdna_DESeq2</text>
</g>
<!-- 14&#45;&gt;13 -->
<g id="edge23" class="edge">
<title>14&#45;&gt;13</title>
<path fill="none" stroke="grey" stroke-width="2" d="M379.12,-215.7C379.12,-207.98 379.12,-198.71 379.12,-190.11"/>
<polygon fill="grey" stroke="grey" stroke-width="2" points="382.62,-190.1 379.12,-180.1 375.62,-190.1 382.62,-190.1"/>
</g>
<!-- 15&#45;&gt;14 -->
<g id="edge24" class="edge">
<title>15&#45;&gt;14</title>
<path fill="none" stroke="grey" stroke-width="2" d="M379.12,-287.7C379.12,-279.98 379.12,-270.71 379.12,-262.11"/>
<polygon fill="grey" stroke="grey" stroke-width="2" points="382.62,-262.1 379.12,-252.1 375.62,-262.1 382.62,-262.1"/>
</g>
<!-- 16 -->
<g id="node17" class="node">
<title>16</title>
<path fill="none" stroke="#78d856" stroke-width="2" d="M297.62,-252C297.62,-252 244.62,-252 244.62,-252 238.62,-252 232.62,-246 232.62,-240 232.62,-240 232.62,-228 232.62,-228 232.62,-222 238.62,-216 244.62,-216 244.62,-216 297.62,-216 297.62,-216 303.62,-216 309.62,-222 309.62,-228 309.62,-228 309.62,-240 309.62,-240 309.62,-246 303.62,-252 297.62,-252"/>
<text text-anchor="middle" x="271.12" y="-231.5" font-family="sans" font-size="10.00">gen_DESeq2</text>
</g>
<!-- 16&#45;&gt;13 -->
<g id="edge22" class="edge">
<title>16&#45;&gt;13</title>
<path fill="none" stroke="grey" stroke-width="2" d="M297.54,-215.88C311.53,-206.81 328.9,-195.55 344,-185.76"/>
<polygon fill="grey" stroke="grey" stroke-width="2" points="346.11,-188.57 352.6,-180.19 342.3,-182.69 346.11,-188.57"/>
</g>
<!-- 17&#45;&gt;16 -->
<g id="edge26" class="edge">
<title>17&#45;&gt;16</title>
<path fill="none" stroke="grey" stroke-width="2" d="M263.59,-287.7C264.69,-279.98 266.02,-270.71 267.25,-262.11"/>
<polygon fill="grey" stroke="grey" stroke-width="2" points="270.73,-262.5 268.68,-252.1 263.8,-261.51 270.73,-262.5"/>
</g>
<!-- 18 -->
<g id="node19" class="node">
<title>18</title>
<path fill="none" stroke="#d89556" stroke-width="2" d="M738.62,-180C738.62,-180 605.62,-180 605.62,-180 599.62,-180 593.62,-174 593.62,-168 593.62,-168 593.62,-156 593.62,-156 593.62,-150 599.62,-144 605.62,-144 605.62,-144 738.62,-144 738.62,-144 744.62,-144 750.62,-150 750.62,-156 750.62,-156 750.62,-168 750.62,-168 750.62,-174 744.62,-180 738.62,-180"/>
<text text-anchor="middle" x="672.12" y="-159.5" font-family="sans" font-size="10.00">expansion_checkpoint_finish</text>
</g>
<!-- 18&#45;&gt;12 -->
<g id="edge20" class="edge">
<title>18&#45;&gt;12</title>
<path fill="none" stroke="grey" stroke-width="2" d="M617.12,-143.97C582.61,-133.28 538.19,-119.52 503.27,-108.7"/>
<polygon fill="grey" stroke="grey" stroke-width="2" points="504.28,-105.35 493.69,-105.73 502.21,-112.04 504.28,-105.35"/>
</g>
<!-- 19 -->
<g id="node20" class="node">
<title>19</title>
<path fill="none" stroke="#a7d856" stroke-width="2" d="M697.62,-396C697.62,-396 654.62,-396 654.62,-396 648.62,-396 642.62,-390 642.62,-384 642.62,-384 642.62,-372 642.62,-372 642.62,-366 648.62,-360 654.62,-360 654.62,-360 697.62,-360 697.62,-360 703.62,-360 709.62,-366 709.62,-372 709.62,-372 709.62,-384 709.62,-384 709.62,-390 703.62,-396 697.62,-396"/>
<text text-anchor="middle" x="676.12" y="-375.5" font-family="sans" font-size="10.00">expansion</text>
</g>
<!-- 19&#45;&gt;18 -->
<g id="edge28" class="edge">
<title>19&#45;&gt;18</title>
<path fill="none" stroke="grey" stroke-width="2" d="M675.8,-359.85C675.11,-322.83 673.47,-235.18 672.63,-190.39"/>
<polygon fill="grey" stroke="grey" stroke-width="2" points="676.13,-190.17 672.44,-180.23 669.13,-190.3 676.13,-190.17"/>
</g>
<!-- 20 -->
<g id="node21" class="node">
<title>20</title>
<path fill="none" stroke="#ced856" stroke-width="2" d="M629.12,-540C629.12,-540 531.12,-540 531.12,-540 525.12,-540 519.12,-534 519.12,-528 519.12,-528 519.12,-516 519.12,-516 519.12,-510 525.12,-504 531.12,-504 531.12,-504 629.12,-504 629.12,-504 635.12,-504 641.12,-510 641.12,-516 641.12,-516 641.12,-528 641.12,-528 641.12,-534 635.12,-540 629.12,-540"/>
<text text-anchor="middle" x="580.12" y="-519.5" font-family="sans" font-size="10.00">Orthofinder_complete</text>
</g>
<!-- 20&#45;&gt;19 -->
<g id="edge29" class="edge">
<title>20&#45;&gt;19</title>
<path fill="none" stroke="grey" stroke-width="2" d="M580.11,-503.82C580.88,-484.75 584.55,-453.81 599.12,-432 607.76,-419.06 620.73,-408.38 633.58,-400.08"/>
<polygon fill="grey" stroke="grey" stroke-width="2" points="635.67,-402.91 642.39,-394.72 632.03,-396.93 635.67,-402.91"/>
</g>
<!-- 33 -->
<g id="node34" class="node">
<title>33</title>
<path fill="none" stroke="#61d856" stroke-width="2" d="M732.12,-468C732.12,-468 620.12,-468 620.12,-468 614.12,-468 608.12,-462 608.12,-456 608.12,-456 608.12,-444 608.12,-444 608.12,-438 614.12,-432 620.12,-432 620.12,-432 732.12,-432 732.12,-432 738.12,-432 744.12,-438 744.12,-444 744.12,-444 744.12,-456 744.12,-456 744.12,-462 738.12,-468 732.12,-468"/>
<text text-anchor="middle" x="676.12" y="-447.5" font-family="sans" font-size="10.00">create_hypothesis_fasta</text>
</g>
<!-- 20&#45;&gt;33 -->
<g id="edge45" class="edge">
<title>20&#45;&gt;33</title>
<path fill="none" stroke="grey" stroke-width="2" d="M603.85,-503.7C616.06,-494.8 631.1,-483.82 644.3,-474.2"/>
<polygon fill="grey" stroke="grey" stroke-width="2" points="646.64,-476.82 652.66,-468.1 642.52,-471.17 646.64,-476.82"/>
</g>
<!-- 36 -->
<g id="node37" class="node">
<title>36</title>
<path fill="none" stroke="#59d856" stroke-width="2" d="M540.12,-468C540.12,-468 488.12,-468 488.12,-468 482.12,-468 476.12,-462 476.12,-456 476.12,-456 476.12,-444 476.12,-444 476.12,-438 482.12,-432 488.12,-432 488.12,-432 540.12,-432 540.12,-432 546.12,-432 552.12,-438 552.12,-444 552.12,-444 552.12,-456 552.12,-456 552.12,-462 546.12,-468 540.12,-468"/>
<text text-anchor="middle" x="514.12" y="-447.5" font-family="sans" font-size="10.00">cafe5_setup</text>
</g>
<!-- 20&#45;&gt;36 -->
<g id="edge50" class="edge">
<title>20&#45;&gt;36</title>
<path fill="none" stroke="grey" stroke-width="2" d="M563.8,-503.7C555.81,-495.22 546.05,-484.86 537.3,-475.58"/>
<polygon fill="grey" stroke="grey" stroke-width="2" points="539.65,-472.98 530.25,-468.1 534.56,-477.78 539.65,-472.98"/>
</g>
<!-- 21 -->
<g id="node22" class="node">
<title>21</title>
<path fill="none" stroke="#56a9d8" stroke-width="2" d="M639.12,-612C639.12,-612 521.12,-612 521.12,-612 515.12,-612 509.12,-606 509.12,-600 509.12,-600 509.12,-588 509.12,-588 509.12,-582 515.12,-576 521.12,-576 521.12,-576 639.12,-576 639.12,-576 645.12,-576 651.12,-582 651.12,-588 651.12,-588 651.12,-600 651.12,-600 651.12,-606 645.12,-612 639.12,-612"/>
<text text-anchor="middle" x="580.12" y="-591.5" font-family="sans" font-size="10.00">hypothesis_species_trees</text>
</g>
<!-- 21&#45;&gt;20 -->
<g id="edge31" class="edge">
<title>21&#45;&gt;20</title>
<path fill="none" stroke="grey" stroke-width="2" d="M580.12,-575.7C580.12,-567.98 580.12,-558.71 580.12,-550.11"/>
<polygon fill="grey" stroke="grey" stroke-width="2" points="583.62,-550.1 580.12,-540.1 576.62,-550.1 583.62,-550.1"/>
</g>
<!-- 22 -->
<g id="node23" class="node">
<title>22</title>
<path fill="none" stroke="#8fd856" stroke-width="2" d="M625.62,-684C625.62,-684 534.62,-684 534.62,-684 528.62,-684 522.62,-678 522.62,-672 522.62,-672 522.62,-660 522.62,-660 522.62,-654 528.62,-648 534.62,-648 534.62,-648 625.62,-648 625.62,-648 631.62,-648 637.62,-654 637.62,-660 637.62,-660 637.62,-672 637.62,-672 637.62,-678 631.62,-684 625.62,-684"/>
<text text-anchor="middle" x="580.12" y="-663.5" font-family="sans" font-size="10.00">Orthofinder_cleanup</text>
</g>
<!-- 22&#45;&gt;21 -->
<g id="edge32" class="edge">
<title>22&#45;&gt;21</title>
<path fill="none" stroke="grey" stroke-width="2" d="M580.12,-647.7C580.12,-639.98 580.12,-630.71 580.12,-622.11"/>
<polygon fill="grey" stroke="grey" stroke-width="2" points="583.62,-622.1 580.12,-612.1 576.62,-622.1 583.62,-622.1"/>
</g>
<!-- 23 -->
<g id="node24" class="node">
<title>23</title>
<path fill="none" stroke="#5682d8" stroke-width="2" d="M635.12,-756C635.12,-756 525.12,-756 525.12,-756 519.12,-756 513.12,-750 513.12,-744 513.12,-744 513.12,-732 513.12,-732 513.12,-726 519.12,-720 525.12,-720 525.12,-720 635.12,-720 635.12,-720 641.12,-720 647.12,-726 647.12,-732 647.12,-732 647.12,-744 647.12,-744 647.12,-750 641.12,-756 635.12,-756"/>
<text text-anchor="middle" x="580.12" y="-735.5" font-family="sans" font-size="10.00">Orthofinder_orthologues</text>
</g>
<!-- 23&#45;&gt;22 -->
<g id="edge33" class="edge">
<title>23&#45;&gt;22</title>
<path fill="none" stroke="grey" stroke-width="2" d="M580.12,-719.7C580.12,-711.98 580.12,-702.71 580.12,-694.11"/>
<polygon fill="grey" stroke="grey" stroke-width="2" points="583.62,-694.1 580.12,-684.1 576.62,-694.1 583.62,-694.1"/>
</g>
<!-- 24 -->
<g id="node25" class="node">
<title>24</title>
<path fill="none" stroke="#5692d8" stroke-width="2" d="M619.12,-828C619.12,-828 541.12,-828 541.12,-828 535.12,-828 529.12,-822 529.12,-816 529.12,-816 529.12,-804 529.12,-804 529.12,-798 535.12,-792 541.12,-792 541.12,-792 619.12,-792 619.12,-792 625.12,-792 631.12,-798 631.12,-804 631.12,-804 631.12,-816 631.12,-816 631.12,-822 625.12,-828 619.12,-828"/>
<text text-anchor="middle" x="580.12" y="-807.5" font-family="sans" font-size="10.00">Orthofinder_Trees</text>
</g>
<!-- 24&#45;&gt;23 -->
<g id="edge34" class="edge">
<title>24&#45;&gt;23</title>
<path fill="none" stroke="grey" stroke-width="2" d="M580.12,-791.7C580.12,-783.98 580.12,-774.71 580.12,-766.11"/>
<polygon fill="grey" stroke="grey" stroke-width="2" points="583.62,-766.1 580.12,-756.1 576.62,-766.1 583.62,-766.1"/>
</g>
<!-- 25 -->
<g id="node26" class="node">
<title>25</title>
<path fill="none" stroke="#bed856" stroke-width="2" d="M635.62,-900C635.62,-900 524.62,-900 524.62,-900 518.62,-900 512.62,-894 512.62,-888 512.62,-888 512.62,-876 512.62,-876 512.62,-870 518.62,-864 524.62,-864 524.62,-864 635.62,-864 635.62,-864 641.62,-864 647.62,-870 647.62,-876 647.62,-876 647.62,-888 647.62,-888 647.62,-894 641.62,-900 635.62,-900"/>
<text text-anchor="middle" x="580.12" y="-879.5" font-family="sans" font-size="10.00">Orthofinder_orthogroups</text>
</g>
<!-- 25&#45;&gt;24 -->
<g id="edge35" class="edge">
<title>25&#45;&gt;24</title>
<path fill="none" stroke="grey" stroke-width="2" d="M580.12,-863.7C580.12,-855.98 580.12,-846.71 580.12,-838.11"/>
<polygon fill="grey" stroke="grey" stroke-width="2" points="583.62,-838.1 580.12,-828.1 576.62,-838.1 583.62,-838.1"/>
</g>
<!-- 26 -->
<g id="node27" class="node">
<title>26</title>
<path fill="none" stroke="#569ad8" stroke-width="2" d="M643.62,-972C643.62,-972 516.62,-972 516.62,-972 510.62,-972 504.62,-966 504.62,-960 504.62,-960 504.62,-948 504.62,-948 504.62,-942 510.62,-936 516.62,-936 516.62,-936 643.62,-936 643.62,-936 649.62,-936 655.62,-942 655.62,-948 655.62,-948 655.62,-960 655.62,-960 655.62,-966 649.62,-972 643.62,-972"/>
<text text-anchor="middle" x="580.12" y="-951.5" font-family="sans" font-size="10.00">Orthofinder_BLASTP_merge</text>
</g>
<!-- 26&#45;&gt;25 -->
<g id="edge36" class="edge">
<title>26&#45;&gt;25</title>
<path fill="none" stroke="grey" stroke-width="2" d="M580.12,-935.7C580.12,-927.98 580.12,-918.71 580.12,-910.11"/>
<polygon fill="grey" stroke="grey" stroke-width="2" points="583.62,-910.1 580.12,-900.1 576.62,-910.1 583.62,-910.1"/>
</g>
<!-- 27 -->
<g id="node28" class="node">
<title>27</title>
<path fill="none" stroke="#d8b456" stroke-width="2" d="M625.12,-1044C625.12,-1044 535.12,-1044 535.12,-1044 529.12,-1044 523.12,-1038 523.12,-1032 523.12,-1032 523.12,-1020 523.12,-1020 523.12,-1014 529.12,-1008 535.12,-1008 535.12,-1008 625.12,-1008 625.12,-1008 631.12,-1008 637.12,-1014 637.12,-1020 637.12,-1020 637.12,-1032 637.12,-1032 637.12,-1038 631.12,-1044 625.12,-1044"/>
<text text-anchor="middle" x="580.12" y="-1023.5" font-family="sans" font-size="10.00">Orthofinder_BLASTP</text>
</g>
<!-- 27&#45;&gt;26 -->
<g id="edge37" class="edge">
<title>27&#45;&gt;26</title>
<path fill="none" stroke="grey" stroke-width="2" d="M580.12,-1007.7C580.12,-999.98 580.12,-990.71 580.12,-982.11"/>
<polygon fill="grey" stroke="grey" stroke-width="2" points="583.62,-982.1 580.12,-972.1 576.62,-982.1 583.62,-982.1"/>
</g>
<!-- 28 -->
<g id="node29" class="node">
<title>28</title>
<path fill="none" stroke="#d88556" stroke-width="2" d="M589.12,-1260C589.12,-1260 499.12,-1260 499.12,-1260 493.12,-1260 487.12,-1254 487.12,-1248 487.12,-1248 487.12,-1236 487.12,-1236 487.12,-1230 493.12,-1224 499.12,-1224 499.12,-1224 589.12,-1224 589.12,-1224 595.12,-1224 601.12,-1230 601.12,-1236 601.12,-1236 601.12,-1248 601.12,-1248 601.12,-1254 595.12,-1260 589.12,-1260"/>
<text text-anchor="middle" x="544.12" y="-1239.5" font-family="sans" font-size="10.00">Orthofinder_prepare</text>
</g>
<!-- 28&#45;&gt;27 -->
<g id="edge38" class="edge">
<title>28&#45;&gt;27</title>
<path fill="none" stroke="grey" stroke-width="2" d="M535.97,-1223.71C522.85,-1193.29 500.61,-1128.79 522.12,-1080 527.1,-1068.69 535.83,-1058.74 545.02,-1050.62"/>
<polygon fill="grey" stroke="grey" stroke-width="2" points="547.29,-1053.28 552.78,-1044.23 542.84,-1047.88 547.29,-1053.28"/>
</g>
<!-- 31 -->
<g id="node32" class="node">
<title>31</title>
<path fill="none" stroke="#d8cb56" stroke-width="2" d="M626.62,-1188C626.62,-1188 543.62,-1188 543.62,-1188 537.62,-1188 531.62,-1182 531.62,-1176 531.62,-1176 531.62,-1164 531.62,-1164 531.62,-1158 537.62,-1152 543.62,-1152 543.62,-1152 626.62,-1152 626.62,-1152 632.62,-1152 638.62,-1158 638.62,-1164 638.62,-1164 638.62,-1176 638.62,-1176 638.62,-1182 632.62,-1188 626.62,-1188"/>
<text text-anchor="middle" x="585.12" y="-1167.5" font-family="sans" font-size="10.00">index_pep_FASTAs</text>
</g>
<!-- 28&#45;&gt;31 -->
<g id="edge43" class="edge">
<title>28&#45;&gt;31</title>
<path fill="none" stroke="grey" stroke-width="2" d="M554.25,-1223.7C558.97,-1215.64 564.68,-1205.89 569.9,-1196.98"/>
<polygon fill="grey" stroke="grey" stroke-width="2" points="573.07,-1198.5 575.1,-1188.1 567.03,-1194.96 573.07,-1198.5"/>
</g>
<!-- 29 -->
<g id="node30" class="node">
<title>29</title>
<path fill="none" stroke="#d6d856" stroke-width="2" d="M588.12,-1332C588.12,-1332 500.12,-1332 500.12,-1332 494.12,-1332 488.12,-1326 488.12,-1320 488.12,-1320 488.12,-1308 488.12,-1308 488.12,-1302 494.12,-1296 500.12,-1296 500.12,-1296 588.12,-1296 588.12,-1296 594.12,-1296 600.12,-1302 600.12,-1308 600.12,-1308 600.12,-1320 600.12,-1320 600.12,-1326 594.12,-1332 588.12,-1332"/>
<text text-anchor="middle" x="544.12" y="-1311.5" font-family="sans" font-size="10.00">Orthofinder_link_all</text>
</g>
<!-- 29&#45;&gt;28 -->
<g id="edge41" class="edge">
<title>29&#45;&gt;28</title>
<path fill="none" stroke="grey" stroke-width="2" d="M544.12,-1295.7C544.12,-1287.98 544.12,-1278.71 544.12,-1270.11"/>
<polygon fill="grey" stroke="grey" stroke-width="2" points="547.62,-1270.1 544.12,-1260.1 540.62,-1270.1 547.62,-1270.1"/>
</g>
<!-- 30 -->
<g id="node31" class="node">
<title>30</title>
<path fill="none" stroke="#56d87b" stroke-width="2" d="M575.62,-1404C575.62,-1404 512.62,-1404 512.62,-1404 506.62,-1404 500.62,-1398 500.62,-1392 500.62,-1392 500.62,-1380 500.62,-1380 500.62,-1374 506.62,-1368 512.62,-1368 512.62,-1368 575.62,-1368 575.62,-1368 581.62,-1368 587.62,-1374 587.62,-1380 587.62,-1380 587.62,-1392 587.62,-1392 587.62,-1398 581.62,-1404 575.62,-1404"/>
<text text-anchor="middle" x="544.12" y="-1383.5" font-family="sans" font-size="10.00">filter_isoforms</text>
</g>
<!-- 30&#45;&gt;29 -->
<g id="edge42" class="edge">
<title>30&#45;&gt;29</title>
<path fill="none" stroke="grey" stroke-width="2" d="M544.12,-1367.7C544.12,-1359.98 544.12,-1350.71 544.12,-1342.11"/>
<polygon fill="grey" stroke="grey" stroke-width="2" points="547.62,-1342.1 544.12,-1332.1 540.62,-1342.1 547.62,-1342.1"/>
</g>
<!-- 31&#45;&gt;27 -->
<g id="edge39" class="edge">
<title>31&#45;&gt;27</title>
<path fill="none" stroke="grey" stroke-width="2" d="M609.6,-1151.77C620.52,-1142.56 632.24,-1130.19 638.12,-1116 644.24,-1101.22 644.57,-1094.64 638.12,-1080 633.13,-1068.69 624.41,-1058.74 615.22,-1050.62"/>
<polygon fill="grey" stroke="grey" stroke-width="2" points="617.4,-1047.88 607.46,-1044.23 612.95,-1053.28 617.4,-1047.88"/>
</g>
<!-- 32 -->
<g id="node33" class="node">
<title>32</title>
<path fill="none" stroke="#d8ac56" stroke-width="2" d="M617.12,-1116C617.12,-1116 543.12,-1116 543.12,-1116 537.12,-1116 531.12,-1110 531.12,-1104 531.12,-1104 531.12,-1092 531.12,-1092 531.12,-1086 537.12,-1080 543.12,-1080 543.12,-1080 617.12,-1080 617.12,-1080 623.12,-1080 629.12,-1086 629.12,-1092 629.12,-1092 629.12,-1104 629.12,-1104 629.12,-1110 623.12,-1116 617.12,-1116"/>
<text text-anchor="middle" x="580.12" y="-1095.5" font-family="sans" font-size="10.00">Orthofinder_split</text>
</g>
<!-- 31&#45;&gt;32 -->
<g id="edge44" class="edge">
<title>31&#45;&gt;32</title>
<path fill="none" stroke="grey" stroke-width="2" d="M583.88,-1151.7C583.33,-1143.98 582.67,-1134.71 582.06,-1126.11"/>
<polygon fill="grey" stroke="grey" stroke-width="2" points="585.54,-1125.83 581.34,-1116.1 578.56,-1126.33 585.54,-1125.83"/>
</g>
<!-- 32&#45;&gt;27 -->
<g id="edge40" class="edge">
<title>32&#45;&gt;27</title>
<path fill="none" stroke="grey" stroke-width="2" d="M580.12,-1079.7C580.12,-1071.98 580.12,-1062.71 580.12,-1054.11"/>
<polygon fill="grey" stroke="grey" stroke-width="2" points="583.62,-1054.1 580.12,-1044.1 576.62,-1054.1 583.62,-1054.1"/>
</g>
<!-- 33&#45;&gt;19 -->
<g id="edge30" class="edge">
<title>33&#45;&gt;19</title>
<path fill="none" stroke="grey" stroke-width="2" d="M676.12,-431.7C676.12,-423.98 676.12,-414.71 676.12,-406.11"/>
<polygon fill="grey" stroke="grey" stroke-width="2" points="679.62,-406.1 676.12,-396.1 672.62,-406.1 679.62,-406.1"/>
</g>
<!-- 34 -->
<g id="node35" class="node">
<title>34</title>
<path fill="none" stroke="#d85656" stroke-width="2" d="M559.62,-180C559.62,-180 468.62,-180 468.62,-180 462.62,-180 456.62,-174 456.62,-168 456.62,-168 456.62,-156 456.62,-156 456.62,-150 462.62,-144 468.62,-144 468.62,-144 559.62,-144 559.62,-144 565.62,-144 571.62,-150 571.62,-156 571.62,-156 571.62,-168 571.62,-168 571.62,-174 565.62,-180 559.62,-180"/>
<text text-anchor="middle" x="514.12" y="-159.5" font-family="sans" font-size="10.00">cafe5_complete_set</text>
</g>
<!-- 34&#45;&gt;12 -->
<g id="edge21" class="edge">
<title>34&#45;&gt;12</title>
<path fill="none" stroke="grey" stroke-width="2" d="M497.31,-143.7C488.99,-135.14 478.81,-124.66 469.73,-115.3"/>
<polygon fill="grey" stroke="grey" stroke-width="2" points="472.21,-112.84 462.73,-108.1 467.19,-117.72 472.21,-112.84"/>
</g>
<!-- 35 -->
<g id="node36" class="node">
<title>35</title>
<path fill="none" stroke="#9fd856" stroke-width="2" d="M570.62,-396C570.62,-396 457.62,-396 457.62,-396 451.62,-396 445.62,-390 445.62,-384 445.62,-384 445.62,-372 445.62,-372 445.62,-366 451.62,-360 457.62,-360 457.62,-360 570.62,-360 570.62,-360 576.62,-360 582.62,-366 582.62,-372 582.62,-372 582.62,-384 582.62,-384 582.62,-390 576.62,-396 570.62,-396"/>
<text text-anchor="middle" x="514.12" y="-375.5" font-family="sans" font-size="10.00">ultrametric_species_tree</text>
</g>
<!-- 35&#45;&gt;34 -->
<g id="edge47" class="edge">
<title>35&#45;&gt;34</title>
<path fill="none" stroke="grey" stroke-width="2" d="M505.76,-359.89C492.4,-330.27 469.12,-267.65 483.12,-216 485.7,-206.48 490.46,-196.92 495.5,-188.59"/>
<polygon fill="grey" stroke="grey" stroke-width="2" points="498.5,-190.39 500.97,-180.09 492.61,-186.6 498.5,-190.39"/>
</g>
<!-- 37 -->
<g id="node38" class="node">
<title>37</title>
<path fill="none" stroke="#566bd8" stroke-width="2" d="M635.62,-324C635.62,-324 542.62,-324 542.62,-324 536.62,-324 530.62,-318 530.62,-312 530.62,-312 530.62,-300 530.62,-300 530.62,-294 536.62,-288 542.62,-288 542.62,-288 635.62,-288 635.62,-288 641.62,-288 647.62,-294 647.62,-300 647.62,-300 647.62,-312 647.62,-312 647.62,-318 641.62,-324 635.62,-324"/>
<text text-anchor="middle" x="589.12" y="-303.5" font-family="sans" font-size="10.00">reformat_HOG_table</text>
</g>
<!-- 35&#45;&gt;37 -->
<g id="edge51" class="edge">
<title>35&#45;&gt;37</title>
<path fill="none" stroke="grey" stroke-width="2" d="M532.66,-359.7C541.92,-351.05 553.28,-340.45 563.38,-331.03"/>
<polygon fill="grey" stroke="grey" stroke-width="2" points="565.87,-333.49 570.79,-324.1 561.09,-328.37 565.87,-333.49"/>
</g>
<!-- 38 -->
<g id="node39" class="node">
<title>38</title>
<path fill="none" stroke="#56c1d8" stroke-width="2" d="M584.12,-252C584.12,-252 504.12,-252 504.12,-252 498.12,-252 492.12,-246 492.12,-240 492.12,-240 492.12,-228 492.12,-228 492.12,-222 498.12,-216 504.12,-216 504.12,-216 584.12,-216 584.12,-216 590.12,-216 596.12,-222 596.12,-228 596.12,-228 596.12,-240 596.12,-240 596.12,-246 590.12,-252 584.12,-252"/>
<text text-anchor="middle" x="544.12" y="-231.5" font-family="sans" font-size="10.00">cafe5_filtered_set</text>
</g>
<!-- 35&#45;&gt;38 -->
<g id="edge52" class="edge">
<title>35&#45;&gt;38</title>
<path fill="none" stroke="grey" stroke-width="2" d="M514.13,-359.68C514.5,-341.56 516.11,-312.4 522.12,-288 524.31,-279.1 527.77,-269.75 531.3,-261.43"/>
<polygon fill="grey" stroke="grey" stroke-width="2" points="534.53,-262.77 535.41,-252.21 528.14,-259.92 534.53,-262.77"/>
</g>
<!-- 36&#45;&gt;35 -->
<g id="edge49" class="edge">
<title>36&#45;&gt;35</title>
<path fill="none" stroke="grey" stroke-width="2" d="M514.12,-431.7C514.12,-423.98 514.12,-414.71 514.12,-406.11"/>
<polygon fill="grey" stroke="grey" stroke-width="2" points="517.62,-406.1 514.12,-396.1 510.62,-406.1 517.62,-406.1"/>
</g>
<!-- 37&#45;&gt;34 -->
<g id="edge48" class="edge">
<title>37&#45;&gt;34</title>
<path fill="none" stroke="grey" stroke-width="2" d="M598.64,-287.77C607.65,-268.94 618.03,-238.46 605.12,-216 597.64,-202.99 585.61,-192.88 572.71,-185.14"/>
<polygon fill="grey" stroke="grey" stroke-width="2" points="574.13,-181.93 563.68,-180.15 570.74,-188.05 574.13,-181.93"/>
</g>
<!-- 37&#45;&gt;38 -->
<g id="edge53" class="edge">
<title>37&#45;&gt;38</title>
<path fill="none" stroke="grey" stroke-width="2" d="M577.99,-287.7C572.76,-279.56 566.42,-269.69 560.64,-260.7"/>
<polygon fill="grey" stroke="grey" stroke-width="2" points="563.47,-258.62 555.11,-252.1 557.58,-262.41 563.47,-258.62"/>
</g>
<!-- 38&#45;&gt;34 -->
<g id="edge46" class="edge">
<title>38&#45;&gt;34</title>
<path fill="none" stroke="grey" stroke-width="2" d="M536.7,-215.7C533.32,-207.81 529.25,-198.3 525.5,-189.55"/>
<polygon fill="grey" stroke="grey" stroke-width="2" points="528.61,-187.92 521.45,-180.1 522.17,-190.67 528.61,-187.92"/>
</g>
</g>
</svg>
