<?xml version="1.0" encoding="UTF-8" standalone="no"?>
<!DOCTYPE svg PUBLIC "-//W3C//DTD SVG 1.1//EN"
 "http://www.w3.org/Graphics/SVG/1.1/DTD/svg11.dtd">
<!-- Generated by graphviz version 2.48.0 (20210717.2242)
 -->
<!-- Title: snakemake_dag Pages: 1 -->
<svg width="905pt" height="1484pt"
 viewBox="0.00 0.00 905.00 1484.00" xmlns="http://www.w3.org/2000/svg" xmlns:xlink="http://www.w3.org/1999/xlink">
<g id="graph0" class="graph" transform="scale(1 1) rotate(0) translate(4 1480)">
<title>snakemake_dag</title>
<polygon fill="white" stroke="transparent" points="-4,4 -4,-1480 901,-1480 901,4 -4,4"/>
<!-- 0 -->
<g id="node1" class="node">
<title>0</title>
<path fill="none" stroke="#d8cb56" stroke-width="2" d="M399,-36C399,-36 369,-36 369,-36 363,-36 357,-30 357,-24 357,-24 357,-12 357,-12 357,-6 363,0 369,0 369,0 399,0 399,0 405,0 411,-6 411,-12 411,-12 411,-24 411,-24 411,-30 405,-36 399,-36"/>
<text text-anchor="middle" x="384" y="-15.5" font-family="sans" font-size="10.00">all</text>
</g>
<!-- 1 -->
<g id="node2" class="node">
<title>1</title>
<path fill="none" stroke="#d87556" stroke-width="2" d="M274,-324C274,-324 244,-324 244,-324 238,-324 232,-318 232,-312 232,-312 232,-300 232,-300 232,-294 238,-288 244,-288 244,-288 274,-288 274,-288 280,-288 286,-294 286,-300 286,-300 286,-312 286,-312 286,-318 280,-324 274,-324"/>
<text text-anchor="middle" x="259" y="-303.5" font-family="sans" font-size="10.00">multiqc</text>
</g>
<!-- 1&#45;&gt;0 -->
<g id="edge1" class="edge">
<title>1&#45;&gt;0</title>
<path fill="none" stroke="grey" stroke-width="2" d="M266.44,-287.97C287.41,-239.99 347.07,-103.5 372.4,-45.54"/>
<polygon fill="grey" stroke="grey" stroke-width="2" points="375.64,-46.87 376.44,-36.31 369.22,-44.07 375.64,-46.87"/>
</g>
<!-- 2 -->
<g id="node3" class="node">
<title>2</title>
<path fill="none" stroke="#d8d356" stroke-width="2" d="M241,-468C241,-468 191,-468 191,-468 185,-468 179,-462 179,-456 179,-456 179,-444 179,-444 179,-438 185,-432 191,-432 191,-432 241,-432 241,-432 247,-432 253,-438 253,-444 253,-444 253,-456 253,-456 253,-462 247,-468 241,-468"/>
<text text-anchor="middle" x="216" y="-447.5" font-family="sans" font-size="10.00">FastQC_raw</text>
</g>
<!-- 2&#45;&gt;1 -->
<g id="edge9" class="edge">
<title>2&#45;&gt;1</title>
<path fill="none" stroke="grey" stroke-width="2" d="M221.19,-431.87C228.55,-407.56 242.1,-362.82 250.82,-334.01"/>
<polygon fill="grey" stroke="grey" stroke-width="2" points="254.25,-334.77 253.79,-324.19 247.55,-332.75 254.25,-334.77"/>
</g>
<!-- 3 -->
<g id="node4" class="node">
<title>3</title>
<path fill="none" stroke="#d87d56" stroke-width="2" d="M209,-396C209,-396 135,-396 135,-396 129,-396 123,-390 123,-384 123,-384 123,-372 123,-372 123,-366 129,-360 135,-360 135,-360 209,-360 209,-360 215,-360 221,-366 221,-372 221,-372 221,-384 221,-384 221,-390 215,-396 209,-396"/>
<text text-anchor="middle" x="172" y="-375.5" font-family="sans" font-size="10.00">FastQC_trimmed</text>
</g>
<!-- 2&#45;&gt;3 -->
<g id="edge11" class="edge">
<title>2&#45;&gt;3</title>
<path fill="none" stroke="grey" stroke-width="2" d="M205.12,-431.7C200.01,-423.56 193.8,-413.69 188.16,-404.7"/>
<polygon fill="grey" stroke="grey" stroke-width="2" points="191.04,-402.71 182.75,-396.1 185.11,-406.43 191.04,-402.71"/>
</g>
<!-- 3&#45;&gt;1 -->
<g id="edge5" class="edge">
<title>3&#45;&gt;1</title>
<path fill="none" stroke="grey" stroke-width="2" d="M193.51,-359.7C204.46,-350.88 217.95,-340.03 229.82,-330.47"/>
<polygon fill="grey" stroke="grey" stroke-width="2" points="232.14,-333.1 237.74,-324.1 227.76,-327.65 232.14,-333.1"/>
</g>
<!-- 4 -->
<g id="node5" class="node">
<title>4</title>
<path fill="none" stroke="#d8ac56" stroke-width="2" d="M236.5,-540C236.5,-540 135.5,-540 135.5,-540 129.5,-540 123.5,-534 123.5,-528 123.5,-528 123.5,-516 123.5,-516 123.5,-510 129.5,-504 135.5,-504 135.5,-504 236.5,-504 236.5,-504 242.5,-504 248.5,-510 248.5,-516 248.5,-516 248.5,-528 248.5,-528 248.5,-534 242.5,-540 236.5,-540"/>
<text text-anchor="middle" x="186" y="-519.5" font-family="sans" font-size="10.00">Trimmomatic_cleanup</text>
</g>
<!-- 4&#45;&gt;3 -->
<g id="edge10" class="edge">
<title>4&#45;&gt;3</title>
<path fill="none" stroke="grey" stroke-width="2" d="M179.35,-503.63C175.8,-493.42 171.8,-480.17 170,-468 166.97,-447.49 167.67,-424.03 169.01,-406.35"/>
<polygon fill="grey" stroke="grey" stroke-width="2" points="172.52,-406.44 169.91,-396.17 165.55,-405.82 172.52,-406.44"/>
</g>
<!-- 7 -->
<g id="node8" class="node">
<title>7</title>
<path fill="none" stroke="#5682d8" stroke-width="2" d="M473.5,-468C473.5,-468 412.5,-468 412.5,-468 406.5,-468 400.5,-462 400.5,-456 400.5,-456 400.5,-444 400.5,-444 400.5,-438 406.5,-432 412.5,-432 412.5,-432 473.5,-432 473.5,-432 479.5,-432 485.5,-438 485.5,-444 485.5,-444 485.5,-456 485.5,-456 485.5,-462 479.5,-468 473.5,-468"/>
<text text-anchor="middle" x="443" y="-447.5" font-family="sans" font-size="10.00">kallisto_quant</text>
</g>
<!-- 4&#45;&gt;7 -->
<g id="edge14" class="edge">
<title>4&#45;&gt;7</title>
<path fill="none" stroke="grey" stroke-width="2" d="M248.54,-503.97C292.05,-492.11 349.41,-476.49 390.54,-465.29"/>
<polygon fill="grey" stroke="grey" stroke-width="2" points="391.63,-468.62 400.36,-462.61 389.79,-461.86 391.63,-468.62"/>
</g>
<!-- 10 -->
<g id="node11" class="node">
<title>10</title>
<path fill="none" stroke="#a7d856" stroke-width="2" d="M330.5,-468C330.5,-468 283.5,-468 283.5,-468 277.5,-468 271.5,-462 271.5,-456 271.5,-456 271.5,-444 271.5,-444 271.5,-438 277.5,-432 283.5,-432 283.5,-432 330.5,-432 330.5,-432 336.5,-432 342.5,-438 342.5,-444 342.5,-444 342.5,-456 342.5,-456 342.5,-462 336.5,-468 330.5,-468"/>
<text text-anchor="middle" x="307" y="-447.5" font-family="sans" font-size="10.00">STAR_align</text>
</g>
<!-- 4&#45;&gt;10 -->
<g id="edge17" class="edge">
<title>4&#45;&gt;10</title>
<path fill="none" stroke="grey" stroke-width="2" d="M215.6,-503.88C231.57,-494.64 251.46,-483.13 268.61,-473.21"/>
<polygon fill="grey" stroke="grey" stroke-width="2" points="270.38,-476.23 277.29,-468.19 266.88,-470.17 270.38,-476.23"/>
</g>
<!-- 5 -->
<g id="node6" class="node">
<title>5</title>
<path fill="none" stroke="#afd856" stroke-width="2" d="M202,-612C202,-612 128,-612 128,-612 122,-612 116,-606 116,-600 116,-600 116,-588 116,-588 116,-582 122,-576 128,-576 128,-576 202,-576 202,-576 208,-576 214,-582 214,-588 214,-588 214,-600 214,-600 214,-606 208,-612 202,-612"/>
<text text-anchor="middle" x="165" y="-591.5" font-family="sans" font-size="10.00">Trimmomatic_SE</text>
</g>
<!-- 5&#45;&gt;1 -->
<g id="edge3" class="edge">
<title>5&#45;&gt;1</title>
<path fill="none" stroke="grey" stroke-width="2" d="M142.45,-575.95C131.99,-566.61 120.65,-554.09 115,-540 85.21,-465.75 68.16,-425.56 114,-360 138.15,-325.46 187.33,-313.36 221.69,-309.16"/>
<polygon fill="grey" stroke="grey" stroke-width="2" points="222.25,-312.62 231.83,-308.09 221.52,-305.66 222.25,-312.62"/>
</g>
<!-- 5&#45;&gt;4 -->
<g id="edge13" class="edge">
<title>5&#45;&gt;4</title>
<path fill="none" stroke="grey" stroke-width="2" d="M170.19,-575.7C172.53,-567.9 175.35,-558.51 177.95,-549.83"/>
<polygon fill="grey" stroke="grey" stroke-width="2" points="181.35,-550.69 180.87,-540.1 174.64,-548.68 181.35,-550.69"/>
</g>
<!-- 6 -->
<g id="node7" class="node">
<title>6</title>
<path fill="none" stroke="#d8b456" stroke-width="2" d="M86,-612C86,-612 12,-612 12,-612 6,-612 0,-606 0,-600 0,-600 0,-588 0,-588 0,-582 6,-576 12,-576 12,-576 86,-576 86,-576 92,-576 98,-582 98,-588 98,-588 98,-600 98,-600 98,-606 92,-612 86,-612"/>
<text text-anchor="middle" x="49" y="-591.5" font-family="sans" font-size="10.00">Trimmomatic_PE</text>
</g>
<!-- 6&#45;&gt;1 -->
<g id="edge8" class="edge">
<title>6&#45;&gt;1</title>
<path fill="none" stroke="grey" stroke-width="2" d="M46.54,-575.86C41.51,-533.54 34.72,-422.96 90,-360 123.1,-322.3 182.66,-311.13 221.5,-307.98"/>
<polygon fill="grey" stroke="grey" stroke-width="2" points="222.12,-311.45 231.87,-307.29 221.66,-304.46 222.12,-311.45"/>
</g>
<!-- 6&#45;&gt;4 -->
<g id="edge12" class="edge">
<title>6&#45;&gt;4</title>
<path fill="none" stroke="grey" stroke-width="2" d="M82.51,-575.88C100.84,-566.51 123.74,-554.81 143.33,-544.8"/>
<polygon fill="grey" stroke="grey" stroke-width="2" points="145.04,-547.86 152.36,-540.19 141.86,-541.62 145.04,-547.86"/>
</g>
<!-- 7&#45;&gt;1 -->
<g id="edge6" class="edge">
<title>7&#45;&gt;1</title>
<path fill="none" stroke="grey" stroke-width="2" d="M441.04,-431.91C437.88,-412.05 429.86,-379.52 410,-360 407.86,-357.9 339.71,-334.45 295.71,-319.46"/>
<polygon fill="grey" stroke="grey" stroke-width="2" points="296.77,-316.12 286.18,-316.21 294.52,-322.75 296.77,-316.12"/>
</g>
<!-- 19 -->
<g id="node20" class="node">
<title>19</title>
<path fill="none" stroke="#568ad8" stroke-width="2" d="M559,-396C559,-396 469,-396 469,-396 463,-396 457,-390 457,-384 457,-384 457,-372 457,-372 457,-366 463,-360 469,-360 469,-360 559,-360 559,-360 565,-360 571,-366 571,-372 571,-372 571,-384 571,-384 571,-390 565,-396 559,-396"/>
<text text-anchor="middle" x="514" y="-375.5" font-family="sans" font-size="10.00">tximport_and_setup</text>
</g>
<!-- 7&#45;&gt;19 -->
<g id="edge31" class="edge">
<title>7&#45;&gt;19</title>
<path fill="none" stroke="grey" stroke-width="2" d="M460.55,-431.7C469.23,-423.14 479.86,-412.66 489.35,-403.3"/>
<polygon fill="grey" stroke="grey" stroke-width="2" points="491.99,-405.62 496.65,-396.1 487.07,-400.63 491.99,-405.62"/>
</g>
<!-- 8 -->
<g id="node9" class="node">
<title>8</title>
<path fill="none" stroke="#56c9d8" stroke-width="2" d="M616,-540C616,-540 556,-540 556,-540 550,-540 544,-534 544,-528 544,-528 544,-516 544,-516 544,-510 550,-504 556,-504 556,-504 616,-504 616,-504 622,-504 628,-510 628,-516 628,-516 628,-528 628,-528 628,-534 622,-540 616,-540"/>
<text text-anchor="middle" x="586" y="-519.5" font-family="sans" font-size="10.00">kallisto_index</text>
</g>
<!-- 8&#45;&gt;7 -->
<g id="edge15" class="edge">
<title>8&#45;&gt;7</title>
<path fill="none" stroke="grey" stroke-width="2" d="M551.02,-503.88C531.8,-494.47 507.77,-482.71 487.26,-472.67"/>
<polygon fill="grey" stroke="grey" stroke-width="2" points="488.64,-469.44 478.12,-468.19 485.56,-475.73 488.64,-469.44"/>
</g>
<!-- 9 -->
<g id="node10" class="node">
<title>9</title>
<path fill="none" stroke="#56c1d8" stroke-width="2" d="M635.5,-612C635.5,-612 542.5,-612 542.5,-612 536.5,-612 530.5,-606 530.5,-600 530.5,-600 530.5,-588 530.5,-588 530.5,-582 536.5,-576 542.5,-576 542.5,-576 635.5,-576 635.5,-576 641.5,-576 647.5,-582 647.5,-588 647.5,-588 647.5,-600 647.5,-600 647.5,-606 641.5,-612 635.5,-612"/>
<text text-anchor="middle" x="589" y="-591.5" font-family="sans" font-size="10.00">cdna_fasta_handling</text>
</g>
<!-- 9&#45;&gt;8 -->
<g id="edge16" class="edge">
<title>9&#45;&gt;8</title>
<path fill="none" stroke="grey" stroke-width="2" d="M588.26,-575.7C587.93,-567.98 587.53,-558.71 587.16,-550.11"/>
<polygon fill="grey" stroke="grey" stroke-width="2" points="590.66,-549.95 586.73,-540.1 583.66,-550.25 590.66,-549.95"/>
</g>
<!-- 10&#45;&gt;1 -->
<g id="edge4" class="edge">
<title>10&#45;&gt;1</title>
<path fill="none" stroke="grey" stroke-width="2" d="M301.21,-431.87C292.99,-407.56 277.87,-362.82 268.13,-334.01"/>
<polygon fill="grey" stroke="grey" stroke-width="2" points="271.33,-332.54 264.81,-324.19 264.7,-334.78 271.33,-332.54"/>
</g>
<!-- 15 -->
<g id="node16" class="node">
<title>15</title>
<path fill="none" stroke="#70d856" stroke-width="2" d="M389,-396C389,-396 327,-396 327,-396 321,-396 315,-390 315,-384 315,-384 315,-372 315,-372 315,-366 321,-360 327,-360 327,-360 389,-360 389,-360 395,-360 401,-366 401,-372 401,-372 401,-384 401,-384 401,-390 395,-396 389,-396"/>
<text text-anchor="middle" x="358" y="-375.5" font-family="sans" font-size="10.00">featureCounts</text>
</g>
<!-- 10&#45;&gt;15 -->
<g id="edge23" class="edge">
<title>10&#45;&gt;15</title>
<path fill="none" stroke="grey" stroke-width="2" d="M319.61,-431.7C325.6,-423.47 332.88,-413.48 339.48,-404.42"/>
<polygon fill="grey" stroke="grey" stroke-width="2" points="342.48,-406.25 345.54,-396.1 336.82,-402.13 342.48,-406.25"/>
</g>
<!-- 11 -->
<g id="node12" class="node">
<title>11</title>
<path fill="none" stroke="#78d856" stroke-width="2" d="M332,-540C332,-540 282,-540 282,-540 276,-540 270,-534 270,-528 270,-528 270,-516 270,-516 270,-510 276,-504 282,-504 282,-504 332,-504 332,-504 338,-504 344,-510 344,-516 344,-516 344,-528 344,-528 344,-534 338,-540 332,-540"/>
<text text-anchor="middle" x="307" y="-519.5" font-family="sans" font-size="10.00">STAR_index</text>
</g>
<!-- 11&#45;&gt;10 -->
<g id="edge18" class="edge">
<title>11&#45;&gt;10</title>
<path fill="none" stroke="grey" stroke-width="2" d="M307,-503.7C307,-495.98 307,-486.71 307,-478.11"/>
<polygon fill="grey" stroke="grey" stroke-width="2" points="310.5,-478.1 307,-468.1 303.5,-478.1 310.5,-478.1"/>
</g>
<!-- 12 -->
<g id="node13" class="node">
<title>12</title>
<path fill="none" stroke="#56a2d8" stroke-width="2" d="M332,-612C332,-612 244,-612 244,-612 238,-612 232,-606 232,-600 232,-600 232,-588 232,-588 232,-582 238,-576 244,-576 244,-576 332,-576 332,-576 338,-576 344,-582 344,-588 344,-588 344,-600 344,-600 344,-606 338,-612 332,-612"/>
<text text-anchor="middle" x="288" y="-591.5" font-family="sans" font-size="10.00">gen_fasta_handling</text>
</g>
<!-- 12&#45;&gt;11 -->
<g id="edge20" class="edge">
<title>12&#45;&gt;11</title>
<path fill="none" stroke="grey" stroke-width="2" d="M292.7,-575.7C294.81,-567.9 297.36,-558.51 299.72,-549.83"/>
<polygon fill="grey" stroke="grey" stroke-width="2" points="303.12,-550.67 302.36,-540.1 296.36,-548.84 303.12,-550.67"/>
</g>
<!-- 13 -->
<g id="node14" class="node">
<title>13</title>
<path fill="none" stroke="#56d87b" stroke-width="2" d="M500,-612C500,-612 374,-612 374,-612 368,-612 362,-606 362,-600 362,-600 362,-588 362,-588 362,-582 368,-576 374,-576 374,-576 500,-576 500,-576 506,-576 512,-582 512,-588 512,-588 512,-600 512,-600 512,-606 506,-612 500,-612"/>
<text text-anchor="middle" x="437" y="-591.5" font-family="sans" font-size="10.00">annotation_standardization</text>
</g>
<!-- 13&#45;&gt;11 -->
<g id="edge19" class="edge">
<title>13&#45;&gt;11</title>
<path fill="none" stroke="grey" stroke-width="2" d="M405.2,-575.88C387.89,-566.55 366.28,-554.92 347.74,-544.94"/>
<polygon fill="grey" stroke="grey" stroke-width="2" points="349.39,-541.85 338.92,-540.19 346.07,-548.01 349.39,-541.85"/>
</g>
<!-- 13&#45;&gt;15 -->
<g id="edge22" class="edge">
<title>13&#45;&gt;15</title>
<path fill="none" stroke="grey" stroke-width="2" d="M430.67,-575.85C416.95,-538.68 384.37,-450.44 367.9,-405.82"/>
<polygon fill="grey" stroke="grey" stroke-width="2" points="371.11,-404.4 364.36,-396.23 364.54,-406.83 371.11,-404.4"/>
</g>
<!-- 13&#45;&gt;19 -->
<g id="edge30" class="edge">
<title>13&#45;&gt;19</title>
<path fill="none" stroke="grey" stroke-width="2" d="M446.54,-575.71C459.25,-552.04 481.66,-507.94 495,-468 501.79,-447.68 506.72,-423.91 509.85,-406.05"/>
<polygon fill="grey" stroke="grey" stroke-width="2" points="513.33,-406.47 511.53,-396.03 506.42,-405.32 513.33,-406.47"/>
</g>
<!-- 14 -->
<g id="node15" class="node">
<title>14</title>
<path fill="none" stroke="#bed856" stroke-width="2" d="M483,-684C483,-684 391,-684 391,-684 385,-684 379,-678 379,-672 379,-672 379,-660 379,-660 379,-654 385,-648 391,-648 391,-648 483,-648 483,-648 489,-648 495,-654 495,-660 495,-660 495,-672 495,-672 495,-678 489,-684 483,-684"/>
<text text-anchor="middle" x="437" y="-663.5" font-family="sans" font-size="10.00">annotation_handling</text>
</g>
<!-- 14&#45;&gt;13 -->
<g id="edge21" class="edge">
<title>14&#45;&gt;13</title>
<path fill="none" stroke="grey" stroke-width="2" d="M437,-647.7C437,-639.98 437,-630.71 437,-622.11"/>
<polygon fill="grey" stroke="grey" stroke-width="2" points="440.5,-622.1 437,-612.1 433.5,-622.1 440.5,-622.1"/>
</g>
<!-- 15&#45;&gt;1 -->
<g id="edge7" class="edge">
<title>15&#45;&gt;1</title>
<path fill="none" stroke="grey" stroke-width="2" d="M333.78,-359.88C321.08,-350.89 305.34,-339.76 291.58,-330.03"/>
<polygon fill="grey" stroke="grey" stroke-width="2" points="293.5,-327.11 283.31,-324.19 289.46,-332.82 293.5,-327.11"/>
</g>
<!-- 21 -->
<g id="node22" class="node">
<title>21</title>
<path fill="none" stroke="#56d8b1" stroke-width="2" d="M392,-324C392,-324 330,-324 330,-324 324,-324 318,-318 318,-312 318,-312 318,-300 318,-300 318,-294 324,-288 330,-288 330,-288 392,-288 392,-288 398,-288 404,-294 404,-300 404,-300 404,-312 404,-312 404,-318 398,-324 392,-324"/>
<text text-anchor="middle" x="361" y="-303.5" font-family="sans" font-size="10.00">merge_counts</text>
</g>
<!-- 15&#45;&gt;21 -->
<g id="edge33" class="edge">
<title>15&#45;&gt;21</title>
<path fill="none" stroke="grey" stroke-width="2" d="M358.74,-359.7C359.07,-351.98 359.47,-342.71 359.84,-334.11"/>
<polygon fill="grey" stroke="grey" stroke-width="2" points="363.34,-334.25 360.27,-324.1 356.34,-333.95 363.34,-334.25"/>
</g>
<!-- 16 -->
<g id="node17" class="node">
<title>16</title>
<path fill="none" stroke="#d8a456" stroke-width="2" d="M577.5,-108C577.5,-108 506.5,-108 506.5,-108 500.5,-108 494.5,-102 494.5,-96 494.5,-96 494.5,-84 494.5,-84 494.5,-78 500.5,-72 506.5,-72 506.5,-72 577.5,-72 577.5,-72 583.5,-72 589.5,-78 589.5,-84 589.5,-84 589.5,-96 589.5,-96 589.5,-102 583.5,-108 577.5,-108"/>
<text text-anchor="middle" x="542" y="-87.5" font-family="sans" font-size="10.00">final_tea_output</text>
</g>
<!-- 16&#45;&gt;0 -->
<g id="edge2" class="edge">
<title>16&#45;&gt;0</title>
<path fill="none" stroke="grey" stroke-width="2" d="M503.35,-71.88C478.19,-60.73 445.56,-46.27 420.78,-35.29"/>
<polygon fill="grey" stroke="grey" stroke-width="2" points="421.92,-31.97 411.36,-31.12 419.08,-38.37 421.92,-31.97"/>
</g>
<!-- 17 -->
<g id="node18" class="node">
<title>17</title>
<path fill="none" stroke="#d8c356" stroke-width="2" d="M509.5,-180C509.5,-180 430.5,-180 430.5,-180 424.5,-180 418.5,-174 418.5,-168 418.5,-168 418.5,-156 418.5,-156 418.5,-150 424.5,-144 430.5,-144 430.5,-144 509.5,-144 509.5,-144 515.5,-144 521.5,-150 521.5,-156 521.5,-156 521.5,-168 521.5,-168 521.5,-174 515.5,-180 509.5,-180"/>
<text text-anchor="middle" x="470" y="-159.5" font-family="sans" font-size="10.00">deseq2_complete</text>
</g>
<!-- 17&#45;&gt;16 -->
<g id="edge25" class="edge">
<title>17&#45;&gt;16</title>
<path fill="none" stroke="grey" stroke-width="2" d="M487.8,-143.7C496.6,-135.14 507.38,-124.66 517,-115.3"/>
<polygon fill="grey" stroke="grey" stroke-width="2" points="519.68,-117.58 524.41,-108.1 514.8,-112.57 519.68,-117.58"/>
</g>
<!-- 18 -->
<g id="node19" class="node">
<title>18</title>
<path fill="none" stroke="#56b9d8" stroke-width="2" d="M499.5,-252C499.5,-252 440.5,-252 440.5,-252 434.5,-252 428.5,-246 428.5,-240 428.5,-240 428.5,-228 428.5,-228 428.5,-222 434.5,-216 440.5,-216 440.5,-216 499.5,-216 499.5,-216 505.5,-216 511.5,-222 511.5,-228 511.5,-228 511.5,-240 511.5,-240 511.5,-246 505.5,-252 499.5,-252"/>
<text text-anchor="middle" x="470" y="-231.5" font-family="sans" font-size="10.00">cdna_DESeq2</text>
</g>
<!-- 18&#45;&gt;17 -->
<g id="edge27" class="edge">
<title>18&#45;&gt;17</title>
<path fill="none" stroke="grey" stroke-width="2" d="M470,-215.7C470,-207.98 470,-198.71 470,-190.11"/>
<polygon fill="grey" stroke="grey" stroke-width="2" points="473.5,-190.1 470,-180.1 466.5,-190.1 473.5,-190.1"/>
</g>
<!-- 19&#45;&gt;18 -->
<g id="edge29" class="edge">
<title>19&#45;&gt;18</title>
<path fill="none" stroke="grey" stroke-width="2" d="M508.69,-359.87C501.16,-335.56 487.3,-290.82 478.37,-262.01"/>
<polygon fill="grey" stroke="grey" stroke-width="2" points="481.63,-260.71 475.33,-252.19 474.94,-262.78 481.63,-260.71"/>
</g>
<!-- 20 -->
<g id="node21" class="node">
<title>20</title>
<path fill="none" stroke="#56d892" stroke-width="2" d="M394.5,-252C394.5,-252 341.5,-252 341.5,-252 335.5,-252 329.5,-246 329.5,-240 329.5,-240 329.5,-228 329.5,-228 329.5,-222 335.5,-216 341.5,-216 341.5,-216 394.5,-216 394.5,-216 400.5,-216 406.5,-222 406.5,-228 406.5,-228 406.5,-240 406.5,-240 406.5,-246 400.5,-252 394.5,-252"/>
<text text-anchor="middle" x="368" y="-231.5" font-family="sans" font-size="10.00">gen_DESeq2</text>
</g>
<!-- 20&#45;&gt;17 -->
<g id="edge28" class="edge">
<title>20&#45;&gt;17</title>
<path fill="none" stroke="grey" stroke-width="2" d="M392.95,-215.88C406.04,-206.89 422.26,-195.76 436.44,-186.03"/>
<polygon fill="grey" stroke="grey" stroke-width="2" points="438.69,-188.73 444.95,-180.19 434.73,-182.96 438.69,-188.73"/>
</g>
<!-- 21&#45;&gt;20 -->
<g id="edge32" class="edge">
<title>21&#45;&gt;20</title>
<path fill="none" stroke="grey" stroke-width="2" d="M362.73,-287.7C363.5,-279.98 364.43,-270.71 365.29,-262.11"/>
<polygon fill="grey" stroke="grey" stroke-width="2" points="368.78,-262.4 366.29,-252.1 361.81,-261.71 368.78,-262.4"/>
</g>
<!-- 22 -->
<g id="node23" class="node">
<title>22</title>
<path fill="none" stroke="#56d873" stroke-width="2" d="M844.5,-180C844.5,-180 711.5,-180 711.5,-180 705.5,-180 699.5,-174 699.5,-168 699.5,-168 699.5,-156 699.5,-156 699.5,-150 705.5,-144 711.5,-144 711.5,-144 844.5,-144 844.5,-144 850.5,-144 856.5,-150 856.5,-156 856.5,-156 856.5,-168 856.5,-168 856.5,-174 850.5,-180 844.5,-180"/>
<text text-anchor="middle" x="778" y="-159.5" font-family="sans" font-size="10.00">expansion_checkpoint_finish</text>
</g>
<!-- 22&#45;&gt;16 -->
<g id="edge24" class="edge">
<title>22&#45;&gt;16</title>
<path fill="none" stroke="grey" stroke-width="2" d="M720.57,-143.97C683.75,-133.04 636.13,-118.92 599.33,-108"/>
<polygon fill="grey" stroke="grey" stroke-width="2" points="600.32,-104.65 589.73,-105.16 598.33,-111.36 600.32,-104.65"/>
</g>
<!-- 23 -->
<g id="node24" class="node">
<title>23</title>
<path fill="none" stroke="#5663d8" stroke-width="2" d="M803.5,-396C803.5,-396 760.5,-396 760.5,-396 754.5,-396 748.5,-390 748.5,-384 748.5,-384 748.5,-372 748.5,-372 748.5,-366 754.5,-360 760.5,-360 760.5,-360 803.5,-360 803.5,-360 809.5,-360 815.5,-366 815.5,-372 815.5,-372 815.5,-384 815.5,-384 815.5,-390 809.5,-396 803.5,-396"/>
<text text-anchor="middle" x="782" y="-375.5" font-family="sans" font-size="10.00">expansion</text>
</g>
<!-- 23&#45;&gt;22 -->
<g id="edge34" class="edge">
<title>23&#45;&gt;22</title>
<path fill="none" stroke="grey" stroke-width="2" d="M781.68,-359.85C780.99,-322.83 779.35,-235.18 778.51,-190.39"/>
<polygon fill="grey" stroke="grey" stroke-width="2" points="782.01,-190.17 778.32,-180.23 775.01,-190.3 782.01,-190.17"/>
</g>
<!-- 24 -->
<g id="node25" class="node">
<title>24</title>
<path fill="none" stroke="#d85e56" stroke-width="2" d="M785,-540C785,-540 687,-540 687,-540 681,-540 675,-534 675,-528 675,-528 675,-516 675,-516 675,-510 681,-504 687,-504 687,-504 785,-504 785,-504 791,-504 797,-510 797,-516 797,-516 797,-528 797,-528 797,-534 791,-540 785,-540"/>
<text text-anchor="middle" x="736" y="-519.5" font-family="sans" font-size="10.00">Orthofinder_complete</text>
</g>
<!-- 24&#45;&gt;23 -->
<g id="edge35" class="edge">
<title>24&#45;&gt;23</title>
<path fill="none" stroke="grey" stroke-width="2" d="M737.36,-503.83C739.2,-485.57 743.31,-456.07 752,-432 755.29,-422.9 760.06,-413.53 764.83,-405.24"/>
<polygon fill="grey" stroke="grey" stroke-width="2" points="767.98,-406.8 770.15,-396.43 761.99,-403.19 767.98,-406.8"/>
</g>
<!-- 38 -->
<g id="node39" class="node">
<title>38</title>
<path fill="none" stroke="#88d856" stroke-width="2" d="M885,-468C885,-468 773,-468 773,-468 767,-468 761,-462 761,-456 761,-456 761,-444 761,-444 761,-438 767,-432 773,-432 773,-432 885,-432 885,-432 891,-432 897,-438 897,-444 897,-444 897,-456 897,-456 897,-462 891,-468 885,-468"/>
<text text-anchor="middle" x="829" y="-447.5" font-family="sans" font-size="10.00">create_hypothesis_fasta</text>
</g>
<!-- 24&#45;&gt;38 -->
<g id="edge52" class="edge">
<title>24&#45;&gt;38</title>
<path fill="none" stroke="grey" stroke-width="2" d="M758.99,-503.7C770.81,-494.8 785.39,-483.82 798.18,-474.2"/>
<polygon fill="grey" stroke="grey" stroke-width="2" points="800.39,-476.91 806.28,-468.1 796.18,-471.32 800.39,-476.91"/>
</g>
<!-- 41 -->
<g id="node42" class="node">
<title>41</title>
<path fill="none" stroke="#d85656" stroke-width="2" d="M687,-468C687,-468 635,-468 635,-468 629,-468 623,-462 623,-456 623,-456 623,-444 623,-444 623,-438 629,-432 635,-432 635,-432 687,-432 687,-432 693,-432 699,-438 699,-444 699,-444 699,-456 699,-456 699,-462 693,-468 687,-468"/>
<text text-anchor="middle" x="661" y="-447.5" font-family="sans" font-size="10.00">cafe5_setup</text>
</g>
<!-- 24&#45;&gt;41 -->
<g id="edge57" class="edge">
<title>24&#45;&gt;41</title>
<path fill="none" stroke="grey" stroke-width="2" d="M717.46,-503.7C708.2,-495.05 696.84,-484.45 686.74,-475.03"/>
<polygon fill="grey" stroke="grey" stroke-width="2" points="689.02,-472.37 679.33,-468.1 684.25,-477.49 689.02,-472.37"/>
</g>
<!-- 25 -->
<g id="node26" class="node">
<title>25</title>
<path fill="none" stroke="#56d863" stroke-width="2" d="M796,-612C796,-612 678,-612 678,-612 672,-612 666,-606 666,-600 666,-600 666,-588 666,-588 666,-582 672,-576 678,-576 678,-576 796,-576 796,-576 802,-576 808,-582 808,-588 808,-588 808,-600 808,-600 808,-606 802,-612 796,-612"/>
<text text-anchor="middle" x="737" y="-591.5" font-family="sans" font-size="10.00">hypothesis_species_trees</text>
</g>
<!-- 25&#45;&gt;24 -->
<g id="edge37" class="edge">
<title>25&#45;&gt;24</title>
<path fill="none" stroke="grey" stroke-width="2" d="M736.75,-575.7C736.64,-567.98 736.51,-558.71 736.39,-550.11"/>
<polygon fill="grey" stroke="grey" stroke-width="2" points="739.89,-550.05 736.24,-540.1 732.89,-550.15 739.89,-550.05"/>
</g>
<!-- 26 -->
<g id="node27" class="node">
<title>26</title>
<path fill="none" stroke="#8fd856" stroke-width="2" d="M782.5,-684C782.5,-684 691.5,-684 691.5,-684 685.5,-684 679.5,-678 679.5,-672 679.5,-672 679.5,-660 679.5,-660 679.5,-654 685.5,-648 691.5,-648 691.5,-648 782.5,-648 782.5,-648 788.5,-648 794.5,-654 794.5,-660 794.5,-660 794.5,-672 794.5,-672 794.5,-678 788.5,-684 782.5,-684"/>
<text text-anchor="middle" x="737" y="-663.5" font-family="sans" font-size="10.00">Orthofinder_cleanup</text>
</g>
<!-- 26&#45;&gt;25 -->
<g id="edge38" class="edge">
<title>26&#45;&gt;25</title>
<path fill="none" stroke="grey" stroke-width="2" d="M737,-647.7C737,-639.98 737,-630.71 737,-622.11"/>
<polygon fill="grey" stroke="grey" stroke-width="2" points="740.5,-622.1 737,-612.1 733.5,-622.1 740.5,-622.1"/>
</g>
<!-- 27 -->
<g id="node28" class="node">
<title>27</title>
<path fill="none" stroke="#566bd8" stroke-width="2" d="M792,-756C792,-756 682,-756 682,-756 676,-756 670,-750 670,-744 670,-744 670,-732 670,-732 670,-726 676,-720 682,-720 682,-720 792,-720 792,-720 798,-720 804,-726 804,-732 804,-732 804,-744 804,-744 804,-750 798,-756 792,-756"/>
<text text-anchor="middle" x="737" y="-735.5" font-family="sans" font-size="10.00">Orthofinder_orthologues</text>
</g>
<!-- 27&#45;&gt;26 -->
<g id="edge39" class="edge">
<title>27&#45;&gt;26</title>
<path fill="none" stroke="grey" stroke-width="2" d="M737,-719.7C737,-711.98 737,-702.71 737,-694.11"/>
<polygon fill="grey" stroke="grey" stroke-width="2" points="740.5,-694.1 737,-684.1 733.5,-694.1 740.5,-694.1"/>
</g>
<!-- 28 -->
<g id="node29" class="node">
<title>28</title>
<path fill="none" stroke="#c6d856" stroke-width="2" d="M776,-828C776,-828 698,-828 698,-828 692,-828 686,-822 686,-816 686,-816 686,-804 686,-804 686,-798 692,-792 698,-792 698,-792 776,-792 776,-792 782,-792 788,-798 788,-804 788,-804 788,-816 788,-816 788,-822 782,-828 776,-828"/>
<text text-anchor="middle" x="737" y="-807.5" font-family="sans" font-size="10.00">Orthofinder_Trees</text>
</g>
<!-- 28&#45;&gt;27 -->
<g id="edge40" class="edge">
<title>28&#45;&gt;27</title>
<path fill="none" stroke="grey" stroke-width="2" d="M737,-791.7C737,-783.98 737,-774.71 737,-766.11"/>
<polygon fill="grey" stroke="grey" stroke-width="2" points="740.5,-766.1 737,-756.1 733.5,-766.1 740.5,-766.1"/>
</g>
<!-- 29 -->
<g id="node30" class="node">
<title>29</title>
<path fill="none" stroke="#56d8d8" stroke-width="2" d="M792.5,-900C792.5,-900 681.5,-900 681.5,-900 675.5,-900 669.5,-894 669.5,-888 669.5,-888 669.5,-876 669.5,-876 669.5,-870 675.5,-864 681.5,-864 681.5,-864 792.5,-864 792.5,-864 798.5,-864 804.5,-870 804.5,-876 804.5,-876 804.5,-888 804.5,-888 804.5,-894 798.5,-900 792.5,-900"/>
<text text-anchor="middle" x="737" y="-879.5" font-family="sans" font-size="10.00">Orthofinder_orthogroups</text>
</g>
<!-- 29&#45;&gt;28 -->
<g id="edge41" class="edge">
<title>29&#45;&gt;28</title>
<path fill="none" stroke="grey" stroke-width="2" d="M737,-863.7C737,-855.98 737,-846.71 737,-838.11"/>
<polygon fill="grey" stroke="grey" stroke-width="2" points="740.5,-838.1 737,-828.1 733.5,-838.1 740.5,-838.1"/>
</g>
<!-- 30 -->
<g id="node31" class="node">
<title>30</title>
<path fill="none" stroke="#68d856" stroke-width="2" d="M800.5,-972C800.5,-972 673.5,-972 673.5,-972 667.5,-972 661.5,-966 661.5,-960 661.5,-960 661.5,-948 661.5,-948 661.5,-942 667.5,-936 673.5,-936 673.5,-936 800.5,-936 800.5,-936 806.5,-936 812.5,-942 812.5,-948 812.5,-948 812.5,-960 812.5,-960 812.5,-966 806.5,-972 800.5,-972"/>
<text text-anchor="middle" x="737" y="-951.5" font-family="sans" font-size="10.00">Orthofinder_BLASTP_merge</text>
</g>
<!-- 30&#45;&gt;29 -->
<g id="edge42" class="edge">
<title>30&#45;&gt;29</title>
<path fill="none" stroke="grey" stroke-width="2" d="M737,-935.7C737,-927.98 737,-918.71 737,-910.11"/>
<polygon fill="grey" stroke="grey" stroke-width="2" points="740.5,-910.1 737,-900.1 733.5,-910.1 740.5,-910.1"/>
</g>
<!-- 31 -->
<g id="node32" class="node">
<title>31</title>
<path fill="none" stroke="#d88d56" stroke-width="2" d="M782,-1044C782,-1044 692,-1044 692,-1044 686,-1044 680,-1038 680,-1032 680,-1032 680,-1020 680,-1020 680,-1014 686,-1008 692,-1008 692,-1008 782,-1008 782,-1008 788,-1008 794,-1014 794,-1020 794,-1020 794,-1032 794,-1032 794,-1038 788,-1044 782,-1044"/>
<text text-anchor="middle" x="737" y="-1023.5" font-family="sans" font-size="10.00">Orthofinder_BLASTP</text>
</g>
<!-- 31&#45;&gt;30 -->
<g id="edge43" class="edge">
<title>31&#45;&gt;30</title>
<path fill="none" stroke="grey" stroke-width="2" d="M737,-1007.7C737,-999.98 737,-990.71 737,-982.11"/>
<polygon fill="grey" stroke="grey" stroke-width="2" points="740.5,-982.1 737,-972.1 733.5,-982.1 740.5,-982.1"/>
</g>
<!-- 32 -->
<g id="node33" class="node">
<title>32</title>
<path fill="none" stroke="#59d856" stroke-width="2" d="M746,-1260C746,-1260 656,-1260 656,-1260 650,-1260 644,-1254 644,-1248 644,-1248 644,-1236 644,-1236 644,-1230 650,-1224 656,-1224 656,-1224 746,-1224 746,-1224 752,-1224 758,-1230 758,-1236 758,-1236 758,-1248 758,-1248 758,-1254 752,-1260 746,-1260"/>
<text text-anchor="middle" x="701" y="-1239.5" font-family="sans" font-size="10.00">Orthofinder_prepare</text>
</g>
<!-- 32&#45;&gt;31 -->
<g id="edge46" class="edge">
<title>32&#45;&gt;31</title>
<path fill="none" stroke="grey" stroke-width="2" d="M692.85,-1223.71C679.73,-1193.29 657.49,-1128.79 679,-1080 683.99,-1068.69 692.71,-1058.74 701.9,-1050.62"/>
<polygon fill="grey" stroke="grey" stroke-width="2" points="704.17,-1053.28 709.66,-1044.23 699.72,-1047.88 704.17,-1053.28"/>
</g>
<!-- 36 -->
<g id="node37" class="node">
<title>36</title>
<path fill="none" stroke="#5692d8" stroke-width="2" d="M783.5,-1188C783.5,-1188 700.5,-1188 700.5,-1188 694.5,-1188 688.5,-1182 688.5,-1176 688.5,-1176 688.5,-1164 688.5,-1164 688.5,-1158 694.5,-1152 700.5,-1152 700.5,-1152 783.5,-1152 783.5,-1152 789.5,-1152 795.5,-1158 795.5,-1164 795.5,-1164 795.5,-1176 795.5,-1176 795.5,-1182 789.5,-1188 783.5,-1188"/>
<text text-anchor="middle" x="742" y="-1167.5" font-family="sans" font-size="10.00">index_pep_FASTAs</text>
</g>
<!-- 32&#45;&gt;36 -->
<g id="edge50" class="edge">
<title>32&#45;&gt;36</title>
<path fill="none" stroke="grey" stroke-width="2" d="M711.13,-1223.7C715.85,-1215.64 721.56,-1205.89 726.78,-1196.98"/>
<polygon fill="grey" stroke="grey" stroke-width="2" points="729.95,-1198.5 731.98,-1188.1 723.91,-1194.96 729.95,-1198.5"/>
</g>
<!-- 33 -->
<g id="node34" class="node">
<title>33</title>
<path fill="none" stroke="#d86e56" stroke-width="2" d="M745,-1332C745,-1332 657,-1332 657,-1332 651,-1332 645,-1326 645,-1320 645,-1320 645,-1308 645,-1308 645,-1302 651,-1296 657,-1296 657,-1296 745,-1296 745,-1296 751,-1296 757,-1302 757,-1308 757,-1308 757,-1320 757,-1320 757,-1326 751,-1332 745,-1332"/>
<text text-anchor="middle" x="701" y="-1311.5" font-family="sans" font-size="10.00">Orthofinder_link_all</text>
</g>
<!-- 33&#45;&gt;32 -->
<g id="edge47" class="edge">
<title>33&#45;&gt;32</title>
<path fill="none" stroke="grey" stroke-width="2" d="M701,-1295.7C701,-1287.98 701,-1278.71 701,-1270.11"/>
<polygon fill="grey" stroke="grey" stroke-width="2" points="704.5,-1270.1 701,-1260.1 697.5,-1270.1 704.5,-1270.1"/>
</g>
<!-- 34 -->
<g id="node35" class="node">
<title>34</title>
<path fill="none" stroke="#56d8b9" stroke-width="2" d="M732.5,-1404C732.5,-1404 669.5,-1404 669.5,-1404 663.5,-1404 657.5,-1398 657.5,-1392 657.5,-1392 657.5,-1380 657.5,-1380 657.5,-1374 663.5,-1368 669.5,-1368 669.5,-1368 732.5,-1368 732.5,-1368 738.5,-1368 744.5,-1374 744.5,-1380 744.5,-1380 744.5,-1392 744.5,-1392 744.5,-1398 738.5,-1404 732.5,-1404"/>
<text text-anchor="middle" x="701" y="-1383.5" font-family="sans" font-size="10.00">filter_isoforms</text>
</g>
<!-- 34&#45;&gt;33 -->
<g id="edge48" class="edge">
<title>34&#45;&gt;33</title>
<path fill="none" stroke="grey" stroke-width="2" d="M701,-1367.7C701,-1359.98 701,-1350.71 701,-1342.11"/>
<polygon fill="grey" stroke="grey" stroke-width="2" points="704.5,-1342.1 701,-1332.1 697.5,-1342.1 704.5,-1342.1"/>
</g>
<!-- 35 -->
<g id="node36" class="node">
<title>35</title>
<path fill="none" stroke="#d89556" stroke-width="2" d="M745,-1476C745,-1476 657,-1476 657,-1476 651,-1476 645,-1470 645,-1464 645,-1464 645,-1452 645,-1452 645,-1446 651,-1440 657,-1440 657,-1440 745,-1440 745,-1440 751,-1440 757,-1446 757,-1452 757,-1452 757,-1464 757,-1464 757,-1470 751,-1476 745,-1476"/>
<text text-anchor="middle" x="701" y="-1455.5" font-family="sans" font-size="10.00">pep_fasta_handling</text>
</g>
<!-- 35&#45;&gt;34 -->
<g id="edge49" class="edge">
<title>35&#45;&gt;34</title>
<path fill="none" stroke="grey" stroke-width="2" d="M701,-1439.7C701,-1431.98 701,-1422.71 701,-1414.11"/>
<polygon fill="grey" stroke="grey" stroke-width="2" points="704.5,-1414.1 701,-1404.1 697.5,-1414.1 704.5,-1414.1"/>
</g>
<!-- 36&#45;&gt;31 -->
<g id="edge44" class="edge">
<title>36&#45;&gt;31</title>
<path fill="none" stroke="grey" stroke-width="2" d="M766.48,-1151.77C777.4,-1142.56 789.12,-1130.19 795,-1116 801.12,-1101.22 801.45,-1094.64 795,-1080 790.01,-1068.69 781.29,-1058.74 772.1,-1050.62"/>
<polygon fill="grey" stroke="grey" stroke-width="2" points="774.28,-1047.88 764.34,-1044.23 769.83,-1053.28 774.28,-1047.88"/>
</g>
<!-- 37 -->
<g id="node38" class="node">
<title>37</title>
<path fill="none" stroke="#56a9d8" stroke-width="2" d="M774,-1116C774,-1116 700,-1116 700,-1116 694,-1116 688,-1110 688,-1104 688,-1104 688,-1092 688,-1092 688,-1086 694,-1080 700,-1080 700,-1080 774,-1080 774,-1080 780,-1080 786,-1086 786,-1092 786,-1092 786,-1104 786,-1104 786,-1110 780,-1116 774,-1116"/>
<text text-anchor="middle" x="737" y="-1095.5" font-family="sans" font-size="10.00">Orthofinder_split</text>
</g>
<!-- 36&#45;&gt;37 -->
<g id="edge51" class="edge">
<title>36&#45;&gt;37</title>
<path fill="none" stroke="grey" stroke-width="2" d="M740.76,-1151.7C740.21,-1143.98 739.55,-1134.71 738.94,-1126.11"/>
<polygon fill="grey" stroke="grey" stroke-width="2" points="742.43,-1125.83 738.22,-1116.1 735.44,-1126.33 742.43,-1125.83"/>
</g>
<!-- 37&#45;&gt;31 -->
<g id="edge45" class="edge">
<title>37&#45;&gt;31</title>
<path fill="none" stroke="grey" stroke-width="2" d="M737,-1079.7C737,-1071.98 737,-1062.71 737,-1054.11"/>
<polygon fill="grey" stroke="grey" stroke-width="2" points="740.5,-1054.1 737,-1044.1 733.5,-1054.1 740.5,-1054.1"/>
</g>
<!-- 38&#45;&gt;23 -->
<g id="edge36" class="edge">
<title>38&#45;&gt;23</title>
<path fill="none" stroke="grey" stroke-width="2" d="M817.38,-431.7C811.86,-423.47 805.15,-413.48 799.07,-404.42"/>
<polygon fill="grey" stroke="grey" stroke-width="2" points="801.96,-402.46 793.48,-396.1 796.15,-406.36 801.96,-402.46"/>
</g>
<!-- 39 -->
<g id="node40" class="node">
<title>39</title>
<path fill="none" stroke="#56d89a" stroke-width="2" d="M660.5,-180C660.5,-180 569.5,-180 569.5,-180 563.5,-180 557.5,-174 557.5,-168 557.5,-168 557.5,-156 557.5,-156 557.5,-150 563.5,-144 569.5,-144 569.5,-144 660.5,-144 660.5,-144 666.5,-144 672.5,-150 672.5,-156 672.5,-156 672.5,-168 672.5,-168 672.5,-174 666.5,-180 660.5,-180"/>
<text text-anchor="middle" x="615" y="-159.5" font-family="sans" font-size="10.00">cafe5_complete_set</text>
</g>
<!-- 39&#45;&gt;16 -->
<g id="edge26" class="edge">
<title>39&#45;&gt;16</title>
<path fill="none" stroke="grey" stroke-width="2" d="M596.96,-143.7C587.94,-135.05 576.88,-124.45 567.06,-115.03"/>
<polygon fill="grey" stroke="grey" stroke-width="2" points="569.48,-112.5 559.84,-108.1 564.63,-117.55 569.48,-112.5"/>
</g>
<!-- 40 -->
<g id="node41" class="node">
<title>40</title>
<path fill="none" stroke="#ced856" stroke-width="2" d="M716.5,-396C716.5,-396 603.5,-396 603.5,-396 597.5,-396 591.5,-390 591.5,-384 591.5,-384 591.5,-372 591.5,-372 591.5,-366 597.5,-360 603.5,-360 603.5,-360 716.5,-360 716.5,-360 722.5,-360 728.5,-366 728.5,-372 728.5,-372 728.5,-384 728.5,-384 728.5,-390 722.5,-396 716.5,-396"/>
<text text-anchor="middle" x="660" y="-375.5" font-family="sans" font-size="10.00">ultrametric_species_tree</text>
</g>
<!-- 40&#45;&gt;39 -->
<g id="edge54" class="edge">
<title>40&#45;&gt;39</title>
<path fill="none" stroke="grey" stroke-width="2" d="M691.58,-359.78C704.45,-350.93 717.94,-338.86 725,-324 731.86,-309.55 730.65,-302.97 725,-288 709.28,-246.33 672.64,-209.54 645.95,-186.85"/>
<polygon fill="grey" stroke="grey" stroke-width="2" points="647.96,-183.97 638.03,-180.28 643.49,-189.36 647.96,-183.97"/>
</g>
<!-- 42 -->
<g id="node43" class="node">
<title>42</title>
<path fill="none" stroke="#5673d8" stroke-width="2" d="M703.5,-324C703.5,-324 610.5,-324 610.5,-324 604.5,-324 598.5,-318 598.5,-312 598.5,-312 598.5,-300 598.5,-300 598.5,-294 604.5,-288 610.5,-288 610.5,-288 703.5,-288 703.5,-288 709.5,-288 715.5,-294 715.5,-300 715.5,-300 715.5,-312 715.5,-312 715.5,-318 709.5,-324 703.5,-324"/>
<text text-anchor="middle" x="657" y="-303.5" font-family="sans" font-size="10.00">reformat_HOG_table</text>
</g>
<!-- 40&#45;&gt;42 -->
<g id="edge58" class="edge">
<title>40&#45;&gt;42</title>
<path fill="none" stroke="grey" stroke-width="2" d="M659.26,-359.7C658.93,-351.98 658.53,-342.71 658.16,-334.11"/>
<polygon fill="grey" stroke="grey" stroke-width="2" points="661.66,-333.95 657.73,-324.1 654.66,-334.25 661.66,-333.95"/>
</g>
<!-- 43 -->
<g id="node44" class="node">
<title>43</title>
<path fill="none" stroke="#56d8a9" stroke-width="2" d="M622,-252C622,-252 542,-252 542,-252 536,-252 530,-246 530,-240 530,-240 530,-228 530,-228 530,-222 536,-216 542,-216 542,-216 622,-216 622,-216 628,-216 634,-222 634,-228 634,-228 634,-240 634,-240 634,-246 628,-252 622,-252"/>
<text text-anchor="middle" x="582" y="-231.5" font-family="sans" font-size="10.00">cafe5_filtered_set</text>
</g>
<!-- 40&#45;&gt;43 -->
<g id="edge60" class="edge">
<title>40&#45;&gt;43</title>
<path fill="none" stroke="grey" stroke-width="2" d="M626.69,-359.96C612.97,-351.16 598.35,-339.06 590,-324 579.63,-305.29 578.11,-280.9 578.91,-262.39"/>
<polygon fill="grey" stroke="grey" stroke-width="2" points="582.42,-262.47 579.61,-252.26 575.43,-261.99 582.42,-262.47"/>
</g>
<!-- 41&#45;&gt;40 -->
<g id="edge56" class="edge">
<title>41&#45;&gt;40</title>
<path fill="none" stroke="grey" stroke-width="2" d="M660.75,-431.7C660.64,-423.98 660.51,-414.71 660.39,-406.11"/>
<polygon fill="grey" stroke="grey" stroke-width="2" points="663.89,-406.05 660.24,-396.1 656.89,-406.15 663.89,-406.05"/>
</g>
<!-- 42&#45;&gt;39 -->
<g id="edge53" class="edge">
<title>42&#45;&gt;39</title>
<path fill="none" stroke="grey" stroke-width="2" d="M655.98,-287.88C654.52,-269.66 651.04,-240.19 643,-216 639.95,-206.82 635.42,-197.31 630.88,-188.93"/>
<polygon fill="grey" stroke="grey" stroke-width="2" points="633.82,-187 625.85,-180.02 627.72,-190.45 633.82,-187"/>
</g>
<!-- 42&#45;&gt;43 -->
<g id="edge59" class="edge">
<title>42&#45;&gt;43</title>
<path fill="none" stroke="grey" stroke-width="2" d="M638.46,-287.7C629.2,-279.05 617.84,-268.45 607.74,-259.03"/>
<polygon fill="grey" stroke="grey" stroke-width="2" points="610.02,-256.37 600.33,-252.1 605.25,-261.49 610.02,-256.37"/>
</g>
<!-- 43&#45;&gt;39 -->
<g id="edge55" class="edge">
<title>43&#45;&gt;39</title>
<path fill="none" stroke="grey" stroke-width="2" d="M590.16,-215.7C593.91,-207.73 598.45,-198.1 602.62,-189.26"/>
<polygon fill="grey" stroke="grey" stroke-width="2" points="605.84,-190.64 606.94,-180.1 599.51,-187.66 605.84,-190.64"/>
</g>
</g>
</svg>
