<?xml version="1.0" encoding="UTF-8" standalone="no"?>
<!DOCTYPE svg PUBLIC "-//W3C//DTD SVG 1.1//EN"
 "http://www.w3.org/Graphics/SVG/1.1/DTD/svg11.dtd">
<!-- Generated by graphviz version 2.38.0 (20140413.2041)
 -->
<!-- Title: snakemake_dag Pages: 1 -->
<svg width="528pt" height="908pt"
 viewBox="0.00 0.00 527.50 908.00" xmlns="http://www.w3.org/2000/svg" xmlns:xlink="http://www.w3.org/1999/xlink">
<g id="graph0" class="graph" transform="scale(1 1) rotate(0) translate(4 904)">
<title>snakemake_dag</title>
<polygon fill="white" stroke="none" points="-4,4 -4,-904 523.5,-904 523.5,4 -4,4"/>
<!-- 0 -->
<g id="node1" class="node"><title>0</title>
<path fill="none" stroke="#56b1d8" stroke-width="2" d="M333.5,-36C333.5,-36 303.5,-36 303.5,-36 297.5,-36 291.5,-30 291.5,-24 291.5,-24 291.5,-12 291.5,-12 291.5,-6 297.5,-0 303.5,-0 303.5,-0 333.5,-0 333.5,-0 339.5,-0 345.5,-6 345.5,-12 345.5,-12 345.5,-24 345.5,-24 345.5,-30 339.5,-36 333.5,-36"/>
<text text-anchor="middle" x="318.5" y="-15.5" font-family="sans" font-size="10.00">all</text>
</g>
<!-- 1 -->
<g id="node2" class="node"><title>1</title>
<path fill="none" stroke="#56d87b" stroke-width="2" d="M211.5,-180C211.5,-180 181.5,-180 181.5,-180 175.5,-180 169.5,-174 169.5,-168 169.5,-168 169.5,-156 169.5,-156 169.5,-150 175.5,-144 181.5,-144 181.5,-144 211.5,-144 211.5,-144 217.5,-144 223.5,-150 223.5,-156 223.5,-156 223.5,-168 223.5,-168 223.5,-174 217.5,-180 211.5,-180"/>
<text text-anchor="middle" x="196.5" y="-159.5" font-family="sans" font-size="10.00">multiqc</text>
</g>
<!-- 1&#45;&gt;0 -->
<g id="edge1" class="edge"><title>1&#45;&gt;0</title>
<path fill="none" stroke="grey" stroke-width="2" d="M211.216,-143.871C232.558,-119.031 272.238,-72.8464 296.9,-44.1415"/>
<polygon fill="grey" stroke="grey" stroke-width="2" points="299.87,-46.0552 303.732,-36.1893 294.56,-41.4934 299.87,-46.0552"/>
</g>
<!-- 2 -->
<g id="node3" class="node"><title>2</title>
<path fill="none" stroke="#a7d856" stroke-width="2" d="M333.5,-108C333.5,-108 303.5,-108 303.5,-108 297.5,-108 291.5,-102 291.5,-96 291.5,-96 291.5,-84 291.5,-84 291.5,-78 297.5,-72 303.5,-72 303.5,-72 333.5,-72 333.5,-72 339.5,-72 345.5,-78 345.5,-84 345.5,-84 345.5,-96 345.5,-96 345.5,-102 339.5,-108 333.5,-108"/>
<text text-anchor="middle" x="318.5" y="-87.5" font-family="sans" font-size="10.00">deseq2</text>
</g>
<!-- 2&#45;&gt;0 -->
<g id="edge2" class="edge"><title>2&#45;&gt;0</title>
<path fill="none" stroke="grey" stroke-width="2" d="M318.5,-71.6966C318.5,-63.9827 318.5,-54.7125 318.5,-46.1124"/>
<polygon fill="grey" stroke="grey" stroke-width="2" points="322,-46.1043 318.5,-36.1043 315,-46.1044 322,-46.1043"/>
</g>
<!-- 3 -->
<g id="node4" class="node"><title>3</title>
<path fill="none" stroke="#61d856" stroke-width="2" d="M484,-108C484,-108 389,-108 389,-108 383,-108 377,-102 377,-96 377,-96 377,-84 377,-84 377,-78 383,-72 389,-72 389,-72 484,-72 484,-72 490,-72 496,-78 496,-84 496,-84 496,-96 496,-96 496,-102 490,-108 484,-108"/>
<text text-anchor="middle" x="436.5" y="-87.5" font-family="sans" font-size="10.00">orthofinder_complete</text>
</g>
<!-- 3&#45;&gt;0 -->
<g id="edge3" class="edge"><title>3&#45;&gt;0</title>
<path fill="none" stroke="grey" stroke-width="2" d="M407.634,-71.8761C391.745,-62.4504 371.87,-50.6602 354.922,-40.6065"/>
<polygon fill="grey" stroke="grey" stroke-width="2" points="356.238,-37.3176 345.852,-35.2257 352.667,-43.338 356.238,-37.3176"/>
</g>
<!-- 4 -->
<g id="node5" class="node"><title>4</title>
<path fill="none" stroke="#bed856" stroke-width="2" d="M113.5,-324C113.5,-324 69.5,-324 69.5,-324 63.5,-324 57.5,-318 57.5,-312 57.5,-312 57.5,-300 57.5,-300 57.5,-294 63.5,-288 69.5,-288 69.5,-288 113.5,-288 113.5,-288 119.5,-288 125.5,-294 125.5,-300 125.5,-300 125.5,-312 125.5,-312 125.5,-318 119.5,-324 113.5,-324"/>
<text text-anchor="middle" x="91.5" y="-303.5" font-family="sans" font-size="10.00">fastqc_raw</text>
</g>
<!-- 4&#45;&gt;1 -->
<g id="edge6" class="edge"><title>4&#45;&gt;1</title>
<path fill="none" stroke="grey" stroke-width="2" d="M94.2682,-287.799C98.0265,-268.714 106.231,-237.749 122.5,-216 132.594,-202.506 147.119,-191.057 160.632,-182.291"/>
<polygon fill="grey" stroke="grey" stroke-width="2" points="162.646,-185.161 169.31,-176.924 158.964,-179.208 162.646,-185.161"/>
</g>
<!-- 5 -->
<g id="node6" class="node"><title>5</title>
<path fill="none" stroke="#56c9d8" stroke-width="2" d="M211.5,-252C211.5,-252 143.5,-252 143.5,-252 137.5,-252 131.5,-246 131.5,-240 131.5,-240 131.5,-228 131.5,-228 131.5,-222 137.5,-216 143.5,-216 143.5,-216 211.5,-216 211.5,-216 217.5,-216 223.5,-222 223.5,-228 223.5,-228 223.5,-240 223.5,-240 223.5,-246 217.5,-252 211.5,-252"/>
<text text-anchor="middle" x="177.5" y="-231.5" font-family="sans" font-size="10.00">fastqc_trimmed</text>
</g>
<!-- 4&#45;&gt;5 -->
<g id="edge12" class="edge"><title>4&#45;&gt;5</title>
<path fill="none" stroke="grey" stroke-width="2" d="M112.758,-287.697C123.589,-278.881 136.918,-268.032 148.66,-258.474"/>
<polygon fill="grey" stroke="grey" stroke-width="2" points="150.94,-261.132 156.486,-252.104 146.521,-255.703 150.94,-261.132"/>
</g>
<!-- 5&#45;&gt;1 -->
<g id="edge5" class="edge"><title>5&#45;&gt;1</title>
<path fill="none" stroke="grey" stroke-width="2" d="M182.197,-215.697C184.313,-207.898 186.862,-198.509 189.218,-189.829"/>
<polygon fill="grey" stroke="grey" stroke-width="2" points="192.616,-190.672 191.857,-180.104 185.86,-188.838 192.616,-190.672"/>
</g>
<!-- 6 -->
<g id="node7" class="node"><title>6</title>
<path fill="none" stroke="#d8b456" stroke-width="2" d="M85,-396C85,-396 12,-396 12,-396 6,-396 7.10543e-15,-390 7.10543e-15,-384 7.10543e-15,-384 7.10543e-15,-372 7.10543e-15,-372 7.10543e-15,-366 6,-360 12,-360 12,-360 85,-360 85,-360 91,-360 97,-366 97,-372 97,-372 97,-384 97,-384 97,-390 91,-396 85,-396"/>
<text text-anchor="middle" x="48.5" y="-375.5" font-family="sans" font-size="10.00">trimmomatic_SE</text>
</g>
<!-- 6&#45;&gt;1 -->
<g id="edge8" class="edge"><title>6&#45;&gt;1</title>
<path fill="none" stroke="grey" stroke-width="2" d="M45.3891,-359.771C42.7911,-341.467 40.6425,-311.929 48.5,-288 60.8965,-250.248 71.6943,-242.277 101.5,-216 118.83,-200.721 141.291,-187.942 160.021,-178.763"/>
<polygon fill="grey" stroke="grey" stroke-width="2" points="161.623,-181.877 169.153,-174.424 158.618,-175.554 161.623,-181.877"/>
</g>
<!-- 11 -->
<g id="node12" class="node"><title>11</title>
<path fill="none" stroke="#56d8a2" stroke-width="2" d="M211,-324C211,-324 156,-324 156,-324 150,-324 144,-318 144,-312 144,-312 144,-300 144,-300 144,-294 150,-288 156,-288 156,-288 211,-288 211,-288 217,-288 223,-294 223,-300 223,-300 223,-312 223,-312 223,-318 217,-324 211,-324"/>
<text text-anchor="middle" x="183.5" y="-303.5" font-family="sans" font-size="10.00">trim_cleanup</text>
</g>
<!-- 6&#45;&gt;11 -->
<g id="edge17" class="edge"><title>6&#45;&gt;11</title>
<path fill="none" stroke="grey" stroke-width="2" d="M81.5247,-359.876C99.5846,-350.512 122.145,-338.814 141.451,-328.803"/>
<polygon fill="grey" stroke="grey" stroke-width="2" points="143.082,-331.9 150.348,-324.19 139.86,-325.686 143.082,-331.9"/>
</g>
<!-- 7 -->
<g id="node8" class="node"><title>7</title>
<path fill="none" stroke="#56d892" stroke-width="2" d="M253.5,-396C253.5,-396 181.5,-396 181.5,-396 175.5,-396 169.5,-390 169.5,-384 169.5,-384 169.5,-372 169.5,-372 169.5,-366 175.5,-360 181.5,-360 181.5,-360 253.5,-360 253.5,-360 259.5,-360 265.5,-366 265.5,-372 265.5,-372 265.5,-384 265.5,-384 265.5,-390 259.5,-396 253.5,-396"/>
<text text-anchor="middle" x="217.5" y="-375.5" font-family="sans" font-size="10.00">trimmomatic_PE</text>
</g>
<!-- 7&#45;&gt;1 -->
<g id="edge7" class="edge"><title>7&#45;&gt;1</title>
<path fill="none" stroke="grey" stroke-width="2" d="M223.396,-359.634C232.651,-329.627 248.012,-266.445 232.5,-216 229.491,-206.215 223.993,-196.616 218.184,-188.334"/>
<polygon fill="grey" stroke="grey" stroke-width="2" points="220.907,-186.131 212.11,-180.226 215.305,-190.328 220.907,-186.131"/>
</g>
<!-- 7&#45;&gt;11 -->
<g id="edge18" class="edge"><title>7&#45;&gt;11</title>
<path fill="none" stroke="grey" stroke-width="2" d="M209.096,-359.697C205.225,-351.728 200.548,-342.1 196.257,-333.264"/>
<polygon fill="grey" stroke="grey" stroke-width="2" points="199.325,-331.57 191.808,-324.104 193.029,-334.629 199.325,-331.57"/>
</g>
<!-- 8 -->
<g id="node9" class="node"><title>8</title>
<path fill="none" stroke="#d8c356" stroke-width="2" d="M351,-252C351,-252 292,-252 292,-252 286,-252 280,-246 280,-240 280,-240 280,-228 280,-228 280,-222 286,-216 292,-216 292,-216 351,-216 351,-216 357,-216 363,-222 363,-228 363,-228 363,-240 363,-240 363,-246 357,-252 351,-252"/>
<text text-anchor="middle" x="321.5" y="-231.5" font-family="sans" font-size="10.00">kallisto_quant</text>
</g>
<!-- 8&#45;&gt;1 -->
<g id="edge4" class="edge"><title>8&#45;&gt;1</title>
<path fill="none" stroke="grey" stroke-width="2" d="M290.922,-215.876C273.281,-205.998 251.004,-193.522 232.518,-183.17"/>
<polygon fill="grey" stroke="grey" stroke-width="2" points="234.22,-180.112 223.785,-178.279 230.799,-186.219 234.22,-180.112"/>
</g>
<!-- 9 -->
<g id="node10" class="node"><title>9</title>
<path fill="none" stroke="#d86e56" stroke-width="2" d="M363,-180C363,-180 274,-180 274,-180 268,-180 262,-174 262,-168 262,-168 262,-156 262,-156 262,-150 268,-144 274,-144 274,-144 363,-144 363,-144 369,-144 375,-150 375,-156 375,-156 375,-168 375,-168 375,-174 369,-180 363,-180"/>
<text text-anchor="middle" x="318.5" y="-159.5" font-family="sans" font-size="10.00">tximport_and_setup</text>
</g>
<!-- 8&#45;&gt;9 -->
<g id="edge15" class="edge"><title>8&#45;&gt;9</title>
<path fill="none" stroke="grey" stroke-width="2" d="M320.758,-215.697C320.428,-207.983 320.031,-198.712 319.662,-190.112"/>
<polygon fill="grey" stroke="grey" stroke-width="2" points="323.158,-189.945 319.233,-180.104 316.165,-190.245 323.158,-189.945"/>
</g>
<!-- 9&#45;&gt;2 -->
<g id="edge9" class="edge"><title>9&#45;&gt;2</title>
<path fill="none" stroke="grey" stroke-width="2" d="M318.5,-143.697C318.5,-135.983 318.5,-126.712 318.5,-118.112"/>
<polygon fill="grey" stroke="grey" stroke-width="2" points="322,-118.104 318.5,-108.104 315,-118.104 322,-118.104"/>
</g>
<!-- 10 -->
<g id="node11" class="node"><title>10</title>
<path fill="none" stroke="#8fd856" stroke-width="2" d="M493.5,-180C493.5,-180 405.5,-180 405.5,-180 399.5,-180 393.5,-174 393.5,-168 393.5,-168 393.5,-156 393.5,-156 393.5,-150 399.5,-144 405.5,-144 405.5,-144 493.5,-144 493.5,-144 499.5,-144 505.5,-150 505.5,-156 505.5,-156 505.5,-168 505.5,-168 505.5,-174 499.5,-180 493.5,-180"/>
<text text-anchor="middle" x="449.5" y="-159.5" font-family="sans" font-size="10.00">orthofinder_cleanup</text>
</g>
<!-- 10&#45;&gt;3 -->
<g id="edge10" class="edge"><title>10&#45;&gt;3</title>
<path fill="none" stroke="grey" stroke-width="2" d="M446.287,-143.697C444.854,-135.983 443.132,-126.712 441.535,-118.112"/>
<polygon fill="grey" stroke="grey" stroke-width="2" points="444.944,-117.297 439.677,-108.104 438.061,-118.575 444.944,-117.297"/>
</g>
<!-- 11&#45;&gt;5 -->
<g id="edge11" class="edge"><title>11&#45;&gt;5</title>
<path fill="none" stroke="grey" stroke-width="2" d="M182.017,-287.697C181.356,-279.983 180.561,-270.712 179.824,-262.112"/>
<polygon fill="grey" stroke="grey" stroke-width="2" points="183.307,-261.769 178.966,-252.104 176.333,-262.367 183.307,-261.769"/>
</g>
<!-- 11&#45;&gt;8 -->
<g id="edge13" class="edge"><title>11&#45;&gt;8</title>
<path fill="none" stroke="grey" stroke-width="2" d="M217.259,-287.876C235.72,-278.512 258.782,-266.814 278.517,-256.803"/>
<polygon fill="grey" stroke="grey" stroke-width="2" points="280.277,-259.835 287.612,-252.19 277.11,-253.592 280.277,-259.835"/>
</g>
<!-- 12 -->
<g id="node13" class="node"><title>12</title>
<path fill="none" stroke="#5682d8" stroke-width="2" d="M349.5,-324C349.5,-324 293.5,-324 293.5,-324 287.5,-324 281.5,-318 281.5,-312 281.5,-312 281.5,-300 281.5,-300 281.5,-294 287.5,-288 293.5,-288 293.5,-288 349.5,-288 349.5,-288 355.5,-288 361.5,-294 361.5,-300 361.5,-300 361.5,-312 361.5,-312 361.5,-318 355.5,-324 349.5,-324"/>
<text text-anchor="middle" x="321.5" y="-303.5" font-family="sans" font-size="10.00">kallisto_index</text>
</g>
<!-- 12&#45;&gt;8 -->
<g id="edge14" class="edge"><title>12&#45;&gt;8</title>
<path fill="none" stroke="grey" stroke-width="2" d="M321.5,-287.697C321.5,-279.983 321.5,-270.712 321.5,-262.112"/>
<polygon fill="grey" stroke="grey" stroke-width="2" points="325,-262.104 321.5,-252.104 318,-262.104 325,-262.104"/>
</g>
<!-- 13 -->
<g id="node14" class="node"><title>13</title>
<path fill="none" stroke="#56d863" stroke-width="2" d="M503,-252C503,-252 396,-252 396,-252 390,-252 384,-246 384,-240 384,-240 384,-228 384,-228 384,-222 390,-216 396,-216 396,-216 503,-216 503,-216 509,-216 515,-222 515,-228 515,-228 515,-240 515,-240 515,-246 509,-252 503,-252"/>
<text text-anchor="middle" x="449.5" y="-231.5" font-family="sans" font-size="10.00">orthofinder_orthologues</text>
</g>
<!-- 13&#45;&gt;10 -->
<g id="edge16" class="edge"><title>13&#45;&gt;10</title>
<path fill="none" stroke="grey" stroke-width="2" d="M449.5,-215.697C449.5,-207.983 449.5,-198.712 449.5,-190.112"/>
<polygon fill="grey" stroke="grey" stroke-width="2" points="453,-190.104 449.5,-180.104 446,-190.104 453,-190.104"/>
</g>
<!-- 14 -->
<g id="node15" class="node"><title>14</title>
<path fill="none" stroke="#56d8b9" stroke-width="2" d="M487,-324C487,-324 412,-324 412,-324 406,-324 400,-318 400,-312 400,-312 400,-300 400,-300 400,-294 406,-288 412,-288 412,-288 487,-288 487,-288 493,-288 499,-294 499,-300 499,-300 499,-312 499,-312 499,-318 493,-324 487,-324"/>
<text text-anchor="middle" x="449.5" y="-303.5" font-family="sans" font-size="10.00">orthofinder_trees</text>
</g>
<!-- 14&#45;&gt;13 -->
<g id="edge19" class="edge"><title>14&#45;&gt;13</title>
<path fill="none" stroke="grey" stroke-width="2" d="M449.5,-287.697C449.5,-279.983 449.5,-270.712 449.5,-262.112"/>
<polygon fill="grey" stroke="grey" stroke-width="2" points="453,-262.104 449.5,-252.104 446,-262.104 453,-262.104"/>
</g>
<!-- 15 -->
<g id="node16" class="node"><title>15</title>
<path fill="none" stroke="#78d856" stroke-width="2" d="M491,-396C491,-396 408,-396 408,-396 402,-396 396,-390 396,-384 396,-384 396,-372 396,-372 396,-366 402,-360 408,-360 408,-360 491,-360 491,-360 497,-360 503,-366 503,-372 503,-372 503,-384 503,-384 503,-390 497,-396 491,-396"/>
<text text-anchor="middle" x="449.5" y="-375.5" font-family="sans" font-size="10.00">orthofinder_groups</text>
</g>
<!-- 15&#45;&gt;14 -->
<g id="edge20" class="edge"><title>15&#45;&gt;14</title>
<path fill="none" stroke="grey" stroke-width="2" d="M449.5,-359.697C449.5,-351.983 449.5,-342.712 449.5,-334.112"/>
<polygon fill="grey" stroke="grey" stroke-width="2" points="453,-334.104 449.5,-324.104 446,-334.104 453,-334.104"/>
</g>
<!-- 16 -->
<g id="node17" class="node"><title>16</title>
<path fill="none" stroke="#d89c56" stroke-width="2" d="M507.5,-468C507.5,-468 391.5,-468 391.5,-468 385.5,-468 379.5,-462 379.5,-456 379.5,-456 379.5,-444 379.5,-444 379.5,-438 385.5,-432 391.5,-432 391.5,-432 507.5,-432 507.5,-432 513.5,-432 519.5,-438 519.5,-444 519.5,-444 519.5,-456 519.5,-456 519.5,-462 513.5,-468 507.5,-468"/>
<text text-anchor="middle" x="449.5" y="-447.5" font-family="sans" font-size="10.00">orthofinder_blastp_merge</text>
</g>
<!-- 16&#45;&gt;15 -->
<g id="edge21" class="edge"><title>16&#45;&gt;15</title>
<path fill="none" stroke="grey" stroke-width="2" d="M449.5,-431.697C449.5,-423.983 449.5,-414.712 449.5,-406.112"/>
<polygon fill="grey" stroke="grey" stroke-width="2" points="453,-406.104 449.5,-396.104 446,-406.104 453,-406.104"/>
</g>
<!-- 17 -->
<g id="node18" class="node"><title>17</title>
<path fill="none" stroke="#569ad8" stroke-width="2" d="M489.5,-540C489.5,-540 409.5,-540 409.5,-540 403.5,-540 397.5,-534 397.5,-528 397.5,-528 397.5,-516 397.5,-516 397.5,-510 403.5,-504 409.5,-504 409.5,-504 489.5,-504 489.5,-504 495.5,-504 501.5,-510 501.5,-516 501.5,-516 501.5,-528 501.5,-528 501.5,-534 495.5,-540 489.5,-540"/>
<text text-anchor="middle" x="449.5" y="-519.5" font-family="sans" font-size="10.00">orthofinder_blastp</text>
</g>
<!-- 17&#45;&gt;16 -->
<g id="edge22" class="edge"><title>17&#45;&gt;16</title>
<path fill="none" stroke="grey" stroke-width="2" d="M449.5,-503.697C449.5,-495.983 449.5,-486.712 449.5,-478.112"/>
<polygon fill="grey" stroke="grey" stroke-width="2" points="453,-478.104 449.5,-468.104 446,-478.104 453,-478.104"/>
</g>
<!-- 18 -->
<g id="node19" class="node"><title>18</title>
<path fill="none" stroke="#56d8d0" stroke-width="2" d="M457.5,-756C457.5,-756 369.5,-756 369.5,-756 363.5,-756 357.5,-750 357.5,-744 357.5,-744 357.5,-732 357.5,-732 357.5,-726 363.5,-720 369.5,-720 369.5,-720 457.5,-720 457.5,-720 463.5,-720 469.5,-726 469.5,-732 469.5,-732 469.5,-744 469.5,-744 469.5,-750 463.5,-756 457.5,-756"/>
<text text-anchor="middle" x="413.5" y="-735.5" font-family="sans" font-size="10.00">orthofinder_prepare</text>
</g>
<!-- 18&#45;&gt;17 -->
<g id="edge25" class="edge"><title>18&#45;&gt;17</title>
<path fill="none" stroke="grey" stroke-width="2" d="M405.194,-719.788C400.759,-709.634 395.759,-696.384 393.5,-684 384.887,-636.779 374.523,-620.089 393.5,-576 398.289,-564.874 406.69,-554.991 415.55,-546.863"/>
<polygon fill="grey" stroke="grey" stroke-width="2" points="418.041,-549.338 423.376,-540.184 413.497,-544.013 418.041,-549.338"/>
</g>
<!-- 19 -->
<g id="node20" class="node"><title>19</title>
<path fill="none" stroke="#d6d856" stroke-width="2" d="M490.5,-684C490.5,-684 414.5,-684 414.5,-684 408.5,-684 402.5,-678 402.5,-672 402.5,-672 402.5,-660 402.5,-660 402.5,-654 408.5,-648 414.5,-648 414.5,-648 490.5,-648 490.5,-648 496.5,-648 502.5,-654 502.5,-660 502.5,-660 502.5,-672 502.5,-672 502.5,-678 496.5,-684 490.5,-684"/>
<text text-anchor="middle" x="452.5" y="-663.5" font-family="sans" font-size="10.00">index_pep_fastas</text>
</g>
<!-- 18&#45;&gt;19 -->
<g id="edge27" class="edge"><title>18&#45;&gt;19</title>
<path fill="none" stroke="grey" stroke-width="2" d="M423.14,-719.697C427.627,-711.644 433.059,-701.894 438.024,-692.982"/>
<polygon fill="grey" stroke="grey" stroke-width="2" points="441.161,-694.544 442.97,-684.104 435.046,-691.137 441.161,-694.544"/>
</g>
<!-- 19&#45;&gt;17 -->
<g id="edge24" class="edge"><title>19&#45;&gt;17</title>
<path fill="none" stroke="grey" stroke-width="2" d="M476.977,-647.768C487.904,-638.555 499.624,-626.186 505.5,-612 511.623,-597.218 511.826,-590.696 505.5,-576 500.711,-564.874 492.31,-554.991 483.45,-546.863"/>
<polygon fill="grey" stroke="grey" stroke-width="2" points="485.503,-544.013 475.624,-540.184 480.959,-549.338 485.503,-544.013"/>
</g>
<!-- 20 -->
<g id="node21" class="node"><title>20</title>
<path fill="none" stroke="#566bd8" stroke-width="2" d="M484.5,-612C484.5,-612 414.5,-612 414.5,-612 408.5,-612 402.5,-606 402.5,-600 402.5,-600 402.5,-588 402.5,-588 402.5,-582 408.5,-576 414.5,-576 414.5,-576 484.5,-576 484.5,-576 490.5,-576 496.5,-582 496.5,-588 496.5,-588 496.5,-600 496.5,-600 496.5,-606 490.5,-612 484.5,-612"/>
<text text-anchor="middle" x="449.5" y="-591.5" font-family="sans" font-size="10.00">orthofinder_split</text>
</g>
<!-- 19&#45;&gt;20 -->
<g id="edge28" class="edge"><title>19&#45;&gt;20</title>
<path fill="none" stroke="grey" stroke-width="2" d="M451.758,-647.697C451.428,-639.983 451.031,-630.712 450.662,-622.112"/>
<polygon fill="grey" stroke="grey" stroke-width="2" points="454.158,-621.945 450.233,-612.104 447.165,-622.245 454.158,-621.945"/>
</g>
<!-- 20&#45;&gt;17 -->
<g id="edge23" class="edge"><title>20&#45;&gt;17</title>
<path fill="none" stroke="grey" stroke-width="2" d="M449.5,-575.697C449.5,-567.983 449.5,-558.712 449.5,-550.112"/>
<polygon fill="grey" stroke="grey" stroke-width="2" points="453,-550.104 449.5,-540.104 446,-550.104 453,-550.104"/>
</g>
<!-- 21 -->
<g id="node22" class="node"><title>21</title>
<path fill="none" stroke="#d85656" stroke-width="2" d="M454.5,-828C454.5,-828 372.5,-828 372.5,-828 366.5,-828 360.5,-822 360.5,-816 360.5,-816 360.5,-804 360.5,-804 360.5,-798 366.5,-792 372.5,-792 372.5,-792 454.5,-792 454.5,-792 460.5,-792 466.5,-798 466.5,-804 466.5,-804 466.5,-816 466.5,-816 466.5,-822 460.5,-828 454.5,-828"/>
<text text-anchor="middle" x="413.5" y="-807.5" font-family="sans" font-size="10.00">orthofinder_link_all</text>
</g>
<!-- 21&#45;&gt;18 -->
<g id="edge26" class="edge"><title>21&#45;&gt;18</title>
<path fill="none" stroke="grey" stroke-width="2" d="M413.5,-791.697C413.5,-783.983 413.5,-774.712 413.5,-766.112"/>
<polygon fill="grey" stroke="grey" stroke-width="2" points="417,-766.104 413.5,-756.104 410,-766.104 417,-766.104"/>
</g>
<!-- 22 -->
<g id="node23" class="node"><title>22</title>
<path fill="none" stroke="#d88556" stroke-width="2" d="M443.5,-900C443.5,-900 383.5,-900 383.5,-900 377.5,-900 371.5,-894 371.5,-888 371.5,-888 371.5,-876 371.5,-876 371.5,-870 377.5,-864 383.5,-864 383.5,-864 443.5,-864 443.5,-864 449.5,-864 455.5,-870 455.5,-876 455.5,-876 455.5,-888 455.5,-888 455.5,-894 449.5,-900 443.5,-900"/>
<text text-anchor="middle" x="413.5" y="-879.5" font-family="sans" font-size="10.00">filter_isoforms</text>
</g>
<!-- 22&#45;&gt;21 -->
<g id="edge29" class="edge"><title>22&#45;&gt;21</title>
<path fill="none" stroke="grey" stroke-width="2" d="M413.5,-863.697C413.5,-855.983 413.5,-846.712 413.5,-838.112"/>
<polygon fill="grey" stroke="grey" stroke-width="2" points="417,-838.104 413.5,-828.104 410,-838.104 417,-838.104"/>
</g>
</g>
</svg>
